<?xml version="1.0" encoding="UTF-8" standalone="no"?>
<!-- Created with Inkscape (http://www.inkscape.org/) -->

<svg
   width="296.83029"
   height="251.90863"
   viewBox="0 0 296.83029 251.90863"
   version="1.1"
   id="svg1"
   inkscape:export-filename="Senzanome.svg"
   inkscape:export-xdpi="96"
   inkscape:export-ydpi="96"
   sodipodi:docname="Senzanome.svg"
   inkscape:version="1.3 (0e150ed6c4, 2023-07-21)"
   xmlns:inkscape="http://www.inkscape.org/namespaces/inkscape"
   xmlns:sodipodi="http://sodipodi.sourceforge.net/DTD/sodipodi-0.dtd"
   xmlns:xlink="http://www.w3.org/1999/xlink"
   xmlns="http://www.w3.org/2000/svg"
   xmlns:svg="http://www.w3.org/2000/svg">
  <sodipodi:namedview
     id="namedview1"
     pagecolor="#ffffff"
     bordercolor="#000000"
     borderopacity="0.25"
     inkscape:showpageshadow="2"
     inkscape:pageopacity="0.0"
     inkscape:pagecheckerboard="0"
     inkscape:deskcolor="#d1d1d1"
     inkscape:document-units="px"
     inkscape:zoom="0.865"
     inkscape:cx="-18.49711"
     inkscape:cy="156.6474"
     inkscape:window-width="1366"
     inkscape:window-height="715"
     inkscape:window-x="-8"
     inkscape:window-y="-8"
     inkscape:window-maximized="1"
     inkscape:current-layer="layer1" />
  <defs
     id="defs1">
    <linearGradient
       id="linearGradient425"
       inkscape:collect="always">
      <stop
         style="stop-color:#a87768;stop-opacity:1;"
         offset="0"
         id="stop426" />
      <stop
         style="stop-color:#a87768;stop-opacity:0;"
         offset="1"
         id="stop427" />
    </linearGradient>
    <linearGradient
       id="linearGradient424"
       inkscape:collect="always">
      <stop
         style="stop-color:#a87768;stop-opacity:1;"
         offset="0"
         id="stop424" />
      <stop
         style="stop-color:#a87768;stop-opacity:0;"
         offset="1"
         id="stop425" />
    </linearGradient>
    <linearGradient
       id="swatch20"
       inkscape:swatch="solid">
      <stop
         style="stop-color:#31ac03;stop-opacity:1;"
         offset="0"
         id="stop20" />
    </linearGradient>
    <radialGradient
       inkscape:collect="always"
       xlink:href="#linearGradient424"
       id="radialGradient425"
       cx="151.26601"
       cy="117.6582"
       fx="151.26601"
       fy="117.6582"
       r="149.67349"
       gradientTransform="matrix(0.8481041,-2.7015043e-4,-0.03198851,0.60365043,100.88631,47.941184)"
       gradientUnits="userSpaceOnUse" />
    <radialGradient
       inkscape:collect="always"
       xlink:href="#linearGradient425"
       id="radialGradient427"
       cx="154.08809"
       cy="117.77065"
       fx="154.08809"
       fy="117.77065"
       r="149.6516"
       gradientTransform="matrix(0.92355412,0.0380384,0.02749548,-0.62943502,14.014495,190.99574)"
       gradientUnits="userSpaceOnUse" />
  </defs>
  <g
     inkscape:label="Livello 1"
     inkscape:groupmode="layer"
     id="layer1"
     transform="translate(-2.9800692,40.186771)">
    <g
       id="text1"
       style="font-size:29.3333px;font-family:'Courier New';-inkscape-font-specification:'Courier New';fill:#171717"
       aria-label="Vetrina&#10;&#10;informatica"
       transform="matrix(0.88342876,-0.02000942,0.01871948,0.94430457,-16.230179,-59.985251)"
       inkscape:transform-center-x="-6.8572568"
       inkscape:transform-center-y="-10.665284">
      <path
         style="font-size:29.3333px;font-family:'Courier New';-inkscape-font-specification:'Courier New';fill:url(#radialGradient425);stroke-width:5.51706"
         d="M 93.738348,208.31605 C 350.10925,162.46207 357.13848,28.533818 357.13848,28.533818 L 347.17793,209.2349 Z"
         id="path7"
         sodipodi:nodetypes="cccc"
         inkscape:transform-center-x="-0.61332157"
         inkscape:transform-center-y="-1.8401061" />
      <path
         style="font-size:29.3333px;font-family:'Courier New';-inkscape-font-specification:'Courier New';fill:url(#radialGradient427);stroke-width:5.86427"
         d="M 293.65794,222.6165 C 19.158875,161.33543 25.965231,22.86019 25.965231,22.86019 l -8.664053,186.86198 z"
         id="path14"
         sodipodi:nodetypes="cccc"
         inkscape:transform-center-x="5.3431252"
         inkscape:transform-center-y="11.371486" />
      <path
         style="font-size:29.3333px;font-family:'Courier New';-inkscape-font-specification:'Segoe Script Bold';fill:#4a4a2e;fill-opacity:1;stroke:#e3e35f;stroke-width:1.15717;stroke-dasharray:none;stroke-opacity:1"
         d="m 81.982841,202.5917 c 0,0 -0.04444,0.20098 -0.151455,0.53876 -0.147754,0.26605 -0.225312,0.3627 -0.424018,0.6522 -0.427933,0.53584 -1.21897,0.76503 -2.068042,0.73967 -0.290181,-0.008 -0.591147,-0.0403 -0.902903,-0.0953 -0.311767,-0.0661 -0.596702,-0.1542 -0.854781,-0.26424 -0.247366,-0.121 -0.451776,-0.26351 -0.613214,-0.42746 -0.161452,-0.16394 -0.242324,-0.34821 -0.242622,-0.5528 -5.89e-4,-0.35235 0.0849,-0.71918 0.256327,-1.10048 0.182129,-0.39234 0.4073,-0.74932 0.675526,-1.0709 0.268183,-0.33296 0.563337,-0.6026 0.885459,-0.80894 0.332843,-0.21736 0.649739,-0.32155 0.950673,-0.31253 0.376167,0.0114 0.709383,0.0496 0.999663,0.11518 0.29026,0.054 0.537575,0.14676 0.741967,0.27788 0.204381,0.13115 0.498682,0.17927 0.595748,0.40948 0.107849,0.23054 0.339791,0.44226 0.281734,0.89207 z m 6.167278,19.05474 c -0.354096,0.36448 -0.692138,0.70668 -1.014103,1.02668 -0.311196,0.3203 -0.627809,0.6234 -0.949795,0.90927 -0.322018,0.28589 -0.649398,0.56595 -0.982152,0.84014 -0.322029,0.27449 -0.665529,0.5484 -1.030543,0.82161 -0.740755,0.54614 -1.470975,0.96759 -2.190597,1.26431 -0.719647,0.28538 -1.401902,0.41843 -2.046761,0.39916 -0.752341,-0.023 -1.408151,-0.1728 -1.967407,-0.45091 -0.548534,-0.28918 -1.021941,-0.66702 -1.420273,-1.13353 -0.387611,-0.47757 -0.705443,-1.01555 -0.95348,-1.61399 -0.248082,-0.60979 -0.447835,-1.24656 -0.599261,-1.91027 -0.140694,-0.67477 -0.238413,-1.35395 -0.293137,-2.03752 -0.05472,-0.68355 -0.0825,-1.33224 -0.0834,-1.94601 -3.65e-4,-0.23868 0.01531,-0.57918 0.04688,-1.02149 0.03155,-0.45369 0.07396,-0.92408 0.126912,-1.41123 0.0638,-0.49818 0.127556,-0.97931 0.191346,-1.4434 0.07463,-0.46373 0.149244,-0.83659 0.224076,-1.11849 0.08552,-0.29294 0.219489,-0.56741 0.401803,-0.82337 0.193077,-0.267 0.429163,-0.51001 0.708264,-0.72897 0.558181,-0.46064 1.181202,-0.68072 1.869068,-0.66019 0.698591,0.021 1.048538,0.4746 1.04983,1.36116 3.95e-4,0.30688 -0.03122,0.66963 -0.09515,1.08826 -0.06392,0.41861 -0.122322,0.84308 -0.175482,1.27339 -0.06377,0.50954 -0.122138,0.96809 -0.175309,1.37565 -0.05317,0.39623 -0.101024,0.75849 -0.143501,1.08682 -0.03175,0.31729 -0.05825,0.60632 -0.0793,0.8671 -0.02117,0.26077 -0.03147,0.51052 -0.03112,0.7492 5.36e-4,0.4319 0.02828,0.91578 0.08267,1.45158 0.06532,0.53615 0.157351,1.03897 0.276242,1.50851 0.118958,0.4582 0.264554,0.84897 0.436987,1.17235 0.172392,0.31203 0.371463,0.4714 0.597165,0.47814 0.333176,0.0106 0.709283,-0.0185 1.128314,-0.0856 0.41904,-0.0784 0.864791,-0.25262 1.337284,-0.52264 0.450998,-0.25932 0.918056,-0.56358 1.401175,-0.91283 0.493848,-0.34896 0.998395,-0.7544 1.513559,-1.21637 0.483022,-0.42881 0.955276,-0.85797 1.416794,-1.28743 0.472243,-0.42914 0.944444,-0.89807 1.41657,-1.40678 0.214618,-0.23228 0.407776,-0.44246 0.579451,-0.63055 0.182421,-0.18776 0.348745,-0.36463 0.498981,-0.53063 0.150204,-0.17736 0.295023,-0.3435 0.434524,-0.49846 0.150225,-0.166 0.305802,-0.33753 0.466752,-0.51456 0.04297,-0.0556 0.09636,-0.11641 0.160951,-0.1827 0.06446,-0.0776 0.134116,-0.14945 0.209255,-0.21538 0.07534,-0.0772 0.155631,-0.13743 0.241538,-0.18034 0.08582,-0.0544 0.171835,-0.0801 0.257849,-0.0776 0.11819,0.004 0.241836,0.0357 0.370899,0.0963 0.13981,0.061 0.247434,0.17788 0.322914,0.35064 0.07557,0.16138 0.118658,0.32179 0.129683,0.48123 0.01203,0.14811 0.01607,0.27325 0.01637,0.37556 4.86e-4,0.11369 -0.05882,0.29943 -0.176515,0.55732 -0.117847,0.24652 -0.273275,0.53737 -0.466219,0.87259 -0.192976,0.3352 -0.418148,0.69217 -0.675528,1.07091 -0.257369,0.37873 -0.520143,0.75732 -0.788258,1.13573 -0.268148,0.3784 -0.541646,0.73959 -0.820583,1.08362 -0.268201,0.33296 -0.520346,0.62092 -0.756446,0.86392 z m 29.282761,-6.06371 c -5.2e-4,0.21594 -0.0369,0.45352 -0.11162,0.7127 -0.0748,0.2478 -0.17121,0.49497 -0.28906,0.74148 -0.1071,0.24686 -0.23038,0.48183 -0.36976,0.70499 -0.12863,0.21211 -0.252,0.39025 -0.36998,0.53449 -0.34328,0.44436 -0.72949,0.91585 -1.15867,1.41448 -0.41841,0.49896 -0.85833,0.99159 -1.31975,1.47787 -0.46143,0.4863 -0.93363,0.95526 -1.41659,1.40678 -0.48298,0.4402 -0.96604,0.82356 -1.44921,1.1501 -0.37578,0.26155 -0.74082,0.50637 -1.09514,0.73446 -0.34359,0.21703 -0.70333,0.41086 -1.07923,0.58149 -0.36516,0.17092 -0.75725,0.30126 -1.17628,0.39104 -0.40824,0.0902 -0.85958,0.12777 -1.35399,0.11304 -0.80606,-0.0244 -1.47804,-0.21463 -2.01594,-0.57171 -0.52711,-0.35668 -0.95769,-0.82419 -1.29167,-1.40245 -0.33403,-0.57825 -0.59291,-1.23381 -0.7767,-1.96671 -0.17303,-0.74394 -0.30848,-1.51516 -0.40636,-2.3137 -0.14133,-1.08393 -0.29835,-1.94106 -0.47127,-2.57131 -0.17287,-0.64166 -0.38292,-0.96616 -0.63012,-0.97354 -0.21496,-0.006 -0.42445,0.0442 -0.62851,0.15169 -0.204038,0.0961 -0.461664,0.31579 -0.772828,0.65884 -0.300419,0.34336 -0.686606,0.84896 -1.158486,1.51681 -0.461155,0.65677 -1.067109,1.53654 -1.817819,2.63931 -0.25738,0.37872 -0.573822,0.80117 -0.949294,1.26731 -0.364705,0.46645 -0.750956,0.91523 -1.158709,1.34629 -0.407798,0.41972 -0.815648,0.79396 -1.223573,1.12274 -0.397178,0.31773 -0.767662,0.53398 -1.111364,0.64872 -1.354706,-0.3587 -2.033798,-1.74858 -2.037342,-4.16954 -5.15e-4,-0.61374 0.06229,-1.51543 0.18953,-2.70502 0.06382,-0.53229 0.13275,-1.09283 0.207111,-1.68159 0.08514,-0.5885 0.186364,-1.17647 0.303743,-1.76396 0.128037,-0.59855 0.277687,-1.17943 0.44884,-1.74258 0.171109,-0.57453 0.36917,-1.10279 0.594172,-1.5848 0.128529,-0.26892 0.273372,-0.48055 0.434343,-0.63485 0.160982,-0.15431 0.322007,-0.26883 0.483118,-0.34357 0.171835,-0.0745 0.349097,-0.1203 0.531785,-0.13757 0.182667,-0.0174 0.365367,-0.0231 0.548087,-0.0178 0.161229,0.005 0.317125,0.055 0.467724,0.15034 0.150577,0.084 0.285099,0.2074 0.403544,0.37006 0.118499,0.16268 0.210109,0.35863 0.274929,0.58787 0.07559,0.22957 0.113356,0.4921 0.113783,0.78764 2.1e-4,0.26139 -0.0209,0.51081 -0.06352,0.74823 -0.04251,0.23739 -0.10143,0.48569 -0.176249,0.74483 -0.0748,0.24783 -0.155086,0.51253 -0.240651,0.79412 -0.07495,0.28189 -0.154948,0.60341 -0.240407,0.96454 -0.05339,0.2371 -0.133583,0.54156 -0.240492,0.91345 -0.09599,0.37219 -0.197698,0.76126 -0.304596,1.16722 -0.09627,0.39494 -0.18692,0.78435 -0.272325,1.16825 -0.08542,0.38384 -0.138722,0.70616 -0.159808,0.96695 0.193093,-0.23292 0.412988,-0.52184 0.659685,-0.86679 0.257423,-0.35603 0.525538,-0.73444 0.804367,-1.13526 0.278841,-0.41219 0.563055,-0.82992 0.852609,-1.25316 0.289555,-0.42325 0.579152,-0.82375 0.868749,-1.20151 0.375473,-0.48888 0.745583,-0.9495 1.110341,-1.38185 0.364768,-0.43235 0.745763,-0.80172 1.142985,-1.1081 0.407903,-0.31741 0.848206,-0.55997 1.320833,-0.72771 0.472625,-0.1791 1.004485,-0.25981 1.595615,-0.24216 0.69859,0.021 1.26843,0.19137 1.70956,0.51141 0.44106,0.3087 0.79097,0.73398 1.04968,1.2759 0.26948,0.54224 0.46925,1.18469 0.59929,1.92734 0.13002,0.73126 0.2333,1.52996 0.30978,2.39602 0.0437,0.44455 0.0979,0.90082 0.16321,1.36874 0.0759,0.46825 0.184,0.89771 0.32429,1.28832 0.14027,0.37925 0.32345,0.69729 0.54951,0.95409 0.22604,0.24542 0.50564,0.37312 0.83883,0.38308 0.4944,0.0147 1.0316,-0.10554 1.61156,-0.36102 0.59069,-0.26649 1.20815,-0.63445 1.8523,-1.10392 0.64413,-0.46949 1.30429,-1.01806 1.98044,-1.64567 0.67619,-0.62765 1.35226,-1.30075 2.02831,-2.01929 0.2146,-0.23229 0.41846,-0.45919 0.6116,-0.68072 0.20385,-0.23259 0.397,-0.43708 0.57946,-0.61346 0.18244,-0.18778 0.35954,-0.33591 0.53134,-0.44444 0.1718,-0.10859 0.34369,-0.16022 0.51564,-0.15509 0.0646,0.002 0.13975,0.0162 0.22574,0.0409 0.0859,0.0146 0.16666,0.0503 0.24197,0.10942 0.0756,0.0477 0.13453,0.11765 0.17764,0.20991 0.0539,0.0924 0.0809,0.21836 0.0812,0.37748 z m 13.42821,-0.33184 c 4.8e-4,0.11369 -0.0425,0.25447 -0.12824,0.42238 -0.0857,0.15656 -0.193,0.31818 -0.32172,0.48478 -0.12872,0.16665 -0.27896,0.32697 -0.45068,0.48095 -0.16101,0.14294 -0.32203,0.25747 -0.48313,0.34358 -0.16111,0.0746 -0.42964,0.16333 -0.80565,0.26576 -0.37599,0.10235 -0.81651,0.2029 -1.32147,0.30148 -0.49426,0.0875 -1.03151,0.16808 -1.61172,0.24165 -0.5695,0.0739 -1.12829,0.13108 -1.67634,0.17153 -0.48357,0.0309 -0.90267,0.0639 -1.2573,0.0988 -0.34386,0.024 -0.6555,0.0487 -0.93488,0.0744 -0.27939,0.0144 -0.54271,0.0292 -0.78987,0.0448 -0.24714,0.005 -0.51587,10e-4 -0.80604,-0.007 -0.0211,0.22664 -0.0637,0.60613 -0.12741,1.13839 -0.0637,0.52094 -0.1381,1.1211 -0.22308,1.80047 -0.0744,0.66836 -0.15918,1.38186 -0.25482,2.1405 -0.0851,0.74758 -0.17518,1.46661 -0.27093,2.15706 -0.085,0.67936 -0.16468,1.29642 -0.23909,1.85111 -0.0638,0.54363 -0.11678,0.95123 -0.15944,1.22273 -0.0958,0.62224 -0.20772,1.26671 -0.33573,1.93346 -0.1279,0.66676 -0.27226,1.22504 -0.4328,1.67487 -0.20337,0.57357 -0.46592,1.11696 -0.78757,1.63016 -0.31088,0.5249 -0.67023,1.02559 -1.07792,1.50213 -0.83686,0.9638 -1.84105,1.4282 -3.01256,1.39319 -0.25794,-0.007 -0.52135,-0.0667 -0.79018,-0.17704 -0.25808,-0.0986 -0.48931,-0.23056 -0.69378,-0.3958 -0.21516,-0.15419 -0.38739,-0.32981 -0.51663,-0.52686 -0.12915,-0.19709 -0.19401,-0.39223 -0.1943,-0.58547 -2.5e-4,-0.18185 0.0369,-0.40238 0.11184,-0.66155 0.075,-0.24779 0.18204,-0.48328 0.3214,-0.70643 0.13939,-0.22314 0.30031,-0.41722 0.48279,-0.58225 0.18246,-0.15368 0.38655,-0.22714 0.61227,-0.22038 0.0646,0.001 0.14509,0.0102 0.24185,0.0242 l 0.32252,0.0779 c 0.11826,0.0377 0.23118,0.0638 0.33865,0.0783 0.11823,0.0262 0.2204,0.0407 0.30637,0.0433 0.1825,-0.13094 0.33805,-0.33084 0.46663,-0.59978 0.13931,-0.26864 0.25711,-0.57198 0.35333,-0.91006 0.10693,-0.33779 0.20318,-0.69862 0.28859,-1.08248 0.0854,-0.37251 0.16013,-0.73967 0.22409,-1.10145 0.1386,-0.75735 0.26116,-1.48109 0.3676,-2.1712 0.11703,-0.68983 0.22375,-1.36287 0.31952,-2.01922 0.0958,-0.65634 0.18077,-1.30165 0.25509,-1.9359 0.0744,-0.6456 0.1325,-1.2974 0.17448,-1.95533 0.0212,-0.15849 0.0425,-0.35676 0.0636,-0.59482 0.0318,-0.23771 0.0585,-0.49265 0.0795,-0.76479 0.0318,-0.27184 0.0529,-0.53828 0.0633,-0.79937 0.0212,-0.27214 0.0314,-0.5162 0.0311,-0.73216 -1.3e-4,-0.0795 -0.054,-0.17777 -0.16162,-0.29465 -0.10757,-0.11688 -0.22607,-0.25112 -0.35525,-0.40272 -0.12919,-0.15162 -0.24765,-0.31427 -0.35538,-0.48797 -0.10767,-0.17371 -0.16169,-0.35149 -0.16197,-0.53335 0.0318,-0.28318 0.35883,-0.82466 0.98098,-1.6244 0.2682,-0.3443 0.46661,-0.63389 0.5952,-0.86871 0.12859,-0.2462 0.21962,-0.49352 0.27301,-0.74198 0.0534,-0.24844 0.0905,-0.5201 0.11169,-0.81496 0.0319,-0.29458 0.0797,-0.66253 0.14347,-1.10388 0.0958,-0.64497 0.1863,-1.23327 0.27152,-1.7649 0.0851,-0.53166 0.18656,-1.03439 0.30407,-1.50823 0.12826,-0.48489 0.28342,-0.9576 0.46546,-1.41816 0.18203,-0.46054 0.41239,-0.94237 0.69109,-1.44549 0.22509,-0.40245 0.49855,-0.80913 0.82038,-1.22004 0.33256,-0.4106 0.69744,-0.78041 1.0946,-1.10953 0.4079,-0.32877 0.83744,-0.58874 1.28852,-0.77981 0.45109,-0.20247 0.90773,-0.29678 1.36987,-0.28297 0.96728,0.0284 1.76852,0.3881 2.40358,1.07765 0.71038,0.73726 1.06627,1.57191 1.06763,2.50394 0.002,1.13659 -0.41034,2.3404 -1.23604,3.61139 -0.51468,0.82568 -1.08908,1.22905 -1.72319,1.21007 l -0.29017,-0.008 c 0.13889,-0.55275 0.24025,-1.07254 0.30402,-1.55935 0.0639,-0.48681 0.0954,-0.9348 0.0949,-1.34398 -2.6e-4,-0.18186 -0.0117,-0.42087 -0.0332,-0.71703 -0.022,-0.30754 -0.0654,-0.60434 -0.13033,-0.89042 -0.065,-0.28606 -0.15125,-0.533 -0.259,-0.74081 -0.10787,-0.21918 -0.24232,-0.33118 -0.40353,-0.33598 -0.10736,-0.004 -0.23634,0.0725 -0.38658,0.22713 -0.15023,0.15463 -0.30576,0.34889 -0.46663,0.58276 -0.15012,0.23419 -0.30022,0.49111 -0.45026,0.77076 -0.15007,0.27965 -0.28401,0.54843 -0.40188,0.80633 -0.13924,0.31405 -0.28905,0.75852 -0.44941,1.33338 -0.16041,0.56347 -0.30997,1.17276 -0.44875,1.82781 -0.13875,0.64371 -0.2614,1.29357 -0.36792,1.94958 -0.10668,0.64464 -0.18095,1.2164 -0.22319,1.7152 l 0.002,0.68199 c 1e-4,0.0682 0.0754,0.12724 0.22593,0.17725 0.15054,0.0388 0.3494,0.073 0.59663,0.10309 0.25799,0.0305 0.54819,0.0561 0.87064,0.0771 l 0.98341,0.029 c 0.55889,0.0164 1.09086,0.0207 1.596,0.0135 0.51583,-0.007 1.02631,-0.0262 1.53139,-0.0566 0.50507,-0.0417 1.01547,-0.0946 1.53125,-0.15883 0.52654,-0.0638 1.07451,-0.14406 1.64398,-0.2407 0.086,-0.01 0.16656,-0.0121 0.2418,-0.01 0.086,-0.01 0.17731,-0.0117 0.27403,-0.01 0.5374,0.0164 0.8064,0.25141 0.80709,0.70605 z m 19.18181,-1.37033 c -5.3e-4,0.2159 -0.0691,0.44687 -0.20857,0.69276 -0.12859,0.23482 -0.3002,0.47405 -0.51479,0.71768 -0.20389,0.23258 -0.43999,0.46421 -0.70833,0.69487 -0.2683,0.23066 -0.53673,0.44425 -0.8051,0.64082 -0.26842,0.18521 -0.52611,0.34799 -0.77312,0.48836 -0.23619,0.1407 -0.43485,0.24841 -0.59599,0.32315 -0.29,0.11632 -0.66601,0.22447 -1.12798,0.32431 -0.45125,0.0888 -0.92939,0.16545 -1.4344,0.22992 -0.49432,0.0534 -0.97788,0.0958 -1.45071,0.12712 -0.4621,0.0318 -0.85435,0.0427 -1.17677,0.0331 -0.0752,-0.002 -0.18275,-0.0111 -0.32247,-0.0267 -0.12896,-0.0265 -0.27413,-0.0592 -0.43539,-0.0983 -0.15051,-0.0388 -0.3064,-0.083 -0.46771,-0.13331 -0.15052,-0.0614 -0.27962,-0.13336 -0.38722,-0.21615 0.1187,0.26497 0.18353,0.55671 0.19474,0.87528 0.022,0.30753 0.0331,0.61476 0.0336,0.92163 -5.2e-4,0.21595 -0.0208,0.47106 -0.0634,0.76528 -0.0426,0.29425 -0.10134,0.59368 -0.17604,0.89831 -0.0641,0.30496 -0.14422,0.59807 -0.24052,0.87932 -0.0964,0.28127 -0.19807,0.5169 -0.30526,0.70692 -0.26801,0.48071 -0.55754,0.92101 -0.86864,1.32086 -0.30033,0.4002 -0.63833,0.77084 -1.01399,1.11195 -0.37564,0.3411 -0.79971,0.65802 -1.27213,0.9508 -0.47247,0.29273 -1.02018,0.57755 -1.64311,0.85443 -0.6659,0.28698 -1.33194,0.48304 -1.9981,0.58816 -0.66622,0.0937 -1.35401,0.13002 -2.06335,0.1088 -0.52665,-0.016 -0.99435,-0.17177 -1.40319,-0.46814 -0.40884,-0.30771 -0.75334,-0.71012 -1.0335,-1.20721 -0.28012,-0.4971 -0.49592,-1.06615 -0.6473,-1.70714 -0.14062,-0.64067 -0.21148,-1.30766 -0.2125,-2.001 -8e-5,-0.1705 0.011,-0.38041 0.0312,-0.62986 0.0319,-0.26047 0.0692,-0.52075 0.11162,-0.78089 0.0533,-0.25982 0.10671,-0.51394 0.16008,-0.76238 0.0641,-0.24815 0.12281,-0.45663 0.17644,-0.62552 0.14976,-0.47289 0.36392,-1.01202 0.64245,-1.61746 0.28931,-0.60511 0.62695,-1.22013 1.01295,-1.84506 0.38597,-0.6363 0.81496,-1.25428 1.28697,-1.85389 0.47201,-0.61101 0.97094,-1.14732 1.49689,-1.609 0.53666,-0.47267 1.08959,-0.84825 1.65881,-1.12675 0.57996,-0.27819 1.16007,-0.40859 1.74047,-0.39125 0.2472,0.006 0.44607,0.0417 0.59664,0.10308 0.15053,0.05 0.27424,0.12182 0.37109,0.21568 0.0967,0.0824 0.18297,0.18163 0.25836,0.29753 0.0861,0.10485 0.17763,0.2099 0.27452,0.3151 0.0751,-0.0205 0.1504,-0.0354 0.22561,-0.0446 0.086,-0.01 0.17194,-0.0118 0.25793,-0.01 0.33317,0.0106 0.66119,0.15615 0.98401,0.43857 0.32283,0.28244 0.65107,0.59344 0.98472,0.93299 0.15071,0.15227 0.30139,0.31019 0.4521,0.47381 0.16141,0.1526 0.3067,0.29333 0.43586,0.42219 0.12899,0.11752 0.24213,0.21749 0.33898,0.29995 0.10748,0.0716 0.18286,0.10776 0.22584,0.10905 l 0.90284,0.0271 0.99947,-0.004 c 0.34387,-0.0125 0.67165,-0.031 0.98326,-0.0559 0.32243,-0.0246 0.61254,-0.0556 0.87042,-0.0934 0.0323,-0.0107 0.17191,-0.0402 0.41901,-0.0897 0.24707,-0.0609 0.54255,-0.13152 0.88636,-0.2122 0.35452,-0.0916 0.73589,-0.1883 1.14415,-0.28974 0.40826,-0.10147 0.78426,-0.19253 1.12804,-0.27315 0.35455,-0.0916 0.65535,-0.16227 0.90249,-0.21171 0.25783,-0.0606 0.40825,-0.0902 0.45124,-0.0888 0.21492,0.006 0.38697,0.04 0.51601,0.10078 0.12902,0.0607 0.19376,0.22174 0.19415,0.48315 z m -18.5877,10.81582 c 0.87056,0.0267 1.63863,-0.19537 2.3043,-0.66422 0.67639,-0.46848 1.24508,-1.09933 1.70606,-1.89252 0.46094,-0.80453 0.81429,-1.72029 1.05997,-2.74723 0.25643,-1.03795 0.3892,-2.10803 0.39834,-3.21021 -0.0755,-0.17275 -0.1886,-0.3523 -0.33933,-0.53865 -0.13999,-0.18605 -0.30142,-0.34996 -0.48434,-0.49182 -0.18292,-0.15322 -0.37118,-0.27821 -0.56478,-0.37491 -0.19356,-0.0966 -0.371,-0.14748 -0.53221,-0.15228 -0.25791,-0.007 -0.53721,0.092 -0.83783,0.29887 -0.30061,0.20699 -0.57973,0.42026 -0.83736,0.63988 -0.25763,0.21961 -0.5151,0.5131 -0.77253,0.88048 -0.24665,0.35633 -0.47713,0.7586 -0.69142,1.20683 -0.21429,0.44821 -0.41242,0.92532 -0.5944,1.43135 -0.18196,0.49464 -0.33709,0.99008 -0.46533,1.48634 -0.12812,0.48488 -0.22967,0.95921 -0.30422,1.42299 -0.064,0.46407 -0.0955,0.87797 -0.0951,1.24168 2.6e-4,0.18185 0.0272,0.35883 0.0812,0.53092 0.054,0.17211 0.12417,0.32762 0.21026,0.4666 0.0967,0.13927 0.20993,0.25063 0.33901,0.33403 0.12906,0.0834 0.26888,0.12743 0.41935,0.13185 z m 31.06671,-9.7951 c -0.011,0.38609 -0.0795,0.70798 -0.20816,0.96554 -0.11783,0.25787 -0.27337,0.46348 -0.46659,0.61682 -0.18252,0.1423 -0.39192,0.24403 -0.62825,0.30518 -0.23637,0.0498 -0.47279,0.0711 -0.70924,0.0641 -0.19347,-0.006 -0.38696,-0.04 -0.58052,-0.10257 -0.19353,-0.0626 -0.39239,-0.0971 -0.59659,-0.10308 -0.34392,-0.0106 -0.76832,0.0907 -1.27312,0.30293 -0.49408,0.20118 -1.00417,0.47005 -1.53029,0.80667 -0.52614,0.33663 -1.04145,0.71332 -1.54597,1.13016 -0.50452,0.4168 -0.93918,0.83003 -1.30399,1.23967 -0.20386,0.23255 -0.43988,0.51533 -0.70808,0.84831 -0.26819,0.32158 -0.52563,0.66055 -0.77232,1.01687 -0.23591,0.35664 -0.43959,0.71426 -0.61104,1.07284 -0.16068,0.3589 -0.2408,0.68611 -0.24038,0.98161 5.1e-4,0.36371 0.0332,0.79091 0.0987,1.28157 0.0761,0.49101 0.1142,1.00927 0.11497,1.55484 4.3e-4,0.19325 -0.006,0.37489 -0.0152,0.54508 -1.3e-4,0.15914 -0.0209,0.31765 -0.0639,0.47546 -0.0216,0.13575 -0.0908,0.28711 -0.2089,0.45406 -0.10716,0.15594 -0.24674,0.3052 -0.41848,0.44781 -0.17176,0.15397 -0.35964,0.27908 -0.56367,0.37526 -0.20407,0.0961 -0.4136,0.14108 -0.62856,0.13468 -0.35464,-0.0106 -0.65578,-0.15599 -0.90339,-0.43616 -0.24758,-0.28017 -0.44697,-0.66687 -0.59815,-1.16012 -0.1404,-0.49291 -0.2434,-1.06995 -0.3088,-1.73111 -0.0658,-0.66117 -0.0988,-1.37251 -0.0999,-2.13401 l -7.1e-4,-0.46036 c 0.0112,-0.26107 0.0153,-0.54507 0.0149,-0.85198 0.0112,-0.30653 0.0205,-0.60176 0.031,-0.88558 0.0112,-0.2838 0.0153,-0.46555 0.0153,-0.54508 -8e-5,-0.0453 0.006,-0.19304 0.0154,-0.44281 0.0211,-0.24941 0.0422,-0.54997 0.0632,-0.90167 0.0318,-0.36274 0.0581,-0.7484 0.0788,-1.15694 0.0317,-0.41957 0.058,-0.81658 0.0789,-1.19102 0.0317,-0.37413 0.0582,-0.70294 0.0791,-0.98646 0.021,-0.29488 0.037,-0.48759 0.0475,-0.57823 0.0117,-0.0338 0.0213,-0.14713 0.0318,-0.34001 0.0211,-0.20397 0.0424,-0.43631 0.0635,-0.69707 0.0319,-0.26047 0.0692,-0.52644 0.11159,-0.79796 0.0426,-0.27149 0.0852,-0.49752 0.12788,-0.67808 0.0429,-0.15786 0.12839,-0.34283 0.25715,-0.55491 0.1394,-0.21179 0.31109,-0.41124 0.51499,-0.59838 0.21465,-0.19815 0.45081,-0.36159 0.7086,-0.49027 0.25775,-0.14004 0.53168,-0.20575 0.8219,-0.19706 0.34388,0.0106 0.61803,0.0752 0.82243,0.19505 0.2151,0.1202 0.38189,0.26712 0.5004,0.44114 0.12908,0.16301 0.21546,0.34175 0.2587,0.53624 0.0432,0.18315 0.0651,0.34863 0.0652,0.49637 1.2e-4,0.0908 -0.0319,0.29454 -0.0959,0.61087 -0.0643,0.30494 -0.14951,0.64338 -0.25647,1.01524 -0.1281,0.49627 -0.24025,1.07823 -0.33599,1.74594 -0.0958,0.65636 -0.17009,1.29059 -0.2229,1.90276 0.59008,-0.68701 1.22317,-1.37846 1.89921,-2.07431 0.67604,-0.70719 1.37909,-1.3397 2.10909,-1.89754 0.72998,-0.56919 1.47625,-1.02424 2.2388,-1.36514 0.76256,-0.35231 1.52536,-0.51704 2.28841,-0.49423 0.37618,0.0114 0.71484,0.0896 1.01598,0.23495 0.30112,0.13402 0.55394,0.31205 0.75845,0.5341 0.21526,0.21101 0.37683,0.44885 0.48467,0.71346 0.11867,0.25361 0.17808,0.51111 0.17845,0.77252 l 5e-5,0.0341 z m 37.93757,3.55447 c 3.1e-4,0.10229 -0.0266,0.23788 -0.08,0.40678 -0.0428,0.15785 -0.1015,0.33223 -0.17658,0.52321 -0.0747,0.17962 -0.16602,0.36443 -0.27323,0.55443 -0.0967,0.19034 -0.19293,0.36931 -0.28941,0.5369 -0.17154,0.27901 -0.40216,0.60174 -0.69177,0.96816 -0.28964,0.3664 -0.6115,0.74889 -0.96559,1.14747 -0.35409,0.39859 -0.72965,0.79654 -1.12674,1.19381 -0.39704,0.3973 -0.78878,0.76634 -1.17518,1.10714 -0.3113,0.26346 -0.67627,0.55375 -1.09496,0.87084 -0.41867,0.3171 -0.86426,0.61063 -1.33674,0.88066 -0.47247,0.27003 -0.9558,0.49424 -1.44989,0.67271 -0.4834,0.1674 -0.95081,0.24435 -1.4022,0.23086 -0.41917,-0.0127 -0.82766,-0.11009 -1.22561,-0.29233 -0.38717,-0.19341 -0.75309,-0.53963 -1.09774,-1.03865 -0.33386,-0.4987 -0.63041,-1.18951 -0.88963,-2.07239 -0.25924,-0.8829 -0.46507,-2.02561 -0.61758,-3.42811 -0.0111,-0.13673 -0.0273,-0.34751 -0.0493,-0.63229 -0.0123,-0.29587 -0.0278,-0.58614 -0.0497,-0.87097 -0.0123,-0.29585 -0.0276,-0.55204 -0.0495,-0.76863 -0.0218,-0.21662 -0.0435,-0.32523 -0.0652,-0.32587 -0.086,-0.002 -0.23086,0.12948 -0.43469,0.39619 -0.19306,0.26699 -0.42897,0.62363 -0.70777,1.06992 -0.26801,0.43526 -0.56281,0.94356 -0.8844,1.52497 -0.32158,0.57005 -0.65388,1.1625 -0.99695,1.77735 -0.4287,0.78278 -0.83609,1.48664 -1.22206,2.11159 -0.37527,0.61388 -0.73456,1.13166 -1.07782,1.55329 -0.3326,0.41058 -0.65992,0.72471 -0.98203,0.9424 -0.31133,0.21802 -0.62821,0.32222 -0.95068,0.31258 -0.49438,-0.0147 -0.89758,-0.12349 -1.20954,-0.32597 -0.31195,-0.2139 -0.5596,-0.52819 -0.74293,-0.94282 -0.18332,-0.42598 -0.31306,-0.96407 -0.38923,-1.61418 -0.0762,-0.66148 -0.12574,-1.44152 -0.14859,-2.34006 -0.0343,-1.50127 -0.0844,-2.67344 -0.15015,-3.51644 -0.0549,-0.8427 -0.13622,-1.26567 -0.24364,-1.26887 -0.12893,-0.004 -0.34368,0.16589 -0.64412,0.50922 -0.30042,0.34338 -0.65976,0.81566 -1.07804,1.41691 -0.40752,0.60158 -0.85784,1.30985 -1.35102,2.12479 -0.48249,0.81528 -0.98093,1.69257 -1.49542,2.63191 -0.12857,0.24621 -0.28405,0.53139 -0.46626,0.85553 -0.18223,0.32417 -0.36983,0.65385 -0.5628,0.98903 -0.19296,0.33523 -0.38595,0.65905 -0.57894,0.97152 -0.18224,0.31278 -0.34845,0.58061 -0.4986,0.80342 -0.19298,0.28974 -0.42911,0.51001 -0.70834,0.66078 -0.27921,0.13939 -0.57469,0.20444 -0.88635,0.19514 -0.44065,-0.0137 -0.81694,-0.12099 -1.12893,-0.32356 -0.31197,-0.21391 -0.56493,-0.49422 -0.75891,-0.84102 -0.19395,-0.34673 -0.3396,-0.75458 -0.43704,-1.22346 -0.0866,-0.46856 -0.13033,-0.96429 -0.13106,-1.48712 -8e-4,-0.46604 0.0101,-0.88622 0.0301,-1.2607 0.0209,-0.37444 0.0529,-0.74855 0.0951,-1.12236 0.0425,-0.38517 0.0903,-0.7872 0.14332,-1.20615 0.064,-0.4186 0.13305,-0.89957 0.20747,-1.44292 0.064,-0.47544 0.11151,-0.97411 0.14293,-1.49597 0.0315,-0.53323 0.0633,-1.0494 0.0945,-1.54857 0.0316,-0.51049 0.0685,-0.98106 0.11068,-1.41171 0.0423,-0.43064 0.10097,-0.7869 0.17578,-1.06881 0.0535,-0.19161 0.12293,-0.39414 0.20865,-0.6075 0.0857,-0.22475 0.20898,-0.42563 0.36991,-0.6027 0.16096,-0.18839 0.3649,-0.34142 0.61194,-0.45908 0.247,-0.12898 0.55323,-0.18801 0.91865,-0.1771 0.33316,0.0106 0.60196,0.0861 0.80634,0.22865 0.20441,0.13115 0.36051,0.31198 0.4683,0.5425 0.10776,0.21918 0.17804,0.477 0.2107,0.77347 0.0434,0.28545 0.0657,0.58732 0.0659,0.90554 4e-4,0.2728 -0.0364,0.64108 -0.11114,1.10483 -0.0638,0.46408 -0.14899,0.97869 -0.25567,1.54376 -0.096,0.55406 -0.20793,1.13604 -0.336,1.74594 -0.12804,0.59856 -0.25086,1.17453 -0.36828,1.72795 -0.10663,0.5537 -0.20264,1.05662 -0.28796,1.50869 -0.0854,0.44071 -0.14395,0.78559 -0.17583,1.03469 0.0213,-0.0447 0.0802,-0.15673 0.17686,-0.33568 0.10723,-0.17864 0.23046,-0.3966 0.36978,-0.65383 0.1501,-0.25693 0.30554,-0.53074 0.46634,-0.82142 0.16078,-0.29073 0.31083,-0.5647 0.45018,-0.82195 0.1501,-0.2569 0.27873,-0.48038 0.38592,-0.67037 0.10743,-0.19003 0.17153,-0.30746 0.19294,-0.35228 0.19297,-0.33518 0.41811,-0.70921 0.67543,-1.12207 0.25732,-0.4242 0.52538,-0.84806 0.80422,-1.27165 0.27879,-0.43491 0.55225,-0.84727 0.82034,-1.23704 0.27886,-0.38946 0.53096,-0.71721 0.75627,-0.98326 0.48281,-0.56521 0.99267,-0.98756 1.52962,-1.26702 0.5477,-0.27915 1.12786,-0.40955 1.74046,-0.39124 0.65563,0.0194 1.2041,0.27465 1.64546,0.7652 0.44137,0.49053 0.73785,1.12448 0.88943,1.90188 0.0541,0.28576 0.0976,0.64507 0.13054,1.07795 0.0328,0.43288 0.0553,0.88817 0.0666,1.36586 0.0222,0.46665 0.0389,0.93882 0.0505,1.41655 0.0118,0.47769 0.0168,0.90406 0.0175,1.27913 0.0116,0.3754 0.0226,0.68262 0.0336,0.92161 0.0122,0.23905 0.0329,0.359 0.0653,0.35997 0.0966,0.002 0.23623,-0.13502 0.41857,-0.41369 0.1823,-0.27868 0.38596,-0.63063 0.61102,-1.05581 0.2251,-0.42515 0.46084,-0.8841 0.70733,-1.37681 0.24645,-0.49273 0.48224,-0.94599 0.70733,-1.35981 0.37519,-0.65936 0.77195,-1.28963 1.19022,-1.8909 0.41821,-0.61259 0.83121,-1.14579 1.23895,-1.59959 0.41844,-0.46488 0.81558,-0.82806 1.19134,-1.08961 0.37577,-0.27292 0.70874,-0.40502 0.99892,-0.39635 0.20419,0.005 0.41382,0.0351 0.62884,0.0869 0.21503,0.0517 0.41934,0.12622 0.6129,0.22291 0.20434,0.0855 0.3872,0.19342 0.54861,0.32327 0.16137,0.11853 0.28516,0.25288 0.37136,0.4032 0.18315,0.31236 0.31798,0.65166 0.40452,1.01795 0.0866,0.36628 0.14619,0.77155 0.17908,1.21578 0.0437,0.44457 0.0714,0.93411 0.0826,1.46864 0.0223,0.53485 0.0663,1.12717 0.13161,1.77696 0.11989,1.18561 0.29325,2.11708 0.51991,2.7944 0.22667,0.67737 0.5496,1.0223 0.96878,1.03483 0.18272,0.006 0.41904,-0.0557 0.70904,-0.1834 0.30072,-0.13876 0.62288,-0.31098 0.9665,-0.51666 0.35434,-0.21674 0.71403,-0.45602 1.07906,-0.71791 0.37576,-0.26153 0.72467,-0.52389 1.0467,-0.78704 0.35423,-0.28492 0.69236,-0.57599 1.01434,-0.87325 0.32195,-0.30859 0.63853,-0.62307 0.94976,-0.94337 0.32196,-0.31998 0.64387,-0.65131 0.9658,-0.99405 0.33264,-0.35375 0.68138,-0.72407 1.04624,-1.11096 0.22535,-0.23196 0.48312,-0.3436 0.7733,-0.33492 0.34391,0.0106 0.51627,0.27683 0.51705,0.79966 z m 7.2043,-1.18269 c -3.1e-4,-0.10229 -0.0217,-0.22227 -0.0652,-0.35997 -0.0327,-0.13735 -0.0809,-0.26384 -0.14566,-0.37941 -0.054,-0.12662 -0.11835,-0.23085 -0.1939,-0.31264 -0.0753,-0.093 -0.14528,-0.14075 -0.20976,-0.14268 -0.70936,-0.0214 -1.35929,0.16398 -1.94983,0.55547 -0.5798,0.38049 -1.18623,0.90792 -1.81937,1.58227 -0.35411,0.36451 -0.73489,0.85889 -1.14239,1.48318 -0.39675,0.62465 -0.76656,1.28982 -1.10941,1.99563 -0.34292,0.70578 -0.62669,1.41332 -0.85132,2.12263 -0.22469,0.70934 -0.33661,1.33678 -0.33581,1.88236 8.4e-4,0.1364 0.007,0.27296 0.017,0.40967 0.0216,0.12564 0.0542,0.24026 0.0971,0.34384 0.0539,0.10383 0.12391,0.19126 0.20993,0.26203 0.0862,0.0708 0.19901,0.10828 0.33873,0.11236 0.40841,0.0127 0.87036,-0.11039 1.38584,-0.36772 0.51549,-0.26875 1.03085,-0.61705 1.54612,-1.04491 0.52595,-0.43892 1.03034,-0.94096 1.51313,-1.50619 0.49354,-0.57627 0.90644,-1.16631 1.23875,-1.7701 0.40732,-0.73796 0.75547,-1.51178 1.04445,-2.32147 0.28899,-0.8097 0.43285,-1.65781 0.43157,-2.54436 z m 14.65703,2.19394 c 8.4e-4,0.13644 -0.0262,0.30041 -0.0795,0.49205 -0.0428,0.18054 -0.10155,0.36634 -0.17652,0.55729 -0.0749,0.17961 -0.16067,0.35892 -0.25715,0.53787 -0.0858,0.16794 -0.17149,0.31314 -0.2573,0.43557 -0.0537,0.0779 -0.13941,0.18908 -0.25744,0.33329 -0.11793,0.13286 -0.25214,0.28796 -0.40237,0.46534 -0.15018,0.16599 -0.32188,0.34838 -0.51506,0.54718 -0.1824,0.19913 -0.37019,0.39812 -0.56336,0.59693 -0.62246,0.59512 -1.25569,1.18425 -1.89969,1.76739 -0.63324,0.5721 -1.29885,1.08072 -1.99675,1.52585 -0.69797,0.43376 -1.42825,0.78131 -2.19092,1.04267 -0.76264,0.26135 -1.5739,0.37917 -2.43375,0.35349 -0.3654,-0.0106 -0.73634,-0.10729 -1.11275,-0.28898 -0.3764,-0.18172 -0.72604,-0.42516 -1.04889,-0.73032 -0.32286,-0.30516 -0.60822,-0.66599 -0.85598,-1.08257 -0.23709,-0.4276 -0.40434,-0.88155 -0.50174,-1.36184 -0.19297,0.33523 -0.445,0.69707 -0.75612,1.08557 -0.31112,0.37712 -0.65447,0.7533 -1.03006,1.12851 -0.36487,0.3755 -0.74588,0.73352 -1.14305,1.07399 -0.39715,0.3291 -0.76753,0.61353 -1.11108,0.8533 -0.2362,0.16345 -0.52615,0.33095 -0.86982,0.50252 -0.33289,0.1719 -0.68732,0.3318 -1.06326,0.4797 -0.37595,0.13651 -0.75733,0.25013 -1.14409,0.34085 -0.37603,0.0796 -0.72525,0.11473 -1.04771,0.10504 -0.51586,-0.0157 -0.96748,-0.18235 -1.35488,-0.5008 -0.38737,-0.32982 -0.71035,-0.72588 -0.96897,-1.18823 -0.24786,-0.46203 -0.43665,-0.95072 -0.56636,-1.46604 -0.11876,-0.51499 -0.17876,-0.97711 -0.17936,-1.38628 -0.001,-0.75017 0.0999,-1.50864 0.303,-2.27542 0.2138,-0.77783 0.4814,-1.53133 0.80275,-2.2605 0.33213,-0.72884 0.6965,-1.42261 1.09317,-2.08133 0.40744,-0.65841 0.80425,-1.24326 1.19039,-1.7545 0.40761,-0.53336 0.89588,-1.05864 1.4647,-1.57586 0.56882,-0.52854 1.16465,-0.99377 1.78738,-1.39569 0.62274,-0.41327 1.23488,-0.74162 1.83637,-0.98507 0.61222,-0.24312 1.15479,-0.3576 1.6277,-0.34347 0.25794,0.007 0.52125,0.0278 0.79,0.0577 0.27948,0.0205 0.55357,0.0507 0.82231,0.0928 0.26873,0.0422 0.52676,0.10103 0.77404,0.17658 0.24729,0.0757 0.46775,0.16737 0.66136,0.27549 0.12909,0.0947 0.26907,0.26373 0.41987,0.50695 0.16156,0.23212 0.30703,0.48652 0.43639,0.76315 0.14007,0.26559 0.2587,0.53055 0.35581,0.79488 0.097,0.26428 0.14577,0.47032 0.14598,0.61807 -2e-4,0.31824 -0.0474,0.69759 -0.14341,1.13797 -0.0853,0.42935 -0.1868,0.88093 -0.30433,1.35478 -0.10678,0.47417 -0.20819,0.95986 -0.30419,1.45704 -0.096,0.49725 -0.14367,0.97316 -0.14298,1.42784 -2.2e-4,0.31821 0.0439,0.64344 0.13035,0.97561 0.0866,0.3322 0.21051,0.63709 0.37213,0.91471 0.16158,0.26622 0.35535,0.48797 0.58131,0.6652 0.22595,0.17724 0.47864,0.27002 0.75808,0.27837 0.63409,0.0186 1.26269,-0.0873 1.88565,-0.31872 0.62306,-0.23141 1.24591,-0.55377 1.86865,-0.96704 0.62272,-0.42465 1.24528,-0.92319 1.86784,-1.49559 0.62249,-0.58379 1.25027,-1.21286 1.8834,-1.88724 0.0214,6.6e-4 0.10741,-0.082 0.25755,-0.24805 0.15023,-0.16598 0.32728,-0.34823 0.53118,-0.54671 0.21468,-0.19816 0.43472,-0.37912 0.66019,-0.54288 0.2362,-0.16342 0.44027,-0.24257 0.61225,-0.23744 0.31166,0.009 0.51604,0.11207 0.61302,0.30816 0.0968,0.1961 0.14581,0.49309 0.14641,0.89089 z m 15.26244,-2.74902 c 3.9e-4,0.27278 -0.12818,0.52467 -0.3858,0.75564 -0.24684,0.23129 -0.57431,0.44315 -0.98243,0.63552 -0.40813,0.19238 -0.86999,0.3661 -1.38564,0.5212 -0.51566,0.14369 -1.03672,0.2759 -1.56313,0.39655 -0.5157,0.10955 -1.01531,0.20266 -1.49883,0.27914 -0.4728,0.0653 -0.87572,0.12157 -1.20887,0.16845 -1.20343,0.14588 -2.20814,0.25225 -3.0141,0.3191 -0.7952,0.0671 -1.36466,0.17516 -1.70832,0.32402 -0.19224,0.84668 -0.38976,1.72729 -0.59265,2.64183 -0.19212,0.90352 -0.36822,1.75067 -0.52827,2.54148 -0.16006,0.79083 -0.29342,1.4801 -0.4,2.06793 -0.0959,0.58815 -0.14367,0.98454 -0.14338,1.18911 0.001,0.14779 0.007,0.27865 0.0167,0.39259 0.0111,0.10255 0.0269,0.19973 0.0488,0.2913 0.0325,0.0921 0.0594,0.18361 0.081,0.27521 0.0326,0.0804 0.0649,0.17811 0.0971,0.29271 0.0431,0.11497 0.0864,0.26968 0.12952,0.46419 0.0432,0.19451 0.0811,0.38883 0.11366,0.58304 0.0432,0.1945 0.0757,0.37164 0.0975,0.53141 0.0217,0.17114 0.0327,0.2908 0.0329,0.359 -5e-4,0.21594 -0.0478,0.4475 -0.14405,0.69467 -0.0857,0.25884 -0.20885,0.49954 -0.36972,0.72204 -0.1609,0.22252 -0.35413,0.40426 -0.57958,0.54529 -0.22547,0.15238 -0.47794,0.22439 -0.75734,0.21605 -0.29021,-0.008 -0.55902,-0.10194 -0.80646,-0.27983 -0.23669,-0.1662 -0.45196,-0.38857 -0.64582,-0.66714 -0.19383,-0.26721 -0.36622,-0.57353 -0.51719,-0.91903 -0.14021,-0.33377 -0.25891,-0.66694 -0.35611,-0.99944 -0.0972,-0.3325 -0.17291,-0.64165 -0.22708,-0.92739 -0.0435,-0.29682 -0.0655,-0.54183 -0.0656,-0.73505 -4.2e-4,-0.19324 0.0156,-0.49392 0.0474,-0.90213 0.0424,-0.40789 0.1169,-0.82052 0.22388,-1.23787 0.33126,-1.31987 0.5876,-2.40329 0.76908,-3.25029 0.18144,-0.85838 0.31478,-1.54201 0.40004,-2.05093 0.0852,-0.52025 0.1384,-0.89941 0.15954,-1.13746 0.032,-0.23774 0.0531,-0.40188 0.0639,-0.49248 -0.13975,-0.005 -0.33856,10e-4 -0.59644,0.0162 -0.25797,0.005 -0.52663,0.0183 -0.806,0.0442 -0.26865,0.0147 -0.52121,0.0299 -0.75763,0.0455 -0.23643,0.005 -0.39765,0.005 -0.48362,0.003 -0.56961,-0.017 -1.04798,-0.0711 -1.43501,-0.1622 -0.38705,-0.0911 -0.69891,-0.25389 -0.93569,-0.48826 -0.24754,-0.24608 -0.41998,-0.58085 -0.51735,-1.00428 -0.10817,-0.43513 -0.16266,-0.99936 -0.16367,-1.69268 0.52664,0.003 0.97263,-0.0108 1.33795,-0.0453 0.3761,-0.0457 0.72,-0.0638 1.03166,-0.0546 0.086,0.002 0.30092,-0.003 0.64482,-0.0148 0.35461,-0.0237 0.7415,-0.0459 1.16059,-0.0676 0.41912,-0.0216 0.82211,-0.0437 1.209,-0.0661 0.39758,-0.0335 0.68235,-0.059 0.85427,-0.0768 0.0213,-0.12436 0.0641,-0.32199 0.12805,-0.59283 0.0643,-0.27088 0.13352,-0.56999 0.2083,-0.89736 l 0.25648,-0.98116 c 0.0855,-0.32703 0.1603,-0.60895 0.22447,-0.84572 0.0534,-0.16887 0.12283,-0.44526 0.20836,-0.82911 0.0854,-0.39526 0.17617,-0.80171 0.2723,-1.21934 0.0959,-0.41769 0.18148,-0.80155 0.25622,-1.15166 0.0853,-0.36113 0.13888,-0.59254 0.16022,-0.6942 0.11742,-0.47383 0.25124,-0.91309 0.40108,-1.31779 0.14986,-0.41605 0.31593,-0.7691 0.4982,-1.05916 0.19301,-0.28972 0.40229,-0.51646 0.62774,-0.68019 0.22544,-0.16375 0.46176,-0.24196 0.70897,-0.23457 0.58036,0.0174 0.99979,0.18332 1.25813,0.49788 0.25841,0.30327 0.38805,0.76174 0.38893,1.3755 5.8e-4,0.28418 -0.0314,0.60144 -0.0953,0.95187 -0.0641,0.35042 -0.15476,0.71709 -0.27247,1.1 -0.2353,0.78856 -0.417,1.44801 -0.54524,1.97837 -0.11731,0.53069 -0.21346,0.99948 -0.2881,1.40641 -0.0747,0.39559 -0.13326,0.76319 -0.17571,1.10289 -0.0425,0.3397 -0.10111,0.71302 -0.17572,1.11995 -0.0117,0.045 -0.0214,0.13576 -0.0318,0.27182 l 3.9e-4,0.2728 c 0.92429,0.0272 1.82702,0.003 2.70819,-0.0725 0.89191,-0.0757 1.79459,-0.14528 2.70797,-0.20891 0.51584,-0.0413 0.96713,-0.0904 1.35396,-0.14707 0.39755,-0.0563 0.76288,-0.10781 1.096,-0.15479 0.33309,-0.0469 0.65545,-0.0827 0.9671,-0.10745 0.32236,-0.0358 0.66625,-0.0485 1.03167,-0.0374 0.12891,0.004 0.26332,0.0248 0.40314,0.0632 0.13972,0.0269 0.26339,0.0817 0.37099,0.1645 0.11832,0.0717 0.21521,0.18257 0.29065,0.3326 0.0754,0.13866 0.11317,0.32163 0.11347,0.54894 z m 4.0154,-10.17724 c 7e-4,0.37509 -0.0528,0.73148 -0.15964,1.06928 -0.10696,0.3264 -0.26239,0.6343 -0.46617,0.92372 -0.40754,0.59019 -1.03583,0.87259 -1.8849,0.84723 -0.30092,-0.009 -0.6073,-0.0466 -0.91906,-0.11277 -0.31178,-0.0661 -0.59132,-0.15406 -0.83869,-0.26373 -0.24732,-0.10967 -0.45173,-0.24651 -0.61317,-0.41044 -0.16144,-0.16395 -0.24231,-0.34821 -0.24262,-0.55277 -3.3e-4,-0.35237 0.0849,-0.71922 0.25635,-1.10052 0.17135,-0.39269 0.39119,-0.74979 0.65939,-1.0714 0.27893,-0.33263 0.57946,-0.6021 0.90157,-0.80843 0.33285,-0.21734 0.64977,-0.32157 0.95069,-0.31257 0.37618,0.0114 0.70939,0.0498 0.99966,0.11519 0.29025,0.054 0.5322,0.1466 0.72584,0.27741 0.20438,0.1311 0.36049,0.31195 0.46827,0.54247 0.10778,0.23056 0.16199,0.51631 0.16248,0.85728 z m 10.04805,14.33104 c 1.9e-4,0.26143 -0.0959,0.59384 -0.28874,0.99724 -0.18212,0.39233 -0.43941,0.8336 -0.77187,1.32374 -0.32173,0.47913 -0.70787,0.99608 -1.15846,1.5509 -0.45057,0.54344 -0.93875,1.10281 -1.46453,1.67813 -0.56866,0.63083 -1.18574,1.24889 -1.8512,1.85408 -0.66544,0.60525 -1.37391,1.18645 -2.12542,1.74364 -0.74075,0.54615 -1.47096,0.96758 -2.19059,1.26432 -0.71964,0.28536 -1.40189,0.41842 -2.04678,0.39915 -0.75232,-0.0231 -1.40811,-0.1728 -1.96736,-0.45092 -0.54854,-0.28919 -1.02198,-0.66701 -1.4203,-1.13352 -0.38761,-0.47757 -0.70542,-1.01556 -0.95347,-1.61399 -0.24811,-0.60981 -0.44784,-1.24657 -0.59927,-1.91028 -0.14063,-0.67478 -0.23841,-1.35395 -0.29316,-2.03753 -0.0548,-0.68355 -0.0823,-1.33224 -0.0833,-1.946 1.6e-4,-0.23865 0.0152,-0.59623 0.0469,-1.07264 0.0316,-0.4764 0.0739,-0.97524 0.12687,-1.49647 0.064,-0.53226 0.12747,-1.04183 0.19122,-1.52863 0.0743,-0.4979 0.14914,-0.88777 0.22397,-1.16964 0.16041,-0.55213 0.53044,-1.06958 1.11006,-1.55234 0.55821,-0.4607 1.18123,-0.68074 1.86909,-0.66019 0.69859,0.021 1.04854,0.4746 1.04984,1.36114 0.001,0.42056 -0.0363,0.86839 -0.11082,1.34354 -0.064,0.46405 -0.13835,0.92214 -0.2237,1.37421 -0.1385,0.82555 -0.23414,1.57282 -0.2869,2.2418 -0.0527,0.65763 -0.0787,1.2422 -0.078,1.75366 1e-5,0.57963 0.0339,1.14327 0.0991,1.69075 0.0653,0.5475 0.15734,1.03897 0.27619,1.47442 0.12958,0.4244 0.28593,0.77005 0.46902,1.03693 0.19384,0.26717 0.4197,0.40463 0.67769,0.41234 0.32242,0.0105 0.65557,-0.009 0.9994,-0.0554 0.34386,-0.058 0.75737,-0.21599 1.24063,-0.47439 0.92352,-0.50659 1.9059,-1.19895 2.94709,-2.07706 0.36491,-0.30734 0.77818,-0.67006 1.23971,-1.08814 0.47224,-0.42916 0.93913,-0.86415 1.4006,-1.30496 0.46146,-0.45223 0.89609,-0.89385 1.30388,-1.32494 0.40778,-0.43106 0.72963,-0.80219 0.96563,-1.11337 0.0323,-0.0559 0.075,-0.12276 0.12865,-0.20074 0.0647,-0.0889 0.13409,-0.17784 0.20917,-0.26654 0.0751,-0.0888 0.1556,-0.16014 0.24151,-0.21438 0.0967,-0.0653 0.18796,-0.0967 0.27393,-0.0941 0.17196,0.006 0.29562,0.0373 0.3709,0.0964 0.0861,0.0481 0.17765,0.20422 0.27477,0.46851 0.11846,0.28769 0.17807,0.52815 0.17834,0.72137 z m 18.13551,-0.29346 c -3.4e-4,0.22731 -0.0316,0.42527 -0.0959,0.59384 -0.0535,0.1575 -0.14465,0.31958 -0.27336,0.48621 -0.11789,0.15561 -0.27357,0.32712 -0.46676,0.51457 -0.19319,0.18744 -0.42927,0.42474 -0.70826,0.71191 l -1.41653,1.45793 c -0.30049,0.30926 -0.56337,0.5685 -0.78875,0.7777 -0.22539,0.20923 -0.44546,0.40723 -0.66014,0.59402 -0.20394,0.17576 -0.4186,0.36257 -0.64401,0.5604 -0.22541,0.18648 -0.49909,0.41698 -0.82112,0.6915 -0.69771,0.60426 -1.3847,1.16906 -2.06101,1.69439 -0.67634,0.52534 -1.3366,0.99433 -1.98081,1.40698 -0.96638,0.61896 -2.00279,1.08808 -3.1093,1.40736 -1.10648,0.31927 -2.27775,0.46043 -3.51371,0.42349 -0.80611,-0.0244 -1.52103,-0.19888 -2.14485,-0.52438 -0.62384,-0.33689 -1.15108,-0.77318 -1.58172,-1.30885 -0.43071,-0.54706 -0.75944,-1.1763 -0.98616,-1.88772 -0.21599,-0.72251 -0.32457,-1.47588 -0.32572,-2.26013 -0.002,-1.48894 0.29124,-2.97477 0.88017,-4.45743 0.58893,-1.494 1.39821,-2.95304 2.42788,-4.3771 0.25741,-0.35599 0.55779,-0.72777 0.90115,-1.11529 0.3541,-0.38723 0.72438,-0.73416 1.11081,-1.04085 0.38643,-0.31806 0.78374,-0.57329 1.1918,-0.76568 0.40813,-0.20372 0.80564,-0.29982 1.19257,-0.28826 0.25793,0.007 0.50523,0.0947 0.74192,0.26083 0.24742,0.15513 0.48414,0.36682 0.71026,0.63496 0.23684,0.26849 0.45759,0.58198 0.66233,0.94042 0.2047,0.34708 0.39332,0.72208 0.56584,1.12504 0.34506,0.8059 0.51789,1.39072 0.51843,1.75442 4.3e-4,0.19325 -0.0207,0.43128 -0.0635,0.71415 -0.0319,0.27182 -0.10124,0.53115 -0.20846,0.77801 -0.0962,0.24715 -0.23043,0.45908 -0.4021,0.63582 -0.17172,0.16533 -0.3919,0.24401 -0.6606,0.23598 -0.39768,-0.0115 -0.72566,-0.1524 -0.98399,-0.42152 -0.25835,-0.2805 -0.47375,-0.59947 -0.64624,-0.95697 -0.17247,-0.35751 -0.3127,-0.70833 -0.42068,-1.05254 -0.0971,-0.34386 -0.18895,-0.59097 -0.27513,-0.74129 -0.25781,0.0945 -0.53155,0.28529 -0.82134,0.57214 -0.27899,0.2872 -0.55792,0.64255 -0.83672,1.06611 -0.2788,0.42354 -0.54141,0.90444 -0.78784,1.44262 -0.2464,0.52681 -0.46588,1.09422 -0.65846,1.70224 -0.18182,0.59691 -0.33139,1.21186 -0.44871,1.84484 -0.10659,0.63327 -0.15935,1.26249 -0.15843,1.88763 0,0.57963 0.20039,1.0914 0.59871,1.53521 0.45208,0.49083 0.87161,0.74205 1.25853,0.75361 1.22521,0.0368 2.40174,-0.16692 3.52955,-0.61055 1.13857,-0.44333 2.2339,-1.04708 3.28601,-1.81125 0.70859,-0.513 1.4493,-1.08756 2.22218,-1.72367 0.77285,-0.64747 1.62077,-1.42341 2.54371,-2.32781 0.3327,-0.331 0.66538,-0.645 0.99812,-0.94193 0.34347,-0.30796 0.67628,-0.57647 0.99832,-0.80552 0.33282,-0.22876 0.64423,-0.41265 0.93422,-0.55174 0.30071,-0.13875 0.58003,-0.20431 0.83796,-0.1966 0.55891,0.0164 0.83882,0.33762 0.83971,0.96275 z m 5.44744,-0.9624 c -0.002,-0.68201 -0.0609,-1.17249 -0.17945,-1.47152 -0.10793,-0.31011 -0.23712,-0.46739 -0.38757,-0.47191 -0.19349,-0.006 -0.40298,0.0392 -0.62851,0.13467 -0.21483,0.0844 -0.42425,0.20327 -0.62822,0.35628 -0.204,0.14166 -0.39719,0.3007 -0.57966,0.47707 -0.1717,0.17674 -0.3165,0.34858 -0.43452,0.51552 -0.21446,0.32319 -0.45574,0.69104 -0.72382,1.10356 -0.26809,0.41252 -0.54146,0.85331 -0.82024,1.32233 -0.27872,0.46904 -0.55209,0.94958 -0.82006,1.44165 -0.25723,0.49241 -0.48756,0.97992 -0.69107,1.46257 -0.20348,0.48263 -0.36939,0.94935 -0.49769,1.40012 -0.12819,0.4508 -0.19221,0.85806 -0.19169,1.22179 8.7e-4,0.38644 0.0548,0.7006 0.1626,0.94249 0.10778,0.23055 0.30142,0.34998 0.58086,0.35833 0.15047,0.005 0.37602,-0.10236 0.67659,-0.32075 0.31135,-0.218 0.64415,-0.49218 0.99832,-0.82257 0.36489,-0.34144 0.7244,-0.71144 1.07848,-1.11003 0.35409,-0.39858 0.64909,-0.78189 0.88497,-1.14987 0.25737,-0.40149 0.51467,-0.83137 0.77191,-1.28969 0.25727,-0.45829 0.49304,-0.92292 0.70728,-1.39387 0.21429,-0.47098 0.38554,-0.93751 0.51386,-1.39965 0.13903,-0.46184 0.20825,-0.89734 0.20763,-1.30652 z m 9.6836,7.60308 c -7e-4,0.20456 -0.0368,0.44216 -0.11174,0.7127 -0.0748,0.25918 -0.20338,0.52244 -0.38573,0.78975 -0.20367,0.35761 -0.47181,0.72467 -0.80441,1.10115 -0.33268,0.36515 -0.7137,0.7004 -1.14315,1.00582 -0.41868,0.30572 -0.88045,0.55333 -1.3853,0.74283 -0.49412,0.17844 -1.01527,0.25947 -1.56339,0.24309 -0.62335,-0.0182 -1.17704,-0.17156 -1.66111,-0.4588 -0.48406,-0.28725 -0.90372,-0.66916 -1.25907,-1.14575 -0.35539,-0.488 -0.64102,-1.04206 -0.85684,-1.66227 -0.21587,-0.63156 -0.36191,-1.28944 -0.43813,-1.97365 -0.45039,0.69121 -0.9653,1.35208 -1.54472,1.9826 -0.5687,0.61948 -1.16975,1.16981 -1.80316,1.65097 -0.62264,0.47011 -1.25617,0.84329 -1.90061,1.11953 -0.64442,0.26489 -1.25685,0.38868 -1.83723,0.37132 -0.41916,-0.0127 -0.81697,-0.12099 -1.19342,-0.3255 -0.37648,-0.2158 -0.71004,-0.49855 -1.00072,-0.8482 -0.27992,-0.34934 -0.50617,-0.74824 -0.67884,-1.19662 -0.17259,-0.44843 -0.25926,-0.91698 -0.25996,-1.40577 -0.002,-0.43192 0.0307,-0.88556 0.0948,-1.36101 0.0746,-0.48649 0.19196,-1.0058 0.35238,-1.55794 0.16041,-0.5521 0.36908,-1.15394 0.62609,-1.80545 0.26771,-0.65122 0.59449,-1.36316 0.98025,-2.13584 0.42863,-0.86234 0.94871,-1.67651 1.56016,-2.44247 0.61147,-0.77732 1.23381,-1.45201 1.8671,-2.02408 0.63323,-0.58348 1.24513,-1.04254 1.83576,-1.37725 0.59062,-0.33469 1.074,-0.49638 1.45018,-0.48515 0.11819,0.004 0.24724,0.0301 0.38701,0.0798 0.1505,0.0387 0.29029,0.0883 0.41934,0.1489 0.129,0.0494 0.24199,0.0983 0.33876,0.1465 0.0969,0.0482 0.16133,0.0732 0.19356,0.074 0.0118,3.5e-4 0.048,-0.0214 0.11258,-0.065 0.0646,-0.0436 0.14492,-0.0865 0.24161,-0.12917 0.0967,-0.0539 0.19869,-0.0963 0.30613,-0.12722 0.1181,-0.042 0.23634,-0.0613 0.35457,-0.0577 0.1827,0.005 0.37625,0.068 0.5806,0.18783 0.21513,0.10878 0.41953,0.25691 0.61327,0.44456 0.19369,0.17627 0.36593,0.37462 0.51672,0.59506 0.15079,0.22047 0.24782,0.43932 0.29112,0.65656 0.0327,0.13736 0.0595,0.23477 0.081,0.29224 0.0215,0.046 0.043,0.0867 0.0648,0.12125 0.13993,0.14059 0.25298,0.29739 0.33923,0.47044 0.0863,0.1617 0.12938,0.39031 0.12994,0.68585 8.4e-4,0.13641 -0.0369,0.38531 -0.11155,0.74679 -0.0641,0.35041 -0.14397,0.75149 -0.24004,1.20325 -0.0854,0.45207 -0.16525,0.92704 -0.23975,1.42492 -0.064,0.4868 -0.0954,0.93479 -0.0949,1.34397 0.001,1.05702 0.0621,1.95107 0.18126,2.68201 0.12987,0.71992 0.29204,1.3044 0.48617,1.75346 0.1941,0.44905 0.41489,0.77389 0.66237,0.9745 0.24744,0.18922 0.4948,0.28756 0.74196,0.29494 0.65562,0.0194 1.21431,-0.10572 1.67603,-0.37613 0.47252,-0.27 0.88572,-0.64411 1.23968,-1.12223 0.0966,-0.12216 0.17703,-0.2277 0.24133,-0.31671 0.0751,-0.1 0.14486,-0.1832 0.20924,-0.24946 0.075,-0.0661 0.15564,-0.11475 0.24158,-0.14623 0.0965,-0.0312 0.2095,-0.045 0.33847,-0.0411 0.16125,0.005 0.32792,0.0837 0.50014,0.23656 0.17213,0.14153 0.25836,0.32597 0.25868,0.5533 z"
         id="path5"
         sodipodi:nodetypes="cccsccsscccscscscscscccsccccssccccccssscccsscccscccccccccccccscccscssscssscccccscccccscscccsccccccccscccccsccscscsscccccscccscsccscccccccscsscccsscccssccsccscccccccccccccscccsccsscscscccccccccscccccsssscccsccscsccccscscscsscscsscscccccscccscccccscccccsccccccscccccsscsccssccscscscccscccccscccccssccccsccccccsccssccsccccccsssscscccsscsssccccssscssccccscsccccssscssccssccccccccsccccscccscccccccscccscccccccssscsscsccsccccscccccccscccccsscccsscccscscsscccccsccccscccsccccccccscsccccccsscscccsssssccccsscccscccssccccccccsccccccscccsssccssccccsccsccccccccccsssscccccccccscccscccccccscsscccssccssscssscccsccssssccscccccccscsccccsccscscscccscscccccccccssccccsccccccsccsccccsscsscccsccccccscscccccsccssssscccsccssscccccsccsccccsssccccsscccssccscccccsccscsccccsccsssscccsssscccscscccscccsscccscscccscccscscccccccsssscsccccsscssscsccsssscsscccccssccccccsccsscsccccssccsssccsccsccccscccscscscccccscss"
         inkscape:transform-center-x="-2.8610659"
         inkscape:transform-center-y="0.26253031" />
      <path
         style="fill:#63d58d;fill-opacity:1;stroke-width:0.578035"
         d=""
         id="path11" />
      <text
         xml:space="preserve"
         style="font-style:normal;font-variant:normal;font-weight:normal;font-stretch:normal;font-size:93.0958px;font-family:Candara;-inkscape-font-specification:Candara;opacity:1;fill:#dcdcdc;fill-opacity:1;stroke:none;stroke-width:8.84122;stroke-dasharray:none;stroke-opacity:1;paint-order:stroke fill markers"
         x="3.8563917"
         y="100.382"
         id="text19"
         transform="scale(0.98587001,1.0143325)"
         inkscape:transform-center-x="-18.869351"
         inkscape:transform-center-y="-88.642764"><tspan
           id="tspan19"
           x="3.8563917"
           y="100.382"
           style="font-style:normal;font-variant:normal;font-weight:normal;font-stretch:normal;font-size:93.0958px;font-family:'Ink Free';-inkscape-font-specification:'Ink Free';writing-mode:lr-tb;fill:#dcdcdc;fill-opacity:1;stroke:none;stroke-width:8.84122;stroke-dasharray:none"
           sodipodi:role="line" /></text>
    </g>
    <g
       id="text2"
       transform="matrix(0.77304369,0,0,0.88664841,30.801618,51.930303)">
      <path
         style="color:#000000;-inkscape-font-specification:'Microsoft Himalaya';fill:#4a4a2e;fill-opacity:1;stroke-width:1.60919;-inkscape-stroke:none;paint-order:stroke fill markers"
         d="m 22.336461,139.89271 h 17.578937 v 1.41466 h -1.155711 c -1.054323,0 -1.865345,0.24521 -2.433065,0.73562 -0.527162,0.45271 -0.790751,1.09401 -0.790751,1.92395 -0.04054,0.82996 0.243302,1.88623 0.85158,3.16888 l 8.698224,19.18294 8.698235,-19.91859 c 0.608276,-1.3958 0.912406,-2.47095 0.912406,-3.22543 0,-0.75449 -0.324402,-1.24491 -0.973225,-1.47127 -0.648822,-0.26405 -1.743702,-0.3961 -3.284657,-0.3961 v -1.41466 h 12.165369 v 1.41466 c -0.851587,0.0754 -1.561227,0.22636 -2.128959,0.4527 -0.527165,0.18863 -0.993496,0.47155 -1.399009,0.84878 -0.405494,0.37726 -0.750186,0.84881 -1.034043,1.41468 -0.283873,0.52816 -0.588003,1.1506 -0.912423,1.86738 L 43.869135,175.71218 H 42.22682 L 28.905751,146.40017 c -0.405519,-0.90538 -0.79075,-1.65986 -1.15571,-2.26345 -0.364961,-0.6036 -0.790753,-1.09403 -1.277355,-1.47127 -0.48662,-0.37725 -1.05434,-0.66018 -1.703161,-0.8488 -0.648821,-0.22635 -1.459842,-0.3961 -2.433064,-0.50928 z m 49.938782,13.07155 c 0,2.603 0.364972,4.92306 1.094891,6.96018 0.770496,2.03714 1.763981,3.77247 2.980517,5.20599 1.2571,1.43354 2.696661,2.52755 4.318709,3.28203 1.662612,0.75449 3.406292,1.13176 5.23108,1.13176 2.43309,0 4.54176,-0.62247 6.32601,-1.86738 1.8248,-1.24491 3.34548,-3.39522 4.56202,-6.45089 l 1.27737,0.73563 c -0.28385,1.6976 -0.85159,3.37635 -1.70316,5.03622 -0.85158,1.62216 -1.94647,3.09341 -3.28465,4.41379 -1.29765,1.28262 -2.81832,2.32005 -4.56201,3.11227 -1.74372,0.79221 -3.649608,1.18832 -5.71772,1.18832 -2.230321,0 -4.338998,-0.41498 -6.325992,-1.2449 -1.946467,-0.86768 -3.669871,-2.07487 -5.170283,-3.62158 -1.459845,-1.58442 -2.635818,-3.47065 -3.527951,-5.65866 -0.85157,-2.22576 -1.27737,-4.71558 -1.27737,-7.46948 0,-2.98024 0.446057,-5.6398 1.33819,-7.97874 0.892132,-2.33894 2.108668,-4.31948 3.649626,-5.94162 1.540955,-1.62216 3.345476,-2.84821 5.413576,-3.67815 2.108664,-0.82994 4.379538,-1.2449 6.812597,-1.2449 2.068127,0 3.974017,0.33952 5.717727,1.01856 1.7437,0.64131 3.24409,1.58442 4.50119,2.82933 1.29764,1.20718 2.31139,2.67846 3.04133,4.41378 0.72993,1.73533 1.0949,3.67815 1.0949,5.82844 z m 0,-2.15029 H 89.55007 c -0.20275,-3.20659 -1.03405,-5.54552 -2.4939,-7.01677 -1.41929,-1.509 -3.284649,-2.26347 -5.596063,-2.26347 -1.09489,0 -2.16948,0.20748 -3.223818,0.62245 -1.054339,0.41496 -2.007283,1.01856 -2.85886,1.81076 -0.811023,0.79222 -1.500402,1.77308 -2.068099,2.94252 -0.567734,1.13175 -0.912405,2.43325 -1.034087,3.90451 z m 222.107197,-27.69369 0.54323,56.19747 c 0,0 -5.62301,0.17539 -5.88106,-0.21247 -0.25805,-0.38786 -1.04265,-45.52897 -0.83816,-52.06211 -6.85011,-0.16299 -147.53945,-1.36406 -150.54239,-0.61808 l -7.10157,1.76415 -0.68424,37.56371 c -0.0316,1.7351 0.12176,3.11228 0.36496,4.13084 0.28385,0.98084 0.66907,1.71647 1.15569,2.2069 0.48664,0.49041 1.09489,0.81106 1.82483,0.96196 0.72992,0.11319 1.58149,0.16976 2.5547,0.16976 h 1.88563 v 1.41467 h -23.4183 v -1.41467 h 1.94646 c 0.97321,0 1.82477,-0.0754 2.5547,-0.22634 0.72995,-0.15087 1.3382,-0.47156 1.82482,-0.96198 0.4866,-0.52815 0.85158,-1.28264 1.0949,-2.26348 0.28384,-0.98083 0.4883,-2.32095 0.42575,-4.01766 l -1.36851,-37.12268 -5.2616,-2.20518 c -1.49435,-0.6263 -88.964068,-0.4287 -90.261709,-0.16463 -1.739281,-0.33438 -11.858175,-0.37672 -12.790855,0.30232 -0.932664,0.64131 1.039366,53.09278 0.425339,53.46747 -1.31442,0.37305 -4.4050667,0.0666 -6.1938485,0.14327 -0.079293,-1.1124 0.045649,-28.91074 -0.3019992,-43.58287 l 0.120532,-13.54962 z M 161.9948,138.87415 v 7.80897 c 3.16297,-5.20599 6.3868,-7.80897 9.67144,-7.80897 0.72992,0 1.39901,0.11307 2.00728,0.33952 0.64884,0.22634 1.19626,0.54699 1.64233,0.96197 0.48661,0.37727 0.85158,0.82994 1.09487,1.35809 0.28386,0.49042 0.42579,1.01855 0.42579,1.58441 0,0.98084 -0.36494,1.81079 -1.09488,2.48983 -0.68935,0.67905 -1.52066,1.01857 -2.4939,1.01857 -0.44604,0 -0.97322,-0.13207 -1.58149,-0.3961 -0.56769,-0.26408 -1.13542,-0.56589 -1.70314,-0.90539 -0.52717,-0.33952 -1.03406,-0.64134 -1.52068,-0.9054 -0.44605,-0.26408 -0.79075,-0.39612 -1.03405,-0.39612 -0.72993,0 -1.58149,0.54701 -2.55473,1.64102 -0.97322,1.09402 -1.92616,2.48983 -2.85884,4.18744 v 16.69313 c 0,1.01855 0.0608,1.94279 0.18247,2.77275 0.16222,0.82992 0.46634,1.5467 0.9124,2.15029 0.44607,0.56587 1.09488,1.01856 1.94646,1.35809 0.89213,0.30179 2.06811,0.45268 3.52796,0.45268 v 1.35809 h -19.16045 v -1.35809 c 1.21656,0 2.18976,-0.0754 2.91969,-0.22633 0.77048,-0.15086 1.37874,-0.45269 1.82479,-0.9054 0.44608,-0.45271 0.75021,-1.09401 0.91241,-1.92395 0.16222,-0.86766 0.24331,-1.99938 0.24331,-3.3952 v -13.46768 c 0,-2.03713 -0.0405,-3.64043 -0.12175,-4.80989 -0.0406,-1.16945 -0.10144,-1.96168 -0.18247,-2.37665 -0.4055,-1.50897 -1.31795,-2.26346 -2.73722,-2.26346 -0.44606,0 -0.89213,0.0567 -1.33818,0.16976 -0.44608,0.0754 -0.95297,0.20748 -1.52068,0.3961 l -0.36495,-1.35809 11.25296,-4.24399 z m 29.80511,0 v 27.8973 c 0,1.65989 0.10144,2.94253 0.30413,3.84792 0.20278,0.86766 0.52717,1.50897 0.97324,1.92394 0.48661,0.37726 1.0746,0.6036 1.76398,0.67904 0.72992,0.0377 1.60178,0.0567 2.61555,0.0567 v 1.35807 h -18.12637 v -1.35807 c 1.25709,0 2.25058,-0.0754 2.9805,-0.22635 0.77049,-0.18861 1.35847,-0.52814 1.76398,-1.01855 0.40549,-0.49041 0.64883,-1.15061 0.72991,-1.98054 0.12163,-0.86768 0.18248,-1.96169 0.18248,-3.28204 v -13.3545 c 0,-2.18804 -0.0406,-3.92337 -0.12163,-5.206 -0.081,-1.28265 -0.22301,-2.22575 -0.4258,-2.82935 -0.20275,-0.6413 -0.50687,-1.03742 -0.9124,-1.18831 -0.36495,-0.18863 -0.85155,-0.28294 -1.45985,-0.28294 -0.40549,0 -0.83128,0.0567 -1.27735,0.16976 -0.40552,0.0754 -0.89213,0.20748 -1.45983,0.39611 l -0.60829,-1.35808 11.25298,-4.24401 z m -5.1442,-7.98224 c 1.17599,0 1.49249,0.14414 1.99078,0.89863 -0.0811,0.60051 -0.80445,1.33979 -1.28389,1.54278 -1.02302,0.43314 -1.61907,0.44687 -1.87062,0.5124 -0.45693,-0.0191 -1.21048,-0.12243 -1.50935,-0.27031 -0.2816,-0.13941 -0.71229,-0.50332 -1.0546,-0.71206 -0.1279,-0.63105 -0.1034,-0.32246 -0.15417,-0.48246 -0.0289,-0.0914 0.38141,-0.52595 0.5155,-0.76443 0.0754,-0.13395 4.54234,-0.72455 3.36637,-0.72455 z m 26.31195,15.33853 c 1e-4,6.19374 8.49545,-7.35629 12.46947,-7.35629 1.37874,0 2.6561,0.22633 3.8321,0.67904 1.176,0.41497 2.18976,1.13172 3.04134,2.15028 0.89213,0.98086 1.5815,2.32006 2.06811,4.01768 0.48663,1.65988 0.72992,3.73471 0.72992,6.22455 v 14.82575 c 0,1.509 0.081,2.69732 0.24332,3.56499 0.20275,0.86766 0.50686,1.52782 0.91239,1.98053 0.44607,0.41497 1.03405,0.67904 1.76398,0.79222 0.72992,0.11318 1.6626,0.16974 2.79803,0.16974 v 1.35809 h -18.43053 v -1.35809 h 0.72993 c 1.21653,0 2.16949,-0.0943 2.85886,-0.28292 0.72992,-0.22633 1.25707,-0.58473 1.58149,-1.07515 0.36496,-0.49041 0.58799,-1.1506 0.66911,-1.98054 0.12175,-0.86768 0.18247,-1.92395 0.18247,-3.16887 v -14.20328 c 0,-3.20658 -0.44607,-5.50778 -1.33819,-6.90362 -0.85157,-1.3958 -2.33171,-2.0937 -4.44036,-2.0937 -3.28466,0 -9.67144,0.63624 -9.67144,4.92305 v 18.27755 c 0,1.47126 0.0406,2.64072 0.12163,3.50839 0.12176,0.82994 0.38526,1.47126 0.79076,1.92394 0.40551,0.45271 1.01379,0.75449 1.82479,0.90541 0.81103,0.11318 1.9262,0.16974 3.34547,0.16974 v 1.35809 h -18.49133 v -1.35809 h 0.79074 c 0.97324,0 1.76398,-0.0943 2.37226,-0.28292 0.64882,-0.22633 1.15573,-0.58473 1.52066,-1.07515 0.36496,-0.49041 0.60828,-1.1506 0.72995,-1.98054 0.16221,-0.86768 0.24328,-1.92395 0.24328,-3.16887 v -12.84521 c 0,-2.48982 -0.0406,-4.41377 -0.12176,-5.77186 -0.081,-1.35808 -0.24328,-2.33891 -0.4866,-2.94251 -0.20278,-0.64133 -0.50692,-1.01857 -0.91241,-1.13174 -0.36498,-0.11306 -0.83131,-0.16976 -1.39901,-0.16976 -0.40552,0 -0.83131,0.0567 -1.27737,0.16976 -0.40553,0.0754 -0.89215,0.20748 -1.45987,0.3961 l -0.60823,-1.35809 11.25292,-4.24399 h 1.76401 z m 52.00689,23.42694 c -1.94648,1.35809 -3.52795,2.4521 -4.74449,3.28203 -1.17599,0.79223 -2.00727,1.28264 -2.49389,1.47128 -1.50041,0.6413 -3.06162,0.96197 -4.68368,0.96197 -1.29764,0 -2.4939,-0.22635 -3.58878,-0.67904 -1.05435,-0.41497 -1.98702,-0.99972 -2.79803,-1.75421 -0.77048,-0.7922 -1.37874,-1.73531 -1.82479,-2.82933 -0.44608,-1.09402 -0.66912,-2.32006 -0.66912,-3.67815 0,-1.58442 0.32442,-2.9991 0.97325,-4.24402 0.68935,-1.2449 1.7234,-2.37664 3.10213,-3.39521 1.41931,-1.05628 3.24412,-2.01824 5.47443,-2.88592 3.4874,-1.509 11.25297,-0.54618 11.25297,-4.30061 v -1.35808 c 0,-1.73532 -0.16223,-3.18773 -0.48663,-4.35718 -0.28386,-1.16946 -0.72991,-2.09371 -1.3382,-2.77277 -0.60827,-0.71676 -1.33819,-1.20718 -2.18974,-1.47125 -0.85158,-0.30179 -1.8248,-0.45268 -2.91968,-0.45268 -1.74371,0 -3.12246,0.43381 -4.13623,1.30149 -1.01379,0.86766 -1.52069,1.84849 -1.52069,2.94251 l 0.12175,2.20689 c 0,1.16946 -0.32443,2.07485 -0.97324,2.71617 -0.60826,0.6036 -1.43955,0.90538 -2.4939,0.90538 -1.01378,0 -1.84508,-0.32067 -2.4939,-0.96197 -0.64882,-0.67905 -0.97322,-1.58443 -0.97322,-2.71616 0,-1.05629 0.30413,-2.09373 0.9124,-3.11229 0.60827,-1.05628 1.50039,-1.99941 2.67639,-2.82934 1.17597,-0.82994 2.59524,-1.49011 4.25786,-1.98055 1.70314,-0.52812 3.6496,-0.79219 5.83937,-0.79219 2.87915,0 5.31223,0.3961 7.29922,1.18831 2.02754,0.79223 3.4874,2.1503 4.37953,4.07426 0.48662,1.094 0.72993,3.31976 0.72993,6.67725 v 11.77005 c 0,1.99942 0.0204,3.54612 0.0608,4.64013 0.081,1.05629 0.20275,1.82965 0.36496,2.32007 0.16223,0.49041 0.36498,0.79222 0.60826,0.90538 0.24331,0.0754 0.54747,0.11307 0.91244,0.11307 0.28383,0 0.54741,-0.0377 0.79074,-0.11307 0.24327,-0.0754 0.52714,-0.22634 0.85155,-0.4527 0.32442,-0.22633 0.68939,-0.52813 1.09488,-0.90539 l 1.70316,-1.58443 v 2.1503 c 0,4.61113 -5.94074,5.65869 -8.69825,5.65869 -1.29761,0 -2.35195,-0.41497 -3.16296,-1.24491 -0.81104,-0.86767 1.16324,-4.41378 -1.21654,-4.41378 z m 0,-2.48982 v -13.24132 c -2.83859,1.05627 -6.08271,2.41438 -9.73231,4.07426 -1.33817,0.64131 -2.3925,1.54671 -3.16298,2.71617 -0.72991,1.16946 -1.09488,2.47095 -1.09488,3.90447 0,0.90539 0.16221,1.7542 0.48662,2.54642 0.3244,0.75449 0.75018,1.41467 1.27736,1.98053 0.52716,0.56589 1.13543,1.01857 1.82481,1.35809 0.72992,0.30181 1.48009,0.4527 2.25059,0.4527 2.06811,0 4.78503,-1.26377 8.15079,-3.79132 z"
         id="path4"
         sodipodi:nodetypes="cccscccccsccccccscccccsscccccccscccccsscccssscsccscccccssccccczcscscscsccccssccscscccccccccscccscscccsscsccccccccscssccsccccccsccccccccscsssccscccccccscscssscscccssccsccccscccsscscscscccccscscsssccsccccccsccsccssccccscccsscccscscscsccsscscssssccscssccccscscscc" />
    </g>
  </g>
</svg>
