<?xml version="1.0" encoding="UTF-8" standalone="no"?>
<!-- Created with Inkscape (http://www.inkscape.org/) -->

<svg
   width="300"
   height="300"
   viewBox="0 0 300 300"
   version="1.1"
   id="svg1"
   inkscape:export-filename="Senzanome.svg"
   inkscape:export-xdpi="96"
   inkscape:export-ydpi="96"
   sodipodi:docname="Senzanome.svg"
   xmlns:inkscape="http://www.inkscape.org/namespaces/inkscape"
   xmlns:sodipodi="http://sodipodi.sourceforge.net/DTD/sodipodi-0.dtd"
   xmlns:xlink="http://www.w3.org/1999/xlink"
   xmlns="http://www.w3.org/2000/svg"
   xmlns:svg="http://www.w3.org/2000/svg">
  <sodipodi:namedview
     id="namedview1"
     pagecolor="#ffffff"
     bordercolor="#000000"
     borderopacity="0.25"
     inkscape:showpageshadow="2"
     inkscape:pageopacity="0.0"
     inkscape:pagecheckerboard="0"
     inkscape:deskcolor="#d1d1d1"
     inkscape:document-units="px" />
  <defs
     id="defs1">
    <linearGradient
       id="linearGradient425"
       inkscape:collect="always">
      <stop
         style="stop-color:#a87768;stop-opacity:1;"
         offset="0"
         id="stop426" />
      <stop
         style="stop-color:#a87768;stop-opacity:0;"
         offset="1"
         id="stop427" />
    </linearGradient>
    <linearGradient
       id="linearGradient424"
       inkscape:collect="always">
      <stop
         style="stop-color:#a87768;stop-opacity:1;"
         offset="0"
         id="stop424" />
      <stop
         style="stop-color:#a87768;stop-opacity:0;"
         offset="1"
         id="stop425" />
    </linearGradient>
    <linearGradient
       id="swatch20"
       inkscape:swatch="solid">
      <stop
         style="stop-color:#31ac03;stop-opacity:1;"
         offset="0"
         id="stop20" />
    </linearGradient>
    <radialGradient
       inkscape:collect="always"
       xlink:href="#linearGradient424"
       id="radialGradient425"
       cx="151.26601"
       cy="117.6582"
       fx="151.26601"
       fy="117.6582"
       r="149.67349"
       gradientTransform="matrix(1,0,0,0.70201146,0,35.060794)"
       gradientUnits="userSpaceOnUse" />
    <radialGradient
       inkscape:collect="always"
       xlink:href="#linearGradient425"
       id="radialGradient427"
       cx="154.08809"
       cy="117.77065"
       fx="154.08809"
       fy="117.77065"
       r="149.6516"
       gradientTransform="matrix(1.0000214,-0.00101102,-7.3080115e-4,0.75732429,0.19532622,23.423812)"
       gradientUnits="userSpaceOnUse" />
  </defs>
  <g
     inkscape:label="Livello 1"
     inkscape:groupmode="layer"
     id="layer1">
    <g
       id="text1"
       style="font-size:29.3333px;font-family:'Courier New';-inkscape-font-specification:'Courier New';fill:#171717"
       aria-label="Vetrina&#10;&#10;informatica"
       transform="rotate(-1.2138916,2149.1944,254.6829)">
      <path
         style="font-size:29.3333px;font-family:'Courier New';-inkscape-font-specification:'Courier New';fill:url(#radialGradient425);stroke-width:6.46051"
         d="M 1.5925076,221.56825 C 301.01953,168.33672 300.93951,12.585683 300.93951,12.585683 L 300.4857,222.73071 Z"
         id="path7"
         sodipodi:nodetypes="cccc" />
      <path
         style="font-size:29.3333px;font-family:'Courier New';-inkscape-font-specification:'Courier New';fill:url(#radialGradient427);stroke-width:6.68749"
         d="M 303.96482,-1.0274978 C 4.3206143,59.296706 4.9784047,225.94414 4.9784047,225.94414 L 4.6534502,1.0910902 Z"
         id="path14"
         sodipodi:nodetypes="cccc" />
      <path
         style="font-size:29.3333px;font-family:'Courier New';-inkscape-font-specification:'Segoe Script Bold';fill:#f5ded7;fill-opacity:1;stroke:#000000;stroke-width:1.43734;stroke-dasharray:none;stroke-opacity:1"
         d="m 44.095035,146.62546 c 0,0 -0.0524,0.2684 -0.178063,0.72085 -0.17281,0.35898 -0.263371,0.49037 -0.495535,0.88257 -0.499688,0.72841 -1.420716,1.06506 -2.408371,1.06648 -0.337547,4.8e-4 -0.687558,-0.0291 -1.050036,-0.0891 -0.362458,-0.0748 -0.693624,-0.17988 -0.99347,-0.31516 -0.287348,-0.15035 -0.524648,-0.33087 -0.711882,-0.54167 -0.18725,-0.21077 -0.280691,-0.45185 -0.280327,-0.72321 6.27e-4,-0.46731 0.101274,-0.95741 0.302013,-1.47023 0.213238,-0.52792 0.476425,-1.0107 0.789575,-1.44831 0.313141,-0.45272 0.657436,-0.82254 1.032884,-1.10952 0.38796,-0.30206 0.756974,-0.45333 1.107026,-0.45383 0.437565,-6.3e-4 0.825071,0.0366 1.162531,0.11146 0.33748,0.0598 0.624865,0.17247 0.862184,0.33794 0.237304,0.1655 0.579504,0.21717 0.691624,0.51851 0.124657,0.30133 0.393754,0.57258 0.324649,1.17159 z m 7.108356,25.01907 c -0.413205,0.49806 -0.807641,0.96594 -1.183292,1.40366 -0.363144,0.43768 -0.732513,0.85279 -1.108088,1.24527 -0.375591,0.39249 -0.757424,0.77746 -1.145486,1.15489 -0.375568,0.3774 -0.776122,0.75487 -1.201702,1.13233 -0.863635,0.755 -1.714573,1.34414 -2.552765,1.76745 -0.838173,0.40822 -1.632318,0.61287 -2.382432,0.61395 -0.875131,0.001 -1.637533,-0.17104 -2.287163,-0.51683 -0.637118,-0.36091 -1.186531,-0.8425 -1.6483,-1.44483 -0.449257,-0.61743 -0.817128,-1.31788 -1.103599,-2.10138 -0.28648,-0.79858 -0.516646,-1.63492 -0.690499,-2.50899 -0.161327,-0.88921 -0.272648,-1.786 -0.333935,-2.69043 -0.06131,-0.90439 -0.09135,-1.76364 -0.09026,-2.5777 4.25e-4,-0.31656 0.01983,-0.76884 0.05808,-1.35682 0.03827,-0.60307 0.08924,-1.22874 0.152546,-1.87705 0.07596,-0.66341 0.151792,-1.30422 0.227613,-1.9224 0.08843,-0.61818 0.176524,-1.1158 0.264556,-1.4928 0.100516,-0.39208 0.257308,-0.76167 0.470288,-1.10868 0.225537,-0.36213 0.501026,-0.6942 0.826471,-0.99614 0.650945,-0.63407 1.376486,-0.95171 2.176624,-0.95286 0.812616,-10e-4 1.218141,0.58619 1.216564,1.76204 -5.46e-4,0.40702 -0.03866,0.88949 -0.114466,1.44738 -0.07582,0.55788 -0.145225,1.12328 -0.208568,1.69624 -0.07598,0.67848 -0.145445,1.2891 -0.208718,1.83189 -0.06323,0.52773 -0.120148,1.0102 -0.170714,1.44745 -0.03803,0.42215 -0.06988,0.80661 -0.09526,1.15338 -0.02554,0.34675 -0.03838,0.67843 -0.0388,0.99499 -7.68e-4,0.57286 0.0297,1.21351 0.09114,1.92194 0.07412,0.70843 0.179439,1.37158 0.316117,1.98946 0.136786,0.60281 0.304814,1.11511 0.504286,1.53693 0.199463,0.40673 0.430494,0.60991 0.693033,0.60953 0.387556,-5.5e-4 0.825191,-0.0539 1.312894,-0.16016 0.48775,-0.12122 1.00691,-0.37076 1.557506,-0.74844 0.525564,-0.36257 1.069968,-0.78544 1.633212,-1.26864 0.57572,-0.48323 1.164062,-1.04184 1.764998,-1.67585 0.563385,-0.58873 1.114278,-1.17747 1.652623,-1.76614 0.550894,-0.5887 1.101844,-1.2302 1.652836,-1.92443 0.250473,-0.31695 0.475892,-0.60369 0.676275,-0.86027 0.212873,-0.25658 0.406981,-0.49805 0.582311,-0.72441 0.17535,-0.24147 0.344425,-0.46782 0.507229,-0.67911 0.175345,-0.22638 0.356922,-0.46031 0.544779,-0.70178 0.0501,-0.0754 0.112737,-0.15842 0.187865,-0.24899 0.07521,-0.1056 0.156541,-0.20375 0.244189,-0.29431 0.08775,-0.10562 0.181533,-0.18871 0.281603,-0.24916 0.100091,-0.0755 0.20019,-0.11339 0.300223,-0.11353 0.137596,-2e-4 0.281234,0.0373 0.431147,0.11248 0.162434,0.0751 0.287248,0.2257 0.374457,0.45172 0.08731,0.21092 0.13703,0.42192 0.149166,0.63294 0.01285,0.19595 0.01847,0.36179 0.01829,0.49747 -2.03e-4,0.15076 -0.06933,0.39957 -0.207278,0.74649 -0.138041,0.33186 -0.319773,0.72405 -0.545415,1.17664 -0.225643,0.45257 -0.488844,0.93536 -0.789574,1.44833 -0.300715,0.51298 -0.607713,1.02597 -0.920951,1.53897 -0.313236,0.51298 -0.632695,1.00337 -0.958361,1.47117 -0.313157,0.45272 -0.607487,0.84508 -0.882977,1.17714 z m 34.086374,-9.25212 c -3.84e-4,0.28643 -0.04454,0.60307 -0.132456,0.94991 -0.08789,0.33178 -0.200913,0.66359 -0.338881,0.99543 -0.125359,0.33185 -0.269661,0.64861 -0.432586,0.95035 -0.150413,0.28664 -0.294512,0.52805 -0.432268,0.72422 -0.400901,0.60357 -0.851831,1.2449 -1.352823,1.92399 -0.48847,0.67909 -1.001957,1.35067 -1.540418,2.01472 -0.538488,0.66408 -1.089438,1.30559 -1.652849,1.92443 -0.563391,0.60382 -1.12668,1.13226 -1.689885,1.58531 -0.438049,0.36244 -0.863578,0.70223 -1.276557,1.0194 -0.400452,0.30206 -0.819636,0.57402 -1.257526,0.81586 -0.425382,0.24178 -0.88196,0.43086 -1.369732,0.56725 -0.475251,0.13632 -1.00042,0.20497 -1.575508,0.20579 -0.937647,10e-4 -1.718722,-0.22366 -2.343212,-0.67505 -0.611986,-0.45135 -1.111259,-1.05364 -1.497787,-1.80684 -0.386559,-0.75319 -0.68545,-1.61203 -0.896699,-2.57653 -0.19871,-0.9796 -0.353612,-1.99694 -0.464707,-3.05204 -0.160599,-1.43188 -0.340346,-2.56227 -0.539286,-3.39109 -0.198893,-0.84392 -0.44212,-1.26566 -0.729672,-1.26525 -0.250033,3.6e-4 -0.493913,0.0761 -0.731659,0.22715 -0.237723,0.13598 -0.53817,0.43794 -0.901355,0.9058 -0.350679,0.46784 -0.801685,1.15438 -1.352961,2.0597 -0.538778,0.89018 -1.246732,2.0821 -2.12388,3.57579 -0.300731,0.51296 -0.67031,1.08636 -1.108726,1.72014 -0.425923,0.63376 -0.876799,1.24496 -1.352656,1.83356 -0.475853,0.57354 -0.951609,1.08676 -1.427299,1.53969 -0.46315,0.43784 -0.894896,0.73997 -1.29515,0.90635 -1.574699,-0.41984 -2.35988,-2.23526 -2.355572,-5.44624 0.0011,-0.81404 0.07777,-2.0126 0.229859,-3.59572 0.07602,-0.70863 0.158235,-1.45497 0.246798,-2.23897 0.101042,-0.78407 0.220872,-1.56815 0.359461,-2.35223 0.151101,-0.79918 0.327153,-1.57583 0.528203,-2.32985 0.201055,-0.7691 0.433295,-1.47797 0.696718,-2.12657 0.1505,-0.36201 0.319672,-0.64869 0.507472,-0.86 0.187815,-0.21132 0.375546,-0.36987 0.563234,-0.47566 0.200165,-0.10579 0.406532,-0.17396 0.619117,-0.20442 0.212571,-0.0304 0.42512,-0.0459 0.637664,-0.0461 0.187533,-2.7e-4 0.368731,0.0597 0.543596,0.1801 0.174884,0.10523 0.330939,0.26333 0.468164,0.47419 0.137312,0.21086 0.243167,0.46698 0.31777,0.76837 0.08705,0.30138 0.130312,0.64804 0.129787,1.04 -4.66e-4,0.34671 -0.02598,0.6784 -0.07641,0.99505 -0.05042,0.31665 -0.119662,0.6484 -0.207626,0.99523 -0.0879,0.33179 -0.182199,0.6862 -0.28271,1.06323 -0.0881,0.37699 -0.182361,0.80675 -0.283013,1.28928 -0.06295,0.31669 -0.157282,0.72383 -0.282951,1.2215 -0.113192,0.49763 -0.232625,1.0179 -0.358399,1.56078 -0.113232,0.5278 -0.220173,1.04804 -0.320865,1.56075 -0.100677,0.51268 -0.163813,0.9424 -0.189276,1.28917 0.225461,-0.31692 0.482272,-0.70923 0.770451,-1.17695 0.300704,-0.48286 0.613911,-0.99584 0.939694,-1.539 0.325803,-0.55823 0.657884,-1.12404 0.996199,-1.69738 0.338316,-0.57333 0.676604,-1.11651 1.014822,-1.62953 0.438471,-0.66395 0.870622,-1.29019 1.296485,-1.87871 0.425834,-0.58853 0.87033,-1.09419 1.333488,-1.51696 0.47564,-0.43786 0.988683,-0.77778 1.539097,-1.01978 0.550435,-0.25706 1.16945,-0.38609 1.857049,-0.38708 0.812615,-0.001 1.474944,0.20143 1.986985,0.60772 0.512046,0.39122 0.917609,0.94086 1.216715,1.64896 0.311599,0.70809 0.541755,1.55197 0.690469,2.53164 0.148705,0.96456 0.266082,2.01966 0.352043,3.16524 0.04921,0.58784 0.110928,1.19076 0.18512,1.80873 0.08663,0.61794 0.210942,1.18309 0.372774,1.6954 0.161853,0.49724 0.373842,0.9115 0.635922,1.24278 0.262143,0.31619 0.586957,0.47402 0.974527,0.47347 0.575073,-8.3e-4 1.200443,-0.18261 1.876006,-0.5454 0.688105,-0.37787 1.40767,-0.89143 2.158639,-1.54073 0.750984,-0.6493 1.520868,-1.40418 2.309639,-2.26456 0.7888,-0.86042 1.577636,-1.78113 2.366583,-2.76211 0.250458,-0.31696 0.488399,-0.62633 0.713855,-0.92814 0.237951,-0.31693 0.463362,-0.59614 0.676229,-0.83764 0.212874,-0.25657 0.419424,-0.46037 0.619664,-0.61142 0.200225,-0.15106 0.400365,-0.22671 0.600389,-0.227 0.07507,-1e-4 0.162513,0.0158 0.262479,0.0449 0.09997,0.0159 0.193704,0.06 0.281116,0.13524 0.08751,0.0601 0.156078,0.15054 0.205913,0.27106 0.06236,0.12041 0.09333,0.28628 0.09305,0.49733 z m 15.622495,-0.99472 c -2e-4,0.15077 -0.0504,0.33927 -0.15077,0.56553 -0.10028,0.21119 -0.22563,0.42999 -0.37593,0.65631 -0.15032,0.22634 -0.32567,0.44518 -0.525962,0.65651 -0.18781,0.19624 -0.37554,0.3548 -0.56324,0.47567 -0.18766,0.10575 -0.50039,0.23438 -0.938157,0.38576 -0.437754,0.15139 -0.950557,0.30286 -1.538354,0.45445 -0.575269,0.13647 -1.20054,0.26554 -1.875793,0.38711 -0.662763,0.12157 -1.313004,0.22046 -1.950724,0.29674 -0.562648,0.0611 -1.050318,0.122 -1.462967,0.183 -0.400123,0.0459 -0.762742,0.0917 -1.087843,0.1372 -0.325081,0.0306 -0.631431,0.0611 -0.919023,0.0919 -0.287544,0.0164 -0.600116,0.0234 -0.937662,0.0239 -0.02548,0.30151 -0.07615,0.8066 -0.152046,1.51522 -0.076,0.69358 -0.164538,1.4927 -0.26577,2.39732 -0.08879,0.88955 -0.189985,1.83943 -0.303866,2.84962 -0.101324,0.99509 -0.208895,1.95252 -0.322654,2.87226 -0.101203,0.90462 -0.196086,1.72636 -0.28459,2.46516 -0.07604,0.7237 -0.139149,1.2665 -0.189731,1.62838 -0.113638,0.82928 -0.246046,1.68873 -0.397252,2.57837 -0.151194,0.88966 -0.320997,1.63611 -0.509338,2.23939 -0.238545,0.76915 -0.545865,1.50075 -0.921844,2.19473 -0.363496,0.70905 -0.783242,1.38802 -1.259179,2.03693 -0.976895,1.31292 -2.146695,1.97035 -3.50943,1.9723 -0.300029,4.3e-4 -0.606248,-0.0669 -0.918615,-0.20217 -0.299881,-0.12008 -0.568436,-0.28563 -0.805709,-0.49634 -0.24977,-0.19563 -0.449506,-0.42144 -0.599175,-0.6775 -0.149656,-0.25607 -0.224348,-0.51223 -0.224004,-0.76852 3.23e-4,-0.2412 0.04444,-0.53524 0.132365,-0.88209 0.08804,-0.33176 0.213428,-0.64853 0.376352,-0.95026 0.162925,-0.30172 0.350812,-0.56579 0.563659,-0.79223 0.212798,-0.21136 0.450467,-0.31723 0.713021,-0.3176 0.07507,-1.1e-4 0.168763,0.008 0.281267,0.0221 l 0.37493,0.09 c 0.137389,0.0451 0.26869,0.0751 0.393687,0.0899 0.137409,0.0299 0.25624,0.0449 0.356245,0.0447 0.212772,-0.1812 0.394429,-0.45279 0.544929,-0.8148 0.163006,-0.36207 0.301074,-0.76928 0.414206,-1.22169 0.125521,-0.45244 0.238782,-0.935 0.339488,-1.44769 0.100658,-0.49763 0.188857,-0.98769 0.264511,-1.47019 0.163875,-1.01026 0.308959,-1.97527 0.435196,-2.89501 0.138683,-0.9198 0.26499,-1.81693 0.378689,-2.69146 0.113697,-0.8745 0.214841,-1.73393 0.303486,-2.57825 0.08875,-0.8594 0.158612,-1.72632 0.209765,-2.60072 0.02535,-0.2111 0.05064,-0.47496 0.07613,-0.79158 0.03789,-0.31661 0.06968,-0.65585 0.09508,-1.01769 0.03795,-0.36187 0.06349,-0.71615 0.0765,-1.06289 0.02555,-0.36185 0.03838,-0.68596 0.03877,-0.9724 1.41e-4,-0.10548 -0.06221,-0.23357 -0.187002,-0.38413 -0.124858,-0.15062 -0.262105,-0.32375 -0.41187,-0.5195 -0.149751,-0.19577 -0.287005,-0.40662 -0.411719,-0.63255 -0.124756,-0.22597 -0.186901,-0.45955 -0.186577,-0.70074 0.03797,-0.37692 0.420308,-1.10863 1.146852,-2.19508 0.31319,-0.46775 0.545004,-0.86005 0.695429,-1.17682 0.150474,-0.33188 0.257191,-0.66367 0.320151,-0.99541 0.06297,-0.33175 0.107187,-0.69361 0.132638,-1.08558 0.03799,-0.39204 0.0949,-0.88205 0.170745,-1.47007 0.113678,-0.85944 0.221001,-1.64349 0.321987,-2.35216 0.10094,-0.70868 0.220618,-1.37968 0.35899,-2.01303 0.150898,-0.64844 0.333027,-1.28185 0.546385,-1.90022 0.213359,-0.61838 0.483022,-1.267 0.808986,-1.94584 0.263253,-0.54308 0.582793,-1.0938 0.958606,-1.65211 0.38829,-0.55832 0.814056,-1.06393 1.277224,-1.51685 0.475677,-0.45293 0.976243,-0.81548 1.501685,-1.08755 0.525464,-0.28718 1.057002,-0.43114 1.594587,-0.43191 1.125163,-0.002 2.055989,0.44176 2.792389,1.33012 0.823861,0.94855 1.234949,2.0409 1.233291,3.27706 -0.002,1.50749 -0.485494,3.12123 -1.450458,4.84114 -0.601597,1.11641 -1.271199,1.67514 -2.008808,1.67619 l -0.337546,4.9e-4 c 0.163496,-0.7389 0.283205,-1.43252 0.359096,-2.08085 0.07594,-0.64834 0.114194,-1.24384 0.114923,-1.78656 3.23e-4,-0.24119 -0.01237,-0.55776 -0.03619,-0.94968 -0.02452,-0.407 -0.074,-0.79887 -0.148451,-1.17565 -0.07456,-0.37674 -0.174086,-0.70071 -0.298724,-0.9719 -0.124676,-0.28625 -0.280737,-0.42924 -0.468269,-0.42897 -0.12506,1.8e-4 -0.275172,0.10589 -0.450497,0.31723 -0.175308,0.21131 -0.356926,0.47539 -0.544869,0.79222 -0.175466,0.31685 -0.350971,0.66381 -0.526474,1.04093 -0.175561,0.37713 -0.332299,0.73915 -0.470301,1.0861 -0.163087,0.42231 -0.338911,1.01803 -0.527475,1.78712 -0.188558,0.75401 -0.364661,1.56832 -0.528369,2.44291 -0.163673,0.85952 -0.308598,1.72655 -0.434802,2.60106 -0.126213,0.85946 -0.214704,1.62088 -0.265589,2.28425 l -0.0012,0.90449 c -1.21e-4,0.0905 0.08723,0.16565 0.262221,0.22576 0.174981,0.0451 0.406204,0.0824 0.693715,0.11211 0.300002,0.0297 0.637518,0.0518 1.012562,0.0664 l 1.143923,-0.002 c 0.650124,-9.3e-4 1.268975,-0.0177 1.856609,-0.0479 0.600112,-0.031 1.194033,-0.0771 1.781695,-0.13819 0.587709,-0.0762 1.181663,-0.16751 1.781904,-0.2739 0.612748,-0.10636 1.250509,-0.23545 1.913327,-0.38715 0.10001,-0.0162 0.1938,-0.0228 0.2813,-0.0229 0.10001,-0.0162 0.20632,-0.0228 0.31883,-0.023 0.625102,-9e-4 0.937242,0.30017 0.936432,0.90316 z m 22.31941,-2.60979 c -3.9e-4,0.28641 -0.082,0.5956 -0.24504,0.92748 -0.15044,0.31678 -0.35088,0.64118 -0.60137,0.97318 -0.23798,0.31691 -0.51346,0.63388 -0.82642,0.95091 -0.31294,0.31702 -0.62593,0.61143 -0.93883,0.88323 -0.31289,0.25673 -0.61322,0.48328 -0.90105,0.67966 -0.27529,0.19639 -0.50676,0.34746 -0.69447,0.45324 -0.33777,0.16632 -0.77555,0.32524 -1.31333,0.47676 -0.52527,0.13637 -1.08175,0.25784 -1.66948,0.3642 -0.57522,0.0913 -1.13792,0.16741 -1.68808,0.22853 -0.53766,0.061 -0.99403,0.0919 -1.36908,0.0925 -0.0875,1.2e-4 -0.21254,-0.008 -0.37504,-0.022 -0.14996,-0.0299 -0.3187,-0.0672 -0.50617,-0.11238 -0.17496,-0.0451 -0.35615,-0.0975 -0.54363,-0.15753 -0.1749,-0.0751 -0.32482,-0.16533 -0.4497,-0.27069 0.13713,0.34653 0.21156,0.73083 0.2235,1.15291 0.0245,0.40698 0.0364,0.81401 0.0359,1.22103 -3.9e-4,0.28645 -0.0258,0.62566 -0.0764,1.01768 -0.0505,0.39202 -0.11986,0.79161 -0.2079,1.19876 -0.0756,0.40714 -0.16985,0.79921 -0.28286,1.17625 -0.11303,0.37705 -0.23222,0.69379 -0.35758,0.95025 -0.31342,0.64866 -0.65178,1.24462 -1.01509,1.78783 -0.35078,0.54321 -0.74527,1.04878 -1.18346,1.51674 -0.43819,0.46796 -0.9326,0.90582 -1.48322,1.31365 -0.55063,0.40781 -1.18876,0.80821 -1.91441,1.20119 -0.77567,0.40813 -1.55116,0.69568 -2.3265,0.86262 -0.77533,0.15188 -1.57557,0.22838 -2.4007,0.22956 -0.612602,8.8e-4 -1.156167,-0.18678 -1.63073,-0.56298 -0.474559,-0.39127 -0.873908,-0.91078 -1.198107,-1.55854 -0.324171,-0.64777 -0.573217,-1.39363 -0.747097,-2.23757 -0.161401,-0.84397 -0.241479,-1.72574 -0.240245,-2.64531 3.03e-4,-0.22615 0.01379,-0.50504 0.03859,-0.83673 0.03793,-0.34678 0.08241,-0.69357 0.132578,-1.04036 0.06299,-0.34682 0.125834,-0.6861 0.188883,-1.01784 0.07551,-0.33177 0.144536,-0.61073 0.207413,-0.83695 0.175875,-0.63342 0.426879,-1.35736 0.753012,-2.17188 0.338653,-0.81455 0.733574,-1.64424 1.184779,-2.48909 0.451222,-0.8599 0.952422,-1.6973 1.503594,-2.51212 0.55122,-0.82992 1.13353,-1.56188 1.74698,-2.19594 0.62595,-0.64911 1.2705,-1.17012 1.93364,-1.56303 0.67563,-0.39292 1.35098,-0.58986 2.0261,-0.59082 0.28755,-4.2e-4 0.51878,0.037 0.69371,0.11213 0.17495,0.06 0.3186,0.15033 0.43094,0.27075 0.11237,0.10532 0.21224,0.23335 0.29953,0.38398 0.0998,0.1355 0.20591,0.27106 0.31826,0.40658 0.0875,-0.0302 0.17509,-0.053 0.26261,-0.0683 0.10001,-0.016 0.20007,-0.0228 0.3001,-0.0229 0.38756,-5.5e-4 0.76862,0.17979 1.1432,0.54107 0.37457,0.36129 0.75534,0.76022 1.14231,1.19682 0.17477,0.19573 0.34952,0.39899 0.52427,0.60979 0.18725,0.19571 0.35579,0.37639 0.5056,0.54197 0.14983,0.15055 0.28091,0.27849 0.39328,0.38385 0.12494,0.0904 0.21235,0.13535 0.26237,0.13528 l 1.05019,-0.002 1.16272,-0.0469 c 0.40008,-0.0307 0.78146,-0.0689 1.14406,-0.11476 0.37515,-0.0459 0.71275,-0.099 1.01289,-0.15974 0.0375,-0.0161 0.20013,-0.0605 0.48776,-0.13634 0.28764,-0.091 0.6316,-0.19684 1.03184,-0.31806 0.41275,-0.13623 0.85673,-0.28013 1.33203,-0.43156 0.47528,-0.15144 0.91302,-0.28774 1.31324,-0.4089 0.41275,-0.13621 0.76294,-0.24228 1.05059,-0.31807 0.30017,-0.091 0.47526,-0.13631 0.52526,-0.13639 0.25003,-3.5e-4 0.45004,0.0371 0.59993,0.11226 0.14994,0.0752 0.22465,0.2861 0.22419,0.63283 z m -21.6611,15.11356 c 1.01267,-10e-4 1.90698,-0.32682 2.68298,-0.97617 0.78849,-0.64935 1.45226,-1.50957 1.99127,-2.58067 0.53902,-1.08617 0.95325,-2.31538 1.24263,-3.68763 0.30191,-1.38733 0.4601,-2.81215 0.47455,-4.27442 -0.0872,-0.22601 -0.21818,-0.45952 -0.39286,-0.70044 -0.16222,-0.24098 -0.34946,-0.45174 -0.56173,-0.63235 -0.2123,-0.19567 -0.43085,-0.35366 -0.65574,-0.47393 -0.22484,-0.12018 -0.43107,-0.18029 -0.61859,-0.18002 -0.30003,4.3e-4 -0.62529,0.14416 -0.97572,0.43104 -0.35042,0.28694 -0.67589,0.58136 -0.97634,0.88329 -0.30046,0.30194 -0.60103,0.70185 -0.90175,1.19975 -0.28818,0.48281 -0.5577,1.02591 -0.80855,1.62927 -0.25084,0.60335 -0.483,1.24436 -0.69644,1.92305 -0.21342,0.66361 -0.39559,1.32717 -0.54651,1.99069 -0.15088,0.64842 -0.27051,1.28176 -0.35885,1.89997 -0.0759,0.61819 -0.11409,1.16848 -0.11474,1.65087 -3.2e-4,0.2412 0.0304,0.47482 0.0926,0.70086 0.0622,0.22603 0.14328,0.42941 0.24296,0.6102 0.11228,0.18073 0.24336,0.32375 0.39323,0.42907 0.14989,0.10527 0.31234,0.15782 0.48736,0.15757 z m 36.17468,-14.27507 c -0.0137,0.51257 -0.0948,0.94233 -0.24551,1.28926 -0.13791,0.34691 -0.31963,0.62607 -0.54495,0.83743 -0.21282,0.19628 -0.45677,0.33987 -0.73192,0.43072 -0.27514,0.0758 -0.55025,0.1139 -0.82529,0.1143 -0.22505,3.2e-4 -0.45002,-0.0371 -0.67497,-0.11216 -0.22492,-0.075 -0.45615,-0.11246 -0.69368,-0.11212 -0.40006,5.7e-4 -0.8941,0.15203 -1.48209,0.45438 -0.57548,0.28723 -1.1698,0.66495 -1.78304,1.13316 -0.61321,0.46821 -1.21401,0.98914 -1.80239,1.56285 -0.58836,0.57369 -1.09545,1.13973 -1.52126,1.69813 -0.23795,0.31688 -0.51352,0.7017 -0.82666,1.15442 -0.31312,0.43761 -0.61379,0.89784 -0.902,1.38065 -0.27568,0.48279 -0.51386,0.96554 -0.71455,1.44823 -0.1882,0.48267 -0.28253,0.91999 -0.28306,1.31192 -6.5e-4,0.4824 0.0359,1.04766 0.11024,1.69577 0.0867,0.64812 0.1294,1.33396 0.12843,2.05756 -3.4e-4,0.25629 -0.008,0.49749 -0.0196,0.72362 -2.9e-4,0.21108 -0.0255,0.42216 -0.076,0.63327 -0.0255,0.18094 -0.10676,0.38455 -0.24459,0.61088 -0.12534,0.21125 -0.2881,0.41499 -0.48838,0.61125 -0.20034,0.21132 -0.41935,0.38501 -0.65703,0.52102 -0.23775,0.13599 -0.48165,0.20422 -0.73169,0.20458 -0.41254,5.9e-4 -0.76235,-0.17981 -1.04942,-0.5412 -0.28705,-0.36139 -0.51765,-0.86606 -0.69182,-1.51406 -0.16163,-0.64798 -0.27943,-1.4091 -0.35323,-2.28335 -0.074,-0.87425 -0.1101,-1.81638 -0.10874,-2.82639 l 8.2e-4,-0.61056 c 0.0136,-0.34674 0.0196,-0.72363 0.0202,-1.13067 0.0137,-0.40704 0.0261,-0.79901 0.0391,-1.17589 0.0136,-0.3769 0.0195,-0.61811 0.0196,-0.72362 8e-5,-0.0603 0.008,-0.25629 0.0194,-0.58796 0.0254,-0.33169 0.051,-0.73122 0.0766,-1.19857 0.0382,-0.48245 0.0701,-0.99506 0.0958,-1.53779 0.0384,-0.55783 0.0703,-1.0855 0.0958,-1.58301 0.0383,-0.49755 0.0701,-0.93476 0.0953,-1.31167 0.0255,-0.39198 0.0446,-0.64829 0.0573,-0.76892 0.0131,-0.0454 0.0253,-0.19604 0.0381,-0.45229 0.0254,-0.27141 0.0507,-0.58047 0.0764,-0.92721 0.0381,-0.34681 0.0824,-0.70112 0.13262,-1.063 0.0505,-0.36187 0.10088,-0.66343 0.15121,-0.90469 0.0503,-0.21116 0.15065,-0.46002 0.30106,-0.74666 0.16289,-0.28667 0.3633,-0.55829 0.60117,-0.81492 0.2504,-0.2717 0.52572,-0.49821 0.82603,-0.67956 0.30034,-0.19639 0.61924,-0.29484 0.95682,-0.29533 0.40003,-5.7e-4 0.71873,0.0743 0.95607,0.22477 0.24983,0.1504 0.44336,0.33854 0.5806,0.56446 0.14971,0.21084 0.24946,0.44437 0.2991,0.70057 0.0496,0.24113 0.0744,0.4597 0.0741,0.65566 -1.7e-4,0.1205 -0.038,0.392 -0.11361,0.81422 -0.0757,0.40712 -0.17616,0.85953 -0.30188,1.35717 -0.15089,0.66353 -0.28324,1.44007 -0.39693,2.32966 -0.11371,0.87453 -0.20235,1.71883 -0.26593,2.53298 0.68884,-0.93562 1.42773,-1.87886 2.21661,-2.82975 0.78892,-0.96592 1.60898,-1.83391 2.46013,-2.60395 0.85121,-0.78513 1.72093,-1.41952 2.60921,-1.90318 0.8883,-0.49877 1.77628,-0.74876 2.66388,-0.75003 0.43758,-6.3e-4 0.83127,0.0893 1.18108,0.26966 0.34986,0.16533 0.64334,0.39102 0.88049,0.67711 0.24967,0.27098 0.43679,0.57977 0.56135,0.9263 0.13715,0.33146 0.20538,0.67056 0.20491,1.01727 l -6e-5,0.0452 z m 44.1213,3.14778 c -1.8e-4,0.13564 -0.0317,0.31663 -0.0944,0.54285 -0.0503,0.21112 -0.11939,0.44486 -0.20724,0.70128 -0.0876,0.24132 -0.19442,0.49021 -0.3198,0.74666 -0.11287,0.25645 -0.2257,0.49781 -0.33852,0.72408 -0.20053,0.37716 -0.46993,0.81473 -0.80814,1.31271 -0.3382,0.49794 -0.71396,1.01858 -1.12725,1.56186 -0.41332,0.5433 -0.8516,1.08664 -1.31491,1.62999 -0.46328,0.54336 -0.92029,1.04902 -1.37097,1.517 -0.36307,0.36232 -0.78864,0.76242 -1.27681,1.20029 -0.48816,0.43788 -1.00755,0.84564 -1.55813,1.2233 -0.55057,0.37768 -1.11362,0.69503 -1.68903,0.95215 -0.56292,0.24201 -1.10692,0.36337 -1.63201,0.36412 -0.48757,7e-4 -0.96247,-0.11173 -1.42476,-0.33714 -0.44975,-0.24055 -0.87421,-0.68465 -1.27341,-1.3323 -0.38668,-0.64767 -0.72925,-1.55169 -1.02774,-2.71202 -0.29851,-1.16035 -0.534,-2.66753 -0.70655,-4.52148 -0.0129,-0.1809 -0.0305,-0.45978 -0.0551,-0.83662 -0.0126,-0.39192 -0.0303,-0.77631 -0.0548,-1.15317 -0.0125,-0.39192 -0.0301,-0.73108 -0.0549,-1.01745 -0.0247,-0.28642 -0.0494,-0.42959 -0.0746,-0.42955 -0.1,1.4e-4 -0.26901,0.18129 -0.50707,0.54345 -0.2255,0.36211 -0.50119,0.84489 -0.82706,1.44837 -0.31332,0.58837 -0.65804,1.27476 -1.03416,2.05921 -0.37608,0.76936 -0.76471,1.56891 -1.16593,2.3986 -0.50145,1.05596 -0.97781,2.00637 -1.429,2.85124 -0.43869,0.82974 -0.85845,1.53134 -1.25926,2.10476 -0.38833,0.55832 -0.77021,0.98851 -1.14567,1.29053 -0.36296,0.30205 -0.73195,0.45333 -1.10704,0.45387 -0.57508,8.2e-4 -1.04374,-0.12667 -1.40595,-0.38241 -0.36216,-0.27083 -0.64918,-0.67746 -0.86099,-1.21986 -0.21179,-0.55745 -0.36084,-1.26577 -0.44721,-2.12493 -0.0863,-0.87422 -0.1413,-1.9068 -0.16464,-3.09766 -0.0349,-1.98986 -0.0889,-3.54251 -0.16251,-4.65793 -0.061,-1.11549 -0.15403,-1.67313 -0.27905,-1.67295 -0.15002,2.2e-4 -0.40037,0.23424 -0.75106,0.70204 -0.35069,0.46785 -0.77036,1.10912 -1.25903,1.92388 -0.47618,0.81474 -1.00251,1.77277 -1.57908,2.87406 -0.5641,1.10129 -1.147,2.28551 -1.74878,3.55266 -0.15046,0.33188 -0.33227,0.71656 -0.54539,1.15403 -0.21312,0.43749 -0.4325,0.8825 -0.65815,1.33507 -0.22564,0.45259 -0.45127,0.89008 -0.67686,1.3125 -0.21309,0.4224 -0.40738,0.7845 -0.58281,1.08624 -0.22553,0.39227 -0.50097,0.69416 -0.82633,0.90569 -0.3253,0.19642 -0.66926,0.29492 -1.03181,0.29544 -0.51256,7.4e-4 -0.94995,-0.12681 -1.31219,-0.38254 -0.36218,-0.27083 -0.65547,-0.6322 -0.87992,-1.08415 -0.22441,-0.4519 -0.39246,-0.98684 -0.50417,-1.60474 -0.0992,-0.61793 -0.1483,-1.27364 -0.14737,-1.96708 8.3e-4,-0.61808 0.0147,-1.17588 0.0395,-1.6734 0.0257,-0.49751 0.0639,-0.99505 0.11453,-1.49259 0.0507,-0.51262 0.10767,-1.04786 0.17091,-1.60574 0.0759,-0.55786 0.15789,-1.19867 0.24636,-1.92241 0.0761,-0.63326 0.13307,-1.29665 0.17147,-1.99014 0.0385,-0.70858 0.0771,-1.39454 0.1153,-2.05789 0.0385,-0.67843 0.0831,-1.30411 0.13369,-1.87704 0.0507,-0.57293 0.12019,-1.04788 0.20819,-1.4249 0.0629,-0.25637 0.14442,-0.52784 0.24485,-0.81439 0.1004,-0.30165 0.24458,-0.57319 0.43241,-0.81467 0.18789,-0.25654 0.42568,-0.46793 0.71349,-0.63419 0.28777,-0.18129 0.64422,-0.27225 1.06928,-0.27286 0.38754,-5.5e-4 0.69998,0.0895 0.93725,0.26998 0.23733,0.16551 0.41829,0.39891 0.5429,0.70023 0.12467,0.28626 0.20544,0.62531 0.24243,1.0172 0.0495,0.37682 0.0742,0.77627 0.0736,1.19837 -4.9e-4,0.36182 -0.0447,0.85182 -0.13316,1.47001 -0.0758,0.61819 -0.17673,1.30424 -0.30281,2.05817 -0.11351,0.73883 -0.24583,1.51541 -0.39693,2.32966 -0.1511,0.79919 -0.29591,1.56822 -0.43442,2.3071 -0.12605,0.73884 -0.23943,1.40986 -0.34025,2.013 -0.10078,0.58807 -0.17019,1.04795 -0.20812,1.37966 0.025,-0.0603 0.0938,-0.2112 0.20688,-0.45256 0.12538,-0.24137 0.26949,-0.53554 0.43247,-0.8825 0.1755,-0.34696 0.35729,-0.71656 0.54534,-1.10877 0.18806,-0.39224 0.36357,-0.76183 0.52658,-1.10879 0.1755,-0.34695 0.32591,-0.64868 0.45128,-0.90513 0.12541,-0.25647 0.20059,-0.41486 0.22566,-0.4752 0.22566,-0.45256 0.48887,-0.95797 0.78964,-1.51619 0.30083,-0.57327 0.61414,-1.14655 0.93997,-1.71989 0.32585,-0.58839 0.64541,-1.14661 0.95865,-1.67468 0.32575,-0.52809 0.62016,-0.97322 0.88318,-1.3354 0.56362,-0.76964 1.15824,-1.35088 1.78385,-1.74373 0.63812,-0.39286 1.31349,-0.58979 2.02609,-0.59081 0.76264,-0.001 1.3998,0.31455 1.91154,0.94698 0.51174,0.63241 0.85443,1.46103 1.02806,2.48589 0.062,0.37679 0.11139,0.85157 0.14812,1.42438 0.0368,0.5728 0.0611,1.17576 0.0728,1.80889 0.0241,0.61804 0.0419,1.24363 0.0538,1.87679 0.0123,0.63313 0.0171,1.19844 0.0164,1.69589 0.0125,0.49747 0.0238,0.90448 0.0359,1.22103 0.0127,0.31656 0.0369,0.47481 0.0746,0.47476 0.11252,-1.7e-4 0.27528,-0.18885 0.48835,-0.56602 0.21304,-0.37716 0.45119,-0.85237 0.71449,-1.42561 0.26333,-0.57323 0.53919,-1.1917 0.82764,-1.8554 0.2884,-0.66372 0.56429,-1.27465 0.82756,-1.83282 0.43877,-0.89006 0.9025,-1.74243 1.39118,-2.55721 0.48865,-0.82981 0.97096,-1.55409 1.44686,-2.17284 0.48842,-0.63389 0.95165,-1.13199 1.38971,-1.49443 0.43809,-0.37751 0.82589,-0.56648 1.16345,-0.56696 0.23753,-3.4e-4 0.48127,0.0294 0.73123,0.0893 0.24997,0.0599 0.48739,0.15007 0.71223,0.27034 0.23741,0.10514 0.44978,0.24056 0.63708,0.40611 0.18733,0.15051 0.33086,0.32366 0.43062,0.51948 0.21197,0.40673 0.36764,0.85121 0.46703,1.33346 0.0994,0.48226 0.1674,1.01734 0.20413,1.60519 0.0492,0.58786 0.0797,1.23604 0.091,1.94455 0.0241,0.70851 0.0732,1.49233 0.14685,2.3515 0.13535,1.56761 0.33379,2.79594 0.59512,3.68498 0.26136,0.88907 0.63583,1.33324 1.12341,1.33254 0.21253,-3.1e-4 0.48768,-0.0912 0.82549,-0.27256 0.35032,-0.19645 0.72569,-0.43819 1.12615,-0.72518 0.41295,-0.30211 0.83222,-0.63435 1.25777,-0.99678 0.43805,-0.36242 0.84486,-0.7248 1.22039,-1.08714 0.41308,-0.39254 0.80744,-0.79259 1.18304,-1.20015 0.37562,-0.42264 0.74499,-0.85281 1.10816,-1.2905 0.37564,-0.4377 0.7513,-0.89049 1.12699,-1.35838 0.38821,-0.48294 0.79519,-0.98853 1.22097,-1.51676 0.26296,-0.31697 0.56323,-0.47569 0.90076,-0.47617 0.40008,-5.7e-4 0.59965,0.34588 0.59872,1.03931 z m 8.38503,-1.86624 c 1.8e-4,-0.13564 -0.0245,-0.29391 -0.0745,-0.47475 -0.0374,-0.18084 -0.0931,-0.3466 -0.16812,-0.49722 -0.0623,-0.16572 -0.13704,-0.30132 -0.22449,-0.4067 -0.0873,-0.12038 -0.16853,-0.18067 -0.24352,-0.18057 -0.82515,0.001 -1.58186,0.27363 -2.2702,0.8173 -0.67582,0.52861 -1.38314,1.25322 -2.12202,2.17383 -0.41321,0.49808 -0.85791,1.16955 -1.33412,2.01445 -0.46372,0.84488 -0.89624,1.74243 -1.29755,2.69275 -0.40136,0.9503 -0.73394,1.90049 -0.99772,2.85058 -0.26386,0.95013 -0.39624,1.78698 -0.39721,2.51058 -2.4e-4,0.18089 0.007,0.36176 0.0179,0.54268 0.0247,0.16577 0.0621,0.31646 0.11192,0.45207 0.0623,0.13555 0.14353,0.24855 0.24329,0.33885 0.0999,0.0903 0.23114,0.1353 0.39367,0.13506 0.47507,-6.8e-4 1.0129,-0.18234 1.61347,-0.54499 0.6006,-0.37774 1.20134,-0.861 1.80226,-1.44979 0.61337,-0.60389 1.2019,-1.29063 1.7655,-2.06028 0.57615,-0.78473 1.05853,-1.58438 1.4472,-2.39897 0.47642,-0.99564 0.88413,-2.0364 1.22311,-3.12229 0.339,-1.08589 0.5093,-2.21675 0.51088,-3.39261 z m 17.04326,2.30469 c -2.4e-4,0.18091 -0.0316,0.39953 -0.0944,0.65591 -0.0503,0.24125 -0.11946,0.4901 -0.20727,0.74649 -0.0878,0.24132 -0.18818,0.48268 -0.30103,0.72403 -0.10029,0.22628 -0.20057,0.4224 -0.30081,0.58836 -0.0627,0.10559 -0.16286,0.25653 -0.30067,0.45269 -0.13768,0.1811 -0.29431,0.39236 -0.46968,0.63383 -0.17531,0.22637 -0.37568,0.47539 -0.60111,0.74705 -0.21287,0.27166 -0.43203,0.54334 -0.65743,0.81501 -0.7262,0.81507 -1.46488,1.62265 -2.21609,2.4227 -0.73865,0.78498 -1.51472,1.48707 -2.32817,2.10632 -0.81345,0.60415 -1.66424,1.0953 -2.55237,1.47345 -0.88812,0.37815 -1.83228,0.56794 -2.83246,0.56937 -0.42506,6.1e-4 -0.85622,-0.11189 -1.29349,-0.33733 -0.43725,-0.2255 -0.84315,-0.53395 -1.21768,-0.92536 -0.37451,-0.39144 -0.70523,-0.85826 -0.99201,-1.40057 -0.27431,-0.55736 -0.4673,-1.15256 -0.57895,-1.78557 -0.22566,0.45259 -0.52011,0.94295 -0.88337,1.47111 -0.36326,0.51304 -0.76399,1.02618 -1.20223,1.53936 -0.42577,0.51314 -0.87024,1.00373 -1.33345,1.47172 -0.46317,0.45291 -0.89502,0.84548 -1.29552,1.1777 -0.27536,0.22653 -0.61322,0.46069 -1.01362,0.70244 -0.38786,0.24176 -0.80075,0.46848 -1.23859,0.68017 -0.43782,0.19659 -0.88188,0.36305 -1.33213,0.49936 -0.43772,0.12126 -0.84411,0.18212 -1.21918,0.18266 -0.60006,8.6e-4 -1.12488,-0.2019 -1.57442,-0.60829 -0.44951,-0.42147 -0.82387,-0.93347 -1.12311,-1.53605 -0.28674,-0.60258 -0.50466,-1.24296 -0.65377,-1.92112 -0.13653,-0.67818 -0.20456,-1.28862 -0.20383,-1.8313 0.001,-0.99498 0.12148,-2.00517 0.36037,-3.03062 0.25143,-1.04053 0.56536,-2.051 0.94172,-3.03141 0.3889,-0.98045 0.8152,-1.9157 1.27894,-2.8058 0.47626,-0.89011 0.93992,-1.68223 1.3909,-2.3763 0.47605,-0.72427 1.04587,-1.44115 1.7094,-2.15065 0.66357,-0.72454 1.35831,-1.36622 2.08416,-1.92504 0.72587,-0.57388 1.43912,-1.03468 2.1397,-1.38242 0.71306,-0.34775 1.34464,-0.522 1.89473,-0.52279 0.30005,-4.3e-4 0.60631,0.015 0.91883,0.0439 0.32505,0.0154 0.6438,0.0443 0.95629,0.0891 0.31247,0.0449 0.61245,0.11227 0.89985,0.20224 0.28741,0.0901 0.54354,0.20269 0.76842,0.33809 0.14986,0.12028 0.3121,0.33872 0.48669,0.65506 0.18714,0.30122 0.35548,0.63263 0.50501,0.99423 0.16203,0.34648 0.29911,0.69301 0.41116,1.03959 0.11205,0.34657 0.16794,0.61783 0.16767,0.81379 -5.6e-4,0.42211 -0.0576,0.92721 -0.1708,1.5153 -0.10076,0.573 -0.22035,1.17615 -0.35873,1.80953 -0.12591,0.63333 -0.2455,1.28172 -0.35892,1.94516 -0.11341,0.66348 -0.17052,1.2967 -0.17133,1.89972 -5.6e-4,0.42209 0.0488,0.85164 0.14829,1.28867 0.0994,0.43705 0.24266,0.83632 0.42971,1.19787 0.18706,0.34645 0.41171,0.63256 0.67394,0.85831 0.26226,0.22575 0.55588,0.33839 0.88094,0.33792 0.73761,-0.001 1.46921,-0.16791 2.19473,-0.50062 0.7256,-0.33268 1.45132,-0.78598 2.17719,-1.35986 0.72589,-0.58896 1.45189,-1.27593 2.17809,-2.06086 0.72619,-0.80001 1.45869,-1.66033 2.19756,-2.58096 0.025,-4e-5 0.1252,-0.11332 0.30049,-0.33963 0.17534,-0.22638 0.38194,-0.47543 0.61983,-0.7471 0.25042,-0.27171 0.50702,-0.52082 0.76989,-0.74733 0.27534,-0.22653 0.51302,-0.33992 0.71307,-0.34021 0.36254,-5.2e-4 0.59993,0.12731 0.71208,0.38341 0.11217,0.25609 0.16792,0.64799 0.16721,1.17561 z m 17.7647,-4.2766 c -4.8e-4,0.36181 -0.15093,0.70121 -0.45144,1.01822 -0.28796,0.31699 -0.66965,0.6115 -1.14509,0.88352 -0.47546,0.27202 -1.01335,0.52152 -1.61376,0.74852 -0.60037,0.21191 -1.20699,0.40877 -1.81981,0.59054 -0.60032,0.16666 -1.18183,0.31073 -1.7446,0.43214 -0.55023,0.10629 -1.01917,0.19743 -1.40685,0.27335 -1.40052,0.24321 -2.56969,0.42578 -3.5075,0.54774 -0.9253,0.12183 -1.58816,0.28868 -1.98847,0.50031 -0.22657,1.13097 -0.45941,2.30714 -0.6986,3.52856 -0.22666,1.20634 -0.43445,2.33724 -0.6234,3.39276 -0.18895,1.05554 -0.34646,1.97532 -0.47252,2.7594 -0.11357,0.78406 -0.17054,1.31179 -0.17091,1.58312 -2.6e-4,0.19598 0.007,0.36932 0.018,0.52005 0.0129,0.13563 0.0307,0.26379 0.0558,0.38435 0.0374,0.12069 0.0685,0.24109 0.0932,0.36167 0.0375,0.10544 0.0749,0.23357 0.11201,0.38426 0.0498,0.1507 0.0995,0.3541 0.14918,0.61032 0.0496,0.25623 0.093,0.5124 0.13015,0.76864 0.0496,0.25621 0.0869,0.48982 0.11158,0.70082 0.0247,0.22611 0.037,0.38436 0.0369,0.47482 -3.9e-4,0.28642 -0.057,0.59553 -0.17001,0.92735 -0.10046,0.34686 -0.24469,0.67119 -0.43262,0.97295 -0.18795,0.30178 -0.41335,0.55084 -0.67612,0.7472 -0.26282,0.21142 -0.55676,0.31737 -0.88178,0.31784 -0.33758,4.8e-4 -0.64997,-0.11218 -0.9372,-0.33785 -0.27478,-0.21068 -0.52443,-0.49672 -0.74898,-0.85821 -0.22457,-0.3464 -0.42406,-0.7456 -0.59848,-1.1976 -0.16196,-0.43694 -0.29888,-0.87392 -0.41079,-1.31095 -0.11195,-0.43701 -0.19891,-0.84392 -0.26092,-1.22068 -0.0495,-0.39189 -0.0742,-0.71597 -0.0739,-0.97225 3.4e-4,-0.2563 0.0197,-0.65578 0.058,-1.19853 0.0507,-0.54277 0.13906,-1.09315 0.26474,-1.65112 0.38994,-1.76432 0.69192,-3.21195 0.90599,-4.34288 0.21405,-1.14602 0.37155,-2.05827 0.4725,-2.7368 0.10092,-0.6936 0.16412,-1.1987 0.18954,-1.51532 0.038,-0.31664 0.0632,-0.53524 0.0761,-0.65585 -0.16254,2.3e-4 -0.39385,0.0166 -0.69392,0.0462 -0.3001,0.0164 -0.61269,0.0461 -0.93779,0.0919 -0.31258,0.0306 -0.60642,0.0611 -0.88151,0.0917 -0.27505,0.0163 -0.46261,0.0232 -0.56261,0.0233 -0.6626,9.5e-4 -1.21889,-0.051 -1.66883,-0.1559 -0.44993,-0.10484 -0.81216,-0.30787 -1.0868,-0.60897 -0.28712,-0.31618 -0.48657,-0.75307 -0.59836,-1.31069 -0.12428,-0.57267 -0.18576,-1.31879 -0.18453,-2.23835 0.61265,-0.0169 1.13152,-0.0544 1.55664,-0.11536 0.43769,-0.076 0.8378,-0.11433 1.20034,-0.11485 0.1,-1.4e-4 0.35008,-0.0164 0.75018,-0.0463 0.41262,-0.0459 0.86277,-0.0916 1.35038,-0.13757 0.48765,-0.046 0.95654,-0.0919 1.40667,-0.13765 0.46265,-0.0609 0.79401,-0.10663 0.99408,-0.13707 0.0253,-0.16584 0.0758,-0.42973 0.15107,-0.79163 0.0757,-0.36192 0.15732,-0.76152 0.24544,-1.19883 l 0.30177,-1.31197 c 0.10058,-0.4373 0.18861,-0.81432 0.26407,-1.13101 0.0627,-0.2262 0.14466,-0.59566 0.24527,-1.10835 0.1007,-0.52776 0.20773,-1.07063 0.321,-1.62855 0.11327,-0.55796 0.21394,-1.07064 0.30209,-1.5381 0.10064,-0.48252 0.1636,-0.79167 0.18879,-0.92739 0.13831,-0.63334 0.29544,-1.22148 0.47116,-1.76443 0.17579,-0.55803 0.3702,-1.03317 0.58327,-1.42543 0.22555,-0.39227 0.46977,-0.70165 0.7326,-0.92815 0.26284,-0.2265 0.53803,-0.33998 0.82558,-0.34039 0.67511,-9.7e-4 1.16244,0.20185 1.4619,0.60844 0.29955,0.39155 0.44876,0.99433 0.44767,1.80836 -5.1e-4,0.37689 -0.0386,0.79904 -0.11423,1.26648 -0.0758,0.46743 -0.18252,0.95752 -0.32078,1.47025 -0.27646,1.05566 -0.49015,1.93784 -0.64116,2.64658 -0.1384,0.70875 -0.25181,1.33452 -0.34004,1.87733 -0.0882,0.52777 -0.15766,1.0178 -0.20825,1.47013 -0.0506,0.4523 -0.12008,0.9499 -0.20831,1.49272 -0.0132,0.0603 -0.0255,0.18094 -0.038,0.36185 l -4.9e-4,0.36181 c 1.07517,-0.002 2.12542,-0.0709 3.15076,-0.20803 1.03785,-0.13711 2.08818,-0.26681 3.15097,-0.38892 0.60022,-0.0762 1.12542,-0.15988 1.57561,-0.25098 0.46267,-0.0912 0.88785,-0.17461 1.27553,-0.25059 0.38767,-0.0759 0.7628,-0.13671 1.12544,-0.1825 0.37513,-0.0608 0.77522,-0.0917 1.20027,-0.0923 0.15004,-2.2e-4 0.30628,0.0221 0.46878,0.0672 0.16245,0.0299 0.30612,0.0974 0.43102,0.2029 0.13732,0.0903 0.24972,0.23327 0.33696,0.42914 0.0873,0.18079 0.13061,0.42193 0.13021,0.72343 z m 4.70656,-13.66469 c -6.7e-4,0.49748 -0.0638,0.97241 -0.18945,1.42487 -0.12565,0.43734 -0.30743,0.85216 -0.54549,1.24446 -0.47616,0.79964 -1.20805,1.20016 -2.1957,1.20158 -0.35004,5e-4 -0.70632,-0.0367 -1.06878,-0.11157 -0.36244,-0.0748 -0.68735,-0.17992 -0.97473,-0.31518 -0.28735,-0.13524 -0.52465,-0.30829 -0.71189,-0.51906 -0.18725,-0.2108 -0.28068,-0.45186 -0.28032,-0.72319 6.3e-4,-0.46735 0.10126,-0.95743 0.30202,-1.47026 0.20072,-0.52792 0.45769,-1.01067 0.77081,-1.44832 0.32564,-0.4527 0.67621,-0.82254 1.05164,-1.10951 0.38796,-0.30205 0.75699,-0.45335 1.10704,-0.45385 0.43756,-6.3e-4 0.82506,0.0366 1.16251,0.11145 0.33748,0.0598 0.61863,0.17248 0.84344,0.33798 0.23731,0.16546 0.41827,0.39889 0.54287,0.7002 0.12466,0.30133 0.18663,0.67811 0.18603,1.13036 z m 11.63935,18.59341 c -4.6e-4,0.34675 -0.11359,0.79159 -0.33937,1.33464 -0.21322,0.5279 -0.51407,1.12382 -0.90252,1.78767 -0.37594,0.64878 -0.82696,1.35041 -1.35304,2.10492 -0.52607,0.73941 -1.09592,1.5015 -1.70958,2.28631 -0.66373,0.86022 -1.38373,1.70546 -2.15997,2.53568 -0.77623,0.83024 -1.60244,1.6304 -2.47861,2.40048 -0.86364,0.755 -1.71457,1.34413 -2.55276,1.76745 -0.83817,0.40821 -1.63232,0.61287 -2.38245,0.61394 -0.8751,0.001 -1.63749,-0.17104 -2.28713,-0.51683 -0.63711,-0.36091 -1.18657,-0.8425 -1.64832,-1.44483 -0.44925,-0.61742 -0.8171,-1.31788 -1.10358,-2.10138 -0.28651,-0.79858 -0.51666,-1.63492 -0.69051,-2.50899 -0.16133,-0.88921 -0.27264,-1.786 -0.33395,-2.69043 -0.0613,-0.90439 -0.0913,-1.76364 -0.0902,-2.5777 4.2e-4,-0.31656 0.0197,-0.79144 0.0582,-1.42467 0.0384,-0.63319 0.0892,-1.29657 0.15269,-1.99011 0.0761,-0.70862 0.15185,-1.38712 0.22777,-2.03545 0.0882,-0.66345 0.17658,-1.18366 0.26461,-1.56064 0.18852,-0.73894 0.62079,-1.44057 1.29676,-2.10482 0.65096,-0.63411 1.37651,-0.95169 2.17663,-0.95284 0.81262,-0.001 1.21814,0.58619 1.21657,1.76202 -7.5e-4,0.55778 -0.0452,1.1533 -0.13358,1.78661 -0.076,0.61815 -0.16416,1.22882 -0.26501,1.83197 -0.164,1.10071 -0.27785,2.0958 -0.34154,2.98533 -0.0637,0.87444 -0.0959,1.65086 -0.0968,2.32922 -10e-4,0.76883 0.0353,1.51501 0.10952,2.23849 0.074,0.7235 0.17942,1.37157 0.31618,1.94422 0.14928,0.55757 0.32994,1.00957 0.54202,1.35599 0.22455,0.34639 0.48684,0.51938 0.78692,0.51895 0.37505,-5.4e-4 0.76268,-0.0388 1.16283,-0.11479 0.40022,-0.0911 0.88181,-0.31778 1.44491,-0.68044 1.07609,-0.71008 2.22132,-1.66898 3.43562,-2.87671 0.4256,-0.42271 0.90762,-0.92087 1.44597,-1.49448 0.55086,-0.58873 1.09551,-1.18496 1.63388,-1.78873 0.53841,-0.61886 1.04555,-1.22259 1.52143,-1.8112 0.47587,-0.5886 0.85159,-1.09415 1.12721,-1.51664 0.0377,-0.0754 0.0878,-0.16592 0.15039,-0.27157 0.0754,-0.12062 0.15658,-0.24143 0.24425,-0.36215 0.0877,-0.12075 0.18158,-0.21885 0.28171,-0.29436 0.11264,-0.0906 0.21897,-0.13595 0.31899,-0.13609 0.2,-2.9e-4 0.34376,0.0372 0.43113,0.11249 0.0999,0.0601 0.20596,0.26354 0.31802,0.6101 0.13695,0.37667 0.20532,0.69313 0.20498,0.94943 z m 21.09848,-1.13822 c -4.1e-4,0.30151 -0.0383,0.56537 -0.11359,0.79161 -0.0628,0.21112 -0.16936,0.42986 -0.31968,0.6562 -0.13772,0.21125 -0.31939,0.44516 -0.54478,0.70177 -0.22539,0.2566 -0.50085,0.58111 -0.82641,0.97353 l -1.65294,1.99226 c -0.35064,0.42262 -0.65737,0.77732 -0.92029,1.06412 -0.26293,0.2868 -0.51962,0.55853 -0.77,0.81514 -0.23786,0.24155 -0.48824,0.49819 -0.75116,0.76991 -0.26287,0.25666 -0.58207,0.57368 -0.95762,0.95111 -0.81376,0.83028 -1.61491,1.60779 -2.4035,2.33251 -0.78863,0.72473 -1.55837,1.37406 -2.30923,1.94798 -1.12635,0.86089 -2.33366,1.52593 -3.622,1.9951 -1.28829,0.46919 -2.65134,0.70479 -4.08907,0.70685 -0.93765,0.001 -1.76873,-0.20099 -2.49331,-0.60697 -0.72456,-0.42107 -1.33639,-0.97796 -1.83552,-1.67071 -0.49915,-0.70781 -0.87937,-1.52884 -1.14064,-2.46311 -0.24877,-0.94938 -0.37247,-1.94415 -0.37107,-2.98432 0.003,-1.97484 0.34912,-3.9577 1.0394,-5.9486 0.6903,-2.00593 1.63681,-3.97459 2.83962,-5.90593 0.30068,-0.48282 0.65141,-0.98835 1.05218,-1.51654 0.41328,-0.52823 0.84523,-1.00369 1.29587,-1.42643 0.45066,-0.43783 0.9137,-0.79276 1.38912,-1.0648 0.47547,-0.28708 0.93824,-0.43096 1.38832,-0.43161 0.30002,-4.3e-4 0.58742,0.10465 0.86219,0.31534 0.28728,0.19554 0.56195,0.46653 0.82405,0.81285 0.27458,0.34634 0.53031,0.75302 0.76722,1.22 0.23693,0.45191 0.45507,0.94152 0.65437,1.46887 0.39863,1.05468 0.59765,1.82322 0.597,2.30562 -3.4e-4,0.25629 -0.0258,0.57288 -0.0763,0.94984 -0.0381,0.36187 -0.11975,0.7087 -0.24519,1.04054 -0.11297,0.3318 -0.26964,0.61845 -0.46998,0.85994 -0.20034,0.22639 -0.45677,0.33984 -0.76931,0.34029 -0.46259,6.6e-4 -0.84366,-0.17217 -1.14325,-0.51844 -0.29955,-0.36139 -0.54903,-0.77558 -0.74843,-1.24263 -0.19943,-0.46705 -0.36132,-0.92659 -0.48574,-1.37868 -0.11191,-0.45208 -0.21776,-0.77604 -0.31749,-0.97187 -0.30025,0.13607 -0.61937,0.40035 -0.95746,0.7928 -0.32556,0.39243 -0.65128,0.87529 -0.97708,1.44861 -0.32582,0.5733 -0.633,1.22198 -0.92154,1.94598 -0.28848,0.70895 -0.54578,1.47062 -0.77192,2.285 -0.21359,0.79926 -0.38973,1.6211 -0.52839,2.4655 -0.12619,0.84436 -0.18977,1.68114 -0.19088,2.51025 -0.001,0.76883 0.22934,1.43935 0.69116,2.01154 0.52422,0.63238 1.01139,0.94826 1.46146,0.94762 1.42519,-0.002 2.79458,-0.32059 4.10813,-0.9556 1.32607,-0.63503 2.60238,-1.48109 3.82901,-2.5381 0.82608,-0.70971 1.68976,-1.50238 2.59108,-2.37802 0.90133,-0.89072 1.89041,-1.95492 2.96725,-3.19262 0.38818,-0.45277 0.7763,-0.88299 1.16441,-1.29056 0.40062,-0.42267 0.7887,-0.79256 1.16416,-1.10968 0.38797,-0.31715 0.75088,-0.57392 1.08872,-0.77039 0.35031,-0.19645 0.67547,-0.29494 0.9755,-0.29537 0.65014,-9.3e-4 0.97462,0.41318 0.97351,1.2423 z m 6.34049,-1.5015 c 10e-4,-0.90451 -0.0667,-1.55264 -0.20367,-1.94438 -0.12452,-0.40686 -0.27421,-0.61015 -0.44924,-0.6099 -0.22505,3.3e-4 -0.46892,0.0685 -0.73162,0.20455 -0.2502,0.12087 -0.49422,0.28715 -0.73206,0.49852 -0.2378,0.19632 -0.4631,0.41524 -0.67599,0.65672 -0.20033,0.24151 -0.36941,0.47541 -0.50726,0.70173 -0.25064,0.43753 -0.53259,0.9354 -0.84588,1.49363 -0.31332,0.55823 -0.63287,1.15415 -0.9588,1.78776 -0.32588,0.63363 -0.64556,1.28232 -0.959,1.94607 -0.30093,0.66372 -0.57061,1.31988 -0.80903,1.96846 -0.23839,0.64854 -0.43301,1.27444 -0.58384,1.87765 -0.15081,0.60322 -0.22658,1.14604 -0.22723,1.62844 -6.9e-4,0.51255 0.0613,0.92702 0.18588,1.2434 0.12466,0.30133 0.34944,0.45176 0.67449,0.45129 0.17502,-2.5e-4 0.43777,-0.15138 0.78821,-0.45338 0.36296,-0.30202 0.75105,-0.67944 1.16422,-1.13228 0.42568,-0.46794 0.84518,-0.97354 1.25849,-1.51684 0.4133,-0.5433 0.7578,-1.06388 1.03349,-1.56173 0.30079,-0.54314 0.6016,-1.12396 0.90245,-1.74248 0.3009,-0.6185 0.57678,-1.24451 0.82765,-1.87801 0.25092,-0.63354 0.45178,-1.25942 0.60264,-1.87771 0.16335,-0.61829 0.24537,-1.19881 0.2461,-1.74151 z m 11.23872,9.68466 c -3.6e-4,0.27135 -0.0445,0.58797 -0.13246,0.94991 -0.0879,0.34686 -0.23845,0.70134 -0.45149,1.06345 -0.23817,0.48273 -0.55139,0.98066 -0.93963,1.49375 -0.38825,0.49807 -0.83268,0.95847 -1.33332,1.3813 -0.48813,0.4228 -1.02617,0.7703 -1.61414,1.04249 -0.57544,0.25709 -1.18198,0.38609 -1.81956,0.387 -0.7251,0.001 -1.36869,-0.17893 -1.93083,-0.53994 -0.56211,-0.36099 -1.049,-0.85022 -1.46072,-1.4677 -0.41174,-0.63258 -0.74208,-1.3557 -0.99101,-2.1694 -0.24894,-0.82877 -0.41653,-1.69535 -0.50284,-2.59972 -0.52634,0.9354 -1.12763,1.83325 -1.80389,2.69347 -0.66372,0.84515 -1.36485,1.59993 -2.10337,2.26429 -0.72597,0.64926 -1.46428,1.1704 -2.21493,1.56342 -0.7506,0.37795 -1.46347,0.56742 -2.13858,0.56839 -0.48757,7e-4 -0.94999,-0.1268 -1.3872,-0.38246 -0.43721,-0.2707 -0.82427,-0.63194 -1.16121,-1.08372 -0.32444,-0.45179 -0.58627,-0.97151 -0.78555,-1.55913 -0.19923,-0.58765 -0.29842,-1.20556 -0.29755,-1.85382 7.7e-4,-0.57284 0.0389,-1.17589 0.11496,-1.80916 0.0882,-0.64833 0.22681,-1.34199 0.41534,-2.08094 0.18853,-0.73894 0.43338,-1.54581 0.73462,-2.42058 0.3137,-0.87483 0.69632,-1.83263 1.14777,-2.87344 0.50162,-1.16148 1.10947,-2.26286 1.82346,-3.30405 0.71403,-1.05627 1.44036,-1.97688 2.17904,-2.76182 0.73869,-0.80005 1.45214,-1.43422 2.14039,-1.90254 0.68823,-0.46833 1.25112,-0.70278 1.68869,-0.70341 0.1376,-1.9e-4 0.28752,0.0297 0.44996,0.0899 0.17495,0.045 0.33739,0.10513 0.4873,0.18018 0.14995,0.06 0.28116,0.12036 0.39357,0.18034 0.11245,0.0601 0.18744,0.0902 0.22493,0.0902 0.0131,-2e-5 0.0561,-0.0302 0.1313,-0.0907 0.0753,-0.0604 0.1689,-0.12075 0.28153,-0.18131 0.11262,-0.0755 0.23147,-0.13597 0.35656,-0.18139 0.13768,-0.0605 0.27515,-0.091 0.41268,-0.0912 0.21252,-3e-4 0.43748,0.0747 0.67478,0.22516 0.24989,0.13529 0.48714,0.32342 0.71187,0.56431 0.22472,0.22581 0.42441,0.48178 0.59907,0.76796 0.17464,0.28617 0.28677,0.57245 0.33637,0.85879 0.0374,0.18087 0.0684,0.30895 0.0933,0.38428 0.0249,0.0602 0.0498,0.11305 0.075,0.15816 0.16231,0.18069 0.29327,0.38401 0.39301,0.60999 0.0997,0.2109 0.14934,0.51234 0.14881,0.90431 -2.4e-4,0.18089 -0.0444,0.51259 -0.13252,0.99515 -0.0758,0.46741 -0.17009,1.0027 -0.28343,1.60587 -0.1008,0.60315 -0.19546,1.23644 -0.28385,1.89987 -0.0761,0.64834 -0.1142,1.24383 -0.11493,1.78654 -0.002,1.40197 0.0654,2.58529 0.20154,3.54988 0.14874,0.94951 0.3352,1.71806 0.55947,2.30568 0.22423,0.58759 0.47998,1.00933 0.76716,1.26519 0.28721,0.24077 0.57461,0.36097 0.86214,0.36056 0.76263,-0.001 1.41299,-0.19045 1.95106,-0.56809 0.55062,-0.37767 1.03262,-0.89093 1.44605,-1.53973 0.11274,-0.16599 0.20671,-0.30933 0.28186,-0.43004 0.0877,-0.13576 0.16913,-0.24897 0.24425,-0.33952 0.0876,-0.0907 0.18148,-0.15852 0.28157,-0.20393 0.11259,-0.0455 0.24386,-0.0683 0.39388,-0.0685 0.18755,-2.7e-4 0.38119,0.0974 0.58101,0.29312 0.19972,0.18061 0.29942,0.42169 0.29901,0.72319 z"
         id="path5"
         sodipodi:nodetypes="cccsccsscccscscscscscccsccccssccccccssscccsscccscccccccccccccscccscssscssscccccscccccscscccsccccccccscccccsccscscsscccccscccscsccscccccccscsscccsscccssccsccscccccccccccccscccsccsscscscccccccccscccccsssscccsccscsccccscscscsscscsscscccccscccscccccscccccsccccccscccccsscsccssccscscscccscccccscccccssccccsccccccsccssccsccccccsssscscccsscsssccccssscssccccscsccccssscssccssccccccccsccccscccscccccccscccscccccccssscsscsccsccccscccccccscccccsscccsscccscscsscccccsccccscccsccccccccscsccccccsscscccsssssccccsscccscccssccccccccsccccccscccsssccssccccsccsccccccccccsssscccccccccscccscccccccscsscccssccssscssscccsccssssccscccccccscsccccsccscscscccscscccccccccssccccsccccccsccsccccsscsscccsccccccscscccccsccssssscccsccssscccccsccsccccsssccccsscccssccscccccsccscsccccsccsssscccsssscccscscccscccsscccscscccscccscscccccccsssscsccccsscssscsccsssscsscccccssccccccsccsscsccccssccsssccsccsccccscccscscscccccscss" />
      <path
         style="fill:#63d58d;fill-opacity:1;stroke-width:0.578035"
         d=""
         id="path11" />
      <text
         xml:space="preserve"
         style="font-style:normal;font-variant:normal;font-weight:normal;font-stretch:normal;font-size:93.0958px;font-family:Candara;-inkscape-font-specification:Candara;opacity:1;fill:#dcdcdc;fill-opacity:1;stroke:none;stroke-width:8.84122;stroke-dasharray:none;stroke-opacity:1;paint-order:stroke fill markers"
         x="3.8563917"
         y="100.382"
         id="text19"
         transform="scale(0.98587001,1.0143325)"
         inkscape:transform-center-x="-18.869351"
         inkscape:transform-center-y="-88.642764"><tspan
           id="tspan19"
           x="3.8563917"
           y="100.382"
           style="font-style:normal;font-variant:normal;font-weight:normal;font-stretch:normal;font-size:93.0958px;font-family:'Ink Free';-inkscape-font-specification:'Ink Free';writing-mode:lr-tb;fill:#dcdcdc;fill-opacity:1;stroke:none;stroke-width:8.84122;stroke-dasharray:none"
           sodipodi:role="line" /></text>
    </g>
    <text
       xml:space="preserve"
       style="font-style:normal;font-variant:normal;font-weight:normal;font-stretch:normal;font-size:121.346px;font-family:'Ink Free';-inkscape-font-specification:'Ink Free';writing-mode:lr-tb;opacity:1;fill:#f5ded7;fill-opacity:1;stroke:#121212;stroke-width:4.8609;stroke-dasharray:none;stroke-opacity:1;paint-order:stroke fill markers"
       x="151.75339"
       y="152.98119"
       id="text422"
       transform="scale(1.1167164,0.89548251)"><tspan
         sodipodi:role="line"
         id="tspan422"
         x="151.75339"
         y="152.98119"
         style="fill:#f5ded7;fill-opacity:1;stroke-width:4.8609">i</tspan></text>
    <text
       xml:space="preserve"
       style="font-style:normal;font-variant:normal;font-weight:normal;font-stretch:normal;font-size:72.9664px;font-family:'Ink Free';-inkscape-font-specification:'Ink Free';writing-mode:lr-tb;opacity:1;fill:#f5ded7;fill-opacity:1;stroke:#121212;stroke-width:2.92289;stroke-dasharray:none;stroke-opacity:1;paint-order:stroke fill markers"
       x="68.648384"
       y="146.47113"
       id="text419"
       transform="scale(1.0236699,0.9768774)"><tspan
         sodipodi:role="line"
         id="tspan419"
         x="68.648384"
         y="146.47113"
         style="stroke-width:2.92289">e</tspan></text>
    <text
       xml:space="preserve"
       style="font-style:normal;font-variant:normal;font-weight:normal;font-stretch:normal;font-size:91.6835px;font-family:Candara;-inkscape-font-specification:Candara;opacity:1;fill:#f5ded7;fill-opacity:1;stroke:#121212;stroke-width:3.67267;stroke-dasharray:none;stroke-opacity:1;paint-order:stroke fill markers"
       x="32.157444"
       y="141.53165"
       id="text367"
       transform="scale(1.0006008,0.99939957)"
       inkscape:transform-center-x="-0.64463323"
       inkscape:transform-center-y="-4.0036965"><tspan
         id="tspan367"
         x="32.157444"
         y="141.53165"
         style="font-style:normal;font-variant:normal;font-weight:normal;font-stretch:normal;font-size:91.6835px;font-family:'Ink Free';-inkscape-font-specification:'Ink Free';writing-mode:lr-tb;fill:#f5ded7;fill-opacity:1;stroke:#121212;stroke-width:3.67267;stroke-dasharray:none;stroke-opacity:1"
         sodipodi:role="line">V</tspan></text>
    <text
       xml:space="preserve"
       style="font-style:normal;font-variant:normal;font-weight:normal;font-stretch:normal;font-size:91.4095px;font-family:'Ink Free';-inkscape-font-specification:'Ink Free';writing-mode:lr-tb;opacity:1;fill:#f5ded7;fill-opacity:1;stroke:#121212;stroke-width:3.66169;stroke-dasharray:none;stroke-opacity:1;paint-order:stroke fill markers"
       x="169.13748"
       y="146.07628"
       id="text423"
       transform="scale(1.0456845,0.95631138)"><tspan
         sodipodi:role="line"
         id="tspan423"
         x="169.13748"
         y="146.07628"
         style="fill:#f5ded7;fill-opacity:1;stroke-width:3.66169">N</tspan></text>
    <text
       xml:space="preserve"
       style="font-style:normal;font-variant:normal;font-weight:normal;font-stretch:normal;font-size:72.9664px;font-family:'Ink Free';-inkscape-font-specification:'Ink Free';writing-mode:lr-tb;opacity:1;fill:#f5ded7;fill-opacity:1;stroke:#121212;stroke-width:2.92289;stroke-dasharray:none;stroke-opacity:1;paint-order:stroke fill markers"
       x="131.11234"
       y="137.06215"
       id="text421"
       transform="scale(1.0236699,0.9768774)"><tspan
         sodipodi:role="line"
         id="tspan421"
         x="131.11234"
         y="137.06215"
         style="stroke-width:2.92289">R</tspan></text>
    <text
       xml:space="preserve"
       style="font-style:normal;font-variant:normal;font-weight:normal;font-stretch:normal;font-size:106.979px;font-family:'Ink Free';-inkscape-font-specification:'Ink Free';writing-mode:lr-tb;opacity:1;fill:#f5ded7;fill-opacity:1;stroke:#121212;stroke-width:4.28539;stroke-dasharray:none;stroke-opacity:1;paint-order:stroke fill markers"
       x="107.49326"
       y="122.56388"
       id="text420"
       transform="scale(0.88844609,1.1255607)"><tspan
         sodipodi:role="line"
         id="tspan420"
         x="107.49326"
         y="122.56388"
         style="fill:#f5ded7;fill-opacity:1;stroke-width:4.28539">t</tspan></text>
    <text
       xml:space="preserve"
       style="font-style:normal;font-variant:normal;font-weight:normal;font-stretch:normal;font-size:72.9664px;font-family:'Ink Free';-inkscape-font-specification:'Ink Free';writing-mode:lr-tb;opacity:1;fill:#f5ded7;fill-opacity:1;stroke:#121212;stroke-width:2.92289;stroke-dasharray:none;stroke-opacity:1;paint-order:stroke fill markers"
       x="218.83212"
       y="134.66559"
       id="text424"
       transform="scale(1.0236699,0.9768774)"><tspan
         sodipodi:role="line"
         id="tspan424"
         x="218.83212"
         y="134.66559"
         style="stroke-width:2.92289">A</tspan></text>
  </g>
</svg>
