<?xml version="1.0" encoding="UTF-8" standalone="no"?>
<!-- Created with Inkscape (http://www.inkscape.org/) -->

<svg
   width="299.72046"
   height="251.90863"
   viewBox="0 0 299.72046 251.90863"
   version="1.1"
   id="svg1"
   inkscape:export-filename="ottima.svg"
   inkscape:export-xdpi="96"
   inkscape:export-ydpi="96"
   sodipodi:docname="Senzanome.svg"
   inkscape:version="1.3 (0e150ed6c4, 2023-07-21)"
   xmlns:inkscape="http://www.inkscape.org/namespaces/inkscape"
   xmlns:sodipodi="http://sodipodi.sourceforge.net/DTD/sodipodi-0.dtd"
   xmlns:xlink="http://www.w3.org/1999/xlink"
   xmlns="http://www.w3.org/2000/svg"
   xmlns:svg="http://www.w3.org/2000/svg">
  <sodipodi:namedview
     id="namedview1"
     pagecolor="#ffffff"
     bordercolor="#000000"
     borderopacity="0.25"
     inkscape:showpageshadow="2"
     inkscape:pageopacity="0.0"
     inkscape:pagecheckerboard="0"
     inkscape:deskcolor="#d1d1d1"
     inkscape:document-units="px"
     inkscape:zoom="0.865"
     inkscape:cx="-18.49711"
     inkscape:cy="156.6474"
     inkscape:window-width="1366"
     inkscape:window-height="715"
     inkscape:window-x="-8"
     inkscape:window-y="-8"
     inkscape:window-maximized="1"
     inkscape:current-layer="layer1" />
  <defs
     id="defs1">
    <linearGradient
       id="linearGradient425"
       inkscape:collect="always">
      <stop
         style="stop-color:#a87768;stop-opacity:1;"
         offset="0"
         id="stop426" />
      <stop
         style="stop-color:#a87768;stop-opacity:0;"
         offset="1"
         id="stop427" />
    </linearGradient>
    <linearGradient
       id="linearGradient424"
       inkscape:collect="always">
      <stop
         style="stop-color:#a87768;stop-opacity:1;"
         offset="0"
         id="stop424" />
      <stop
         style="stop-color:#a87768;stop-opacity:0;"
         offset="1"
         id="stop425" />
    </linearGradient>
    <linearGradient
       id="swatch20"
       inkscape:swatch="solid">
      <stop
         style="stop-color:#31ac03;stop-opacity:1;"
         offset="0"
         id="stop20" />
    </linearGradient>
    <radialGradient
       inkscape:collect="always"
       xlink:href="#linearGradient424"
       id="radialGradient425"
       cx="151.26601"
       cy="117.6582"
       fx="151.26601"
       fy="117.6582"
       r="149.67349"
       gradientTransform="matrix(0.92505225,9.5351314e-5,-0.03461733,0.64550393,77.645396,49.171141)"
       gradientUnits="userSpaceOnUse" />
    <radialGradient
       inkscape:collect="always"
       xlink:href="#linearGradient425"
       id="radialGradient427"
       cx="154.08809"
       cy="117.77065"
       fx="154.08809"
       fy="117.77065"
       r="149.6516"
       gradientTransform="matrix(0.94322268,0.03845517,0.02779673,-0.62942864,10.666045,190.92478)"
       gradientUnits="userSpaceOnUse" />
  </defs>
  <g
     inkscape:label="Livello 1"
     inkscape:groupmode="layer"
     id="layer1"
     transform="translate(-0.08989558,40.186771)">
    <g
       id="text1"
       style="font-size:29.3333px;font-family:'Courier New';-inkscape-font-specification:'Courier New';fill:#171717"
       aria-label="Vetrina&#10;&#10;informatica"
       transform="matrix(0.88342876,-0.02000942,0.01871948,0.94430457,-16.230179,-59.985251)"
       inkscape:transform-center-x="-6.8572568"
       inkscape:transform-center-y="-10.665284">
      <path
         style="font-size:29.3333px;font-family:'Courier New';-inkscape-font-specification:'Courier New';fill:url(#radialGradient425);stroke-width:5.95837"
         d="M 69.921561,220.66606 C 349.53217,171.74788 357.13848,28.533818 357.13848,28.533818 l -10.7824,193.229632 z"
         id="path7"
         sodipodi:nodetypes="cccc"
         inkscape:transform-center-x="-0.66897385"
         inkscape:transform-center-y="-1.9677132" />
      <path
         style="font-size:29.3333px;font-family:'Courier New';-inkscape-font-specification:'Courier New';fill:url(#radialGradient427);stroke-width:5.92635"
         d="M 296.274,222.67193 C 15.906514,161.26652 22.795261,22.79302 22.795261,22.79302 l -8.764156,186.85986 z"
         id="path14"
         sodipodi:nodetypes="cccc"
         inkscape:transform-center-x="5.4568665"
         inkscape:transform-center-y="11.371485" />
      <path
         style="font-size:29.3333px;font-family:'Courier New';-inkscape-font-specification:'Segoe Script Bold';fill:#4a4a2e;fill-opacity:1;stroke:#e3e35f;stroke-width:1.19195;stroke-dasharray:none;stroke-opacity:1"
         d="m 79.165714,202.54636 c 0,0 -0.04692,0.20074 -0.160124,0.53807 -0.156557,0.26561 -0.238793,0.36208 -0.44943,0.65104 -0.453741,0.53479 -1.293501,0.76271 -2.195233,0.73624 -0.308177,-0.008 -0.62784,-0.0411 -0.958992,-0.0964 -0.331178,-0.0665 -0.633891,-0.15485 -0.908112,-0.26513 -0.262859,-0.12122 -0.480129,-0.26387 -0.651791,-0.42789 -0.171678,-0.16401 -0.257808,-0.34822 -0.258397,-0.55262 -0.0011,-0.35204 0.08921,-0.71842 0.270747,-1.09914 0.192894,-0.39174 0.431545,-0.7481 0.715967,-1.06903 0.284361,-0.33231 0.59745,-0.60131 0.939262,-0.80703 0.353183,-0.21672 0.689582,-0.32039 1.009179,-0.31098 0.399497,0.0119 0.753417,0.0505 1.061776,0.11641 0.308323,0.0543 0.57109,0.14734 0.788324,0.27862 0.217224,0.13131 0.52983,0.17977 0.633219,0.4099 0.114841,0.23048 0.361441,0.44231 0.300385,0.89164 z m 6.574929,19.04569 c -0.375557,0.36367 -0.734095,0.70511 -1.075589,1.02439 -0.330056,0.3196 -0.665889,0.622 -1.007451,0.90719 -0.341595,0.28519 -0.688893,0.56457 -1.041906,0.83807 -0.341622,0.27381 -0.706047,0.54701 -1.093321,0.81949 -0.785938,0.54465 -1.560855,0.96475 -2.324685,1.26023 -0.76387,0.28417 -1.488234,0.41619 -2.173086,0.39608 -0.799002,-0.0239 -1.49566,-0.17452 -2.089949,-0.45312 -0.582917,-0.28966 -1.086171,-0.66778 -1.509813,-1.1344 -0.412271,-0.47765 -0.75052,-1.01557 -1.014728,-1.6138 -0.264271,-0.60957 -0.477253,-1.24603 -0.63895,-1.90933 -0.150314,-0.67435 -0.254995,-1.35304 -0.314022,-2.03607 -0.05903,-0.68301 -0.08939,-1.33114 -0.09116,-1.94436 -7.06e-4,-0.23846 0.01548,-0.57863 0.04843,-1.0205 0.0329,-0.45323 0.07731,-0.92314 0.132896,-1.40978 0.06709,-0.49765 0.134157,-0.97825 0.201281,-1.44184 0.07863,-0.46321 0.157379,-0.83562 0.236474,-1.11718 0.09043,-0.29255 0.232336,-0.56659 0.425609,-0.82208 0.204688,-0.2665 0.455083,-0.50897 0.75119,-0.72737 0.592163,-0.45948 1.253506,-0.67852 1.984034,-0.6571 0.741917,0.0219 1.114159,0.47558 1.116712,1.36133 8.28e-4,0.3066 -0.03226,0.66898 -0.09959,1.08714 -0.06732,0.41815 -0.12878,0.84216 -0.184661,1.27201 -0.06704,0.50899 -0.128418,0.96705 -0.184341,1.37417 -0.05594,0.3958 -0.106274,0.75767 -0.150946,1.08564 -0.0333,0.31696 -0.06105,0.60569 -0.08306,0.86621 -0.02213,0.26051 -0.03274,0.51002 -0.03205,0.74848 0.0011,0.4315 0.03125,0.91498 0.08972,1.45037 0.07008,0.53576 0.168489,1.03824 0.295375,1.50751 0.126942,0.45795 0.282082,0.84856 0.465633,1.17187 0.183494,0.31198 0.395115,0.47147 0.634816,0.47851 0.35384,0.011 0.753219,-0.0176 1.198133,-0.084 0.444908,-0.0777 0.918053,-0.25124 1.419471,-0.52039 0.478606,-0.25848 0.974206,-0.56184 1.486804,-0.91013 0.523991,-0.34799 1.05927,-0.75239 1.605748,-1.21325 0.512388,-0.42778 1.01334,-0.85592 1.502891,-1.28437 0.50094,-0.42813 1.001783,-0.896 1.502493,-1.40362 0.227611,-0.23178 0.432461,-0.44152 0.614525,-0.62921 0.193477,-0.18734 0.369874,-0.36383 0.529201,-0.52948 0.159277,-0.177 0.312851,-0.34279 0.46079,-0.49743 0.159316,-0.16564 0.324306,-0.33681 0.494996,-0.51347 0.04556,-0.0555 0.102173,-0.11618 0.170683,-0.18232 0.06835,-0.0775 0.142229,-0.14913 0.221938,-0.2149 0.0799,-0.0771 0.165094,-0.1371 0.256268,-0.17986 0.09107,-0.0543 0.182379,-0.0798 0.273727,-0.0772 0.125521,0.004 0.256872,0.036 0.394015,0.0967 0.148558,0.0611 0.263008,0.17805 0.343397,0.35075 0.08046,0.16134 0.126442,0.32166 0.138362,0.48097 0.01297,0.14799 0.01743,0.27303 0.01789,0.37524 6.68e-4,0.11359 -0.06206,0.29909 -0.186712,0.55658 -0.124823,0.24614 -0.289496,0.53652 -0.493952,0.87118 -0.20449,0.33464 -0.443142,0.69098 -0.71597,1.06904 -0.272816,0.37804 -0.551372,0.75593 -0.8356,1.13365 -0.284264,0.3777 -0.574231,0.7382 -0.869999,1.08155 -0.284379,0.33229 -0.551768,0.61965 -0.802178,0.86212 z m 31.089627,-6.01917 c -2.7e-4,0.21574 -0.0386,0.45305 -0.11758,0.7119 -0.0791,0.24747 -0.18117,0.4943 -0.306,0.74042 -0.1134,0.2465 -0.24402,0.48109 -0.39173,0.70386 -0.13632,0.21174 -0.2671,0.38956 -0.3922,0.53351 -0.36397,0.4435 -0.77348,0.91405 -1.22861,1.41166 -0.44367,0.49794 -0.9102,0.98954 -1.39957,1.47477 -0.48938,0.48524 -0.99022,0.95315 -1.50251,1.40361 -0.51233,0.43916 -1.02482,0.82152 -1.53751,1.14713 -0.39872,0.26081 -0.78606,0.50492 -1.16203,0.73233 -0.3646,0.21638 -0.74638,0.40956 -1.14535,0.57952 -0.38756,0.17028 -0.80378,0.29998 -1.24866,0.38912 -0.43343,0.0895 -0.91269,0.12651 -1.43776,0.11113 -0.85605,-0.0255 -1.56994,-0.2164 -2.14165,-0.57388 -0.56026,-0.35705 -1.01815,-0.82471 -1.3736,-1.4029 -0.3555,-0.57817 -0.6313,-1.23347 -0.82746,-1.96596 -0.18475,-0.74349 -0.32962,-1.51419 -0.43463,-2.31214 -0.15154,-1.08314 -0.319432,-1.93969 -0.503909,-2.56961 -0.184441,-0.64131 -0.407941,-0.96579 -0.670473,-0.97349 -0.228291,-0.006 -0.450699,0.0435 -0.667263,0.15071 -0.216557,0.0957 -0.489857,0.31488 -0.81985,0.65721 -0.318581,0.34265 -0.72803,0.84728 -1.228267,1.51389 -0.488861,0.65556 -1.1312,1.53373 -1.926968,2.6345 -0.272828,0.37802 -0.608321,0.79967 -1.006443,1.26489 -0.386687,0.46554 -0.79628,0.9134 -1.228731,1.34353 -0.432514,0.41879 -0.865143,0.79215 -1.297914,1.12009 -0.421371,0.3169 -0.814529,0.53247 -1.17938,0.64665 -1.43915,-0.36019 -2.162185,-1.74971 -2.169176,-4.16848 -0.0014,-0.61318 0.06413,-1.51397 0.197671,-2.70232 0.06706,-0.53172 0.139521,-1.09165 0.217706,-1.67978 0.08963,-0.58786 0.196346,-1.17516 0.320217,-1.76196 0.135175,-0.59784 0.293325,-1.17799 0.474337,-1.7404 0.180947,-0.57378 0.39058,-1.1013 0.628885,-1.58257 0.136137,-0.2685 0.289675,-0.47976 0.460417,-0.6337 0.170754,-0.15395 0.341607,-0.26816 0.512604,-0.34261 0.182386,-0.0742 0.370574,-0.11972 0.564562,-0.13674 0.193966,-0.0171 0.387982,-0.0226 0.582034,-0.017 0.171229,0.005 0.336854,0.0554 0.496914,0.15083 0.160021,0.0841 0.303046,0.20759 0.429049,0.37026 0.126061,0.16269 0.223609,0.35859 0.292753,0.58771 0.08058,0.22946 0.121038,0.4918 0.121885,0.78707 5.71e-4,0.26115 -0.02151,0.51032 -0.06647,0.74747 -0.04483,0.23711 -0.107069,0.48511 -0.18618,0.74392 -0.07911,0.2475 -0.164015,0.51185 -0.254508,0.79308 -0.07922,0.28153 -0.163747,0.60265 -0.254021,0.96334 -0.05639,0.23681 -0.141141,0.54089 -0.25418,0.9123 -0.10144,0.37173 -0.208937,0.76031 -0.321919,1.16576 -0.101711,0.39446 -0.19746,0.78339 -0.287646,1.16683 -0.09021,0.38337 -0.146379,0.70533 -0.168424,0.96585 0.204751,-0.23245 0.437889,-0.52081 0.699417,-0.86512 0.272903,-0.35536 0.557131,-0.73307 0.852708,-1.13316 0.295574,-0.41144 0.596847,-0.82841 0.903783,-1.25089 0.306937,-0.42247 0.61395,-0.82222 0.920992,-1.19926 0.398093,-0.48793 0.790529,-0.94765 1.177318,-1.37911 0.386801,-0.43147 0.790917,-0.8 1.212351,-1.10558 0.432761,-0.31657 0.900031,-0.55833 1.401728,-0.72528 0.501679,-0.17831 1.066397,-0.25824 1.694189,-0.23982 0.741922,0.0219 1.347302,0.19288 1.816202,0.51323 0.46881,0.309 0.84097,0.73436 1.11644,1.27613 0.2869,0.54212 0.49991,1.18425 0.63901,1.9264 0.13904,0.73077 0.24979,1.52889 0.33216,2.39427 0.047,0.4442 0.10515,0.90012 0.17516,1.36771 0.0812,0.46793 0.1966,0.89714 0.3461,1.28758 0.14948,0.3791 0.34443,0.69709 0.58485,0.95396 0.24037,0.2455 0.53748,0.37346 0.89133,0.38386 0.52507,0.0154 1.0954,-0.10408 1.71096,-0.35855 0.62696,-0.26547 1.28218,-0.63227 1.96563,-1.10045 0.68343,-0.46821 1.38378,-1.01541 2.101,-1.64154 0.71726,-0.62618 1.43435,-1.29777 2.15134,-2.01476 0.22759,-0.23179 0.44379,-0.45821 0.6486,-0.67929 0.21618,-0.23211 0.42102,-0.43614 0.61456,-0.61212 0.19348,-0.18737 0.38137,-0.33513 0.56367,-0.44333 0.18231,-0.10826 0.36479,-0.15962 0.5474,-0.15427 0.0686,0.002 0.14843,0.0163 0.23978,0.0412 0.0912,0.0147 0.17705,0.0504 0.25712,0.10964 0.0804,0.0477 0.14302,0.11772 0.18893,0.20996 0.0574,0.0924 0.0862,0.21827 0.0867,0.37725 z m 14.26005,-0.31364 c 6.6e-4,0.11358 -0.0448,0.25418 -0.13562,0.42182 -0.0908,0.1563 -0.20455,0.31764 -0.34102,0.48391 -0.13648,0.16633 -0.29581,0.3263 -0.47797,0.47992 -0.1708,0.14259 -0.34164,0.2568 -0.51262,0.34262 -0.17099,0.0743 -0.45605,0.16261 -0.85523,0.26445 -0.39916,0.10175 -0.86684,0.20162 -1.40297,0.29944 -0.52478,0.0867 -1.09522,0.16656 -1.71129,0.23929 -0.6047,0.0731 -1.19805,0.12945 -1.78001,0.16913 -0.5135,0.0302 -0.95854,0.0627 -1.3351,0.0971 -0.36514,0.0235 -0.69606,0.0478 -0.99273,0.0731 -0.29668,0.014 -0.5763,0.0284 -0.83876,0.0437 -0.26245,0.005 -0.54785,3.1e-4 -0.85601,-0.008 -0.0221,0.22641 -0.0669,0.6055 -0.13379,1.13719 -0.0669,0.52039 -0.14517,1.1199 -0.23451,1.79854 -0.0781,0.66766 -0.1672,1.3804 -0.26775,2.13822 -0.0894,0.74679 -0.18409,1.46505 -0.28485,2.15475 -0.0894,0.67862 -0.17316,1.29502 -0.25144,1.8491 -0.067,0.54306 -0.12275,0.95022 -0.16769,1.22142 -0.10094,0.62155 -0.21891,1.26528 -0.35397,1.93126 -0.13494,0.66598 -0.2875,1.22356 -0.45739,1.67277 -0.21521,0.57278 -0.4933,1.11533 -0.83421,1.62763 -0.32945,0.52402 -0.7104,1.02377 -1.14273,1.49934 -0.88744,0.96181 -1.95325,1.42445 -3.19742,1.3879 -0.27393,-0.007 -0.55375,-0.0673 -0.83938,-0.17793 -0.27422,-0.0989 -0.51995,-0.231 -0.73732,-0.39636 -0.2287,-0.15434 -0.41184,-0.33003 -0.54935,-0.52707 -0.13741,-0.19709 -0.20655,-0.39214 -0.20712,-0.5852 -5.1e-4,-0.18169 0.0386,-0.40197 0.11789,-0.6608 0.0793,-0.24747 0.19268,-0.4826 0.34037,-0.70536 0.14774,-0.22276 0.31837,-0.41645 0.51194,-0.58108 0.19357,-0.1533 0.41021,-0.22642 0.64992,-0.21936 0.0686,0.001 0.15411,0.0103 0.25688,0.0245 l 0.34261,0.0783 c 0.12564,0.0378 0.2456,0.0641 0.35975,0.0787 0.12559,0.0263 0.23412,0.041 0.32542,0.0437 0.19363,-0.13057 0.35856,-0.33008 0.49475,-0.59861 0.14758,-0.26821 0.27228,-0.57112 0.37401,-0.90876 0.1131,-0.33735 0.21485,-0.69773 0.30503,-1.08112 0.0902,-0.37205 0.16908,-0.73879 0.23652,-1.10015 0.14618,-0.75648 0.27537,-1.4794 0.38749,-2.16874 0.12336,-0.68905 0.2358,-1.36134 0.33663,-2.01697 0.1009,-0.65562 0.19023,-1.30022 0.26831,-1.9338 0.0781,-0.64492 0.13899,-1.29605 0.18269,-1.95333 0.0223,-0.15831 0.0446,-0.35638 0.0668,-0.5942 0.0334,-0.23744 0.0614,-0.49212 0.0834,-0.76399 0.0334,-0.27154 0.0554,-0.53772 0.0661,-0.79855 0.0221,-0.27187 0.0326,-0.51569 0.032,-0.73146 -2.5e-4,-0.0794 -0.0576,-0.17768 -0.17203,-0.2946 -0.1144,-0.11692 -0.24042,-0.25119 -0.37781,-0.40283 -0.13739,-0.15166 -0.26341,-0.31432 -0.37805,-0.488 -0.11458,-0.1737 -0.17218,-0.35139 -0.17273,-0.53309 0.0334,-0.28287 0.37998,-0.82343 1.03962,-1.62162 0.28436,-0.34362 0.49469,-0.63269 0.63093,-0.86712 0.13623,-0.24581 0.23258,-0.49278 0.28895,-0.74095 0.0563,-0.24813 0.0954,-0.5195 0.11753,-0.81406 0.0335,-0.29428 0.0837,-0.66182 0.15088,-1.10269 0.10091,-0.64426 0.19621,-1.23191 0.286,-1.76294 0.0896,-0.53107 0.19675,-1.03321 0.32091,-1.50646 0.13555,-0.48428 0.2997,-0.95636 0.49242,-1.41625 0.1927,-0.45988 0.43668,-0.94097 0.73199,-1.44326 0.23851,-0.40179 0.52837,-0.80774 0.8696,-1.21784 0.35263,-0.40979 0.73963,-0.77877 1.16097,-1.10707 0.43274,-0.32792 0.88856,-0.58709 1.36733,-0.77738 0.47879,-0.20169 0.9636,-0.29531 1.45441,-0.28089 1.02726,0.0296 1.87865,0.3901 2.55399,1.07988 0.75539,0.73754 1.13445,1.5719 1.13714,2.50309 0.003,1.13556 -0.43265,2.33774 -1.30783,3.60647 -0.54548,0.82425 -1.15495,1.22649 -1.82839,1.20668 l -0.30816,-0.008 c 0.14676,-0.55205 0.25371,-1.07124 0.32078,-1.55753 0.0672,-0.48627 0.1001,-0.93382 0.099,-1.34263 -5.2e-4,-0.1817 -0.013,-0.42051 -0.0362,-0.71642 -0.0237,-0.30729 -0.0702,-0.60389 -0.13959,-0.88979 -0.0694,-0.28589 -0.16134,-0.53272 -0.27604,-0.74048 -0.11485,-0.21913 -0.25779,-0.33121 -0.429,-0.33622 -0.11401,-0.004 -0.25089,0.0721 -0.41023,0.22641 -0.15934,0.15429 -0.32424,0.34817 -0.49478,0.58161 -0.15911,0.23378 -0.31817,0.49027 -0.47714,0.76947 -0.15899,0.27919 -0.30088,0.54754 -0.42571,0.80506 -0.14745,0.31358 -0.30595,0.75745 -0.47549,1.33157 -0.16959,0.56274 -0.32762,1.17128 -0.47412,1.82555 -0.1465,0.64294 -0.27588,1.29205 -0.38813,1.94732 -0.11243,0.64392 -0.19054,1.21506 -0.23474,1.71336 l 0.003,0.68137 c 1.9e-4,0.0682 0.0802,0.12722 0.24016,0.17738 0.15993,0.0389 0.37116,0.0734 0.63375,0.1038 0.27403,0.0308 0.58224,0.0568 0.92471,0.0782 l 1.04439,0.0303 c 0.59356,0.0171 1.1585,0.0222 1.69495,0.0156 0.54779,-0.006 1.08988,-0.0248 1.62623,-0.0545 0.53632,-0.041 1.07828,-0.0931 1.62594,-0.15666 0.5591,-0.063 1.14092,-0.14249 1.74555,-0.23828 0.0913,-0.01 0.17687,-0.0118 0.25677,-0.01 0.0913,-0.01 0.18829,-0.0114 0.29101,-0.01 0.57073,0.0171 0.85672,0.25226 0.85806,0.70649 z m 20.36887,-1.34352 c -2.8e-4,0.21571 -0.0728,0.44637 -0.22057,0.69186 -0.13625,0.23443 -0.31817,0.47322 -0.54574,0.71634 -0.21622,0.23209 -0.46664,0.4632 -0.7513,0.6933 -0.28463,0.23008 -0.56941,0.44313 -0.85415,0.63916 -0.28481,0.18468 -0.55826,0.34698 -0.82039,0.48688 -0.25064,0.14026 -0.46147,0.24761 -0.6325,0.32207 -0.30782,0.11583 -0.70699,0.22338 -1.19746,0.32251 -0.4791,0.0881 -0.98677,0.16406 -1.52299,0.2278 -0.5249,0.0527 -1.03836,0.0944 -1.54046,0.12508 -0.4907,0.0311 -0.90724,0.0415 -1.24966,0.0315 -0.0799,-0.002 -0.1941,-0.0114 -0.3425,-0.0271 -0.13699,-0.0266 -0.2912,-0.0595 -0.46251,-0.0988 -0.15988,-0.0389 -0.32549,-0.0833 -0.49687,-0.1338 -0.15993,-0.0615 -0.29713,-0.13362 -0.41151,-0.21647 0.12642,0.26489 0.19565,0.55644 0.20798,0.87474 0.0237,0.30728 0.0359,0.61424 0.0369,0.92084 -2.6e-4,0.21575 -0.0215,0.47061 -0.0663,0.7645 -0.0449,0.29392 -0.10682,0.593 -0.18575,0.89726 -0.0677,0.3046 -0.15236,0.59733 -0.25425,0.87821 -0.102,0.28088 -0.20966,0.51616 -0.32325,0.70586 -0.28398,0.47992 -0.59086,0.91944 -0.92072,1.31851 -0.31841,0.39944 -0.67686,0.76929 -1.07535,1.10959 -0.39846,0.34029 -0.8484,0.65636 -1.34971,0.94825 -0.50136,0.29182 -1.08264,0.57565 -1.74381,0.85145 -0.70679,0.28584 -1.41384,0.48083 -2.12116,0.58497 -0.70738,0.0928 -1.43776,0.1281 -2.19108,0.10595 -0.55932,-0.0167 -1.05622,-0.17294 -1.49079,-0.46958 -0.43459,-0.30799 -0.80098,-0.71049 -1.09917,-1.2075 -0.29814,-0.49702 -0.52808,-1.06584 -0.6897,-1.70645 -0.15018,-0.64028 -0.22632,-1.30676 -0.22834,-1.99948 -3e-4,-0.17034 0.0111,-0.38004 0.0323,-0.62924 0.0335,-0.26019 0.0728,-0.52019 0.11749,-0.78003 0.0562,-0.25952 0.11264,-0.51334 0.16898,-0.76148 0.0677,-0.24784 0.12982,-0.45605 0.18655,-0.62471 0.15841,-0.47227 0.38513,-1.01062 0.68011,-1.61515 0.30643,-0.60417 0.66418,-1.21818 1.07327,-1.84203 0.40905,-0.63521 0.8638,-1.25206 1.36427,-1.85049 0.50045,-0.60984 1.02959,-1.14499 1.58752,-1.60556 0.56929,-0.47152 1.15599,-0.84602 1.76012,-1.12351 0.61553,-0.27717 1.23143,-0.40667 1.84783,-0.38858 0.26252,0.006 0.47376,0.0422 0.63376,0.10379 0.15992,0.0501 0.2914,0.12207 0.39437,0.21597 0.10278,0.0824 0.19456,0.18171 0.27477,0.29761 0.0916,0.10488 0.18892,0.20995 0.29195,0.31518 0.0798,-0.0204 0.15968,-0.0351 0.23954,-0.0442 0.0913,-0.01 0.18258,-0.0115 0.2739,-0.01 0.35384,0.011 0.70238,0.1569 1.04559,0.43949 0.34321,0.28262 0.69221,0.59377 1.047,0.93346 0.16024,0.15233 0.32048,0.31031 0.48075,0.47398 0.17161,0.15268 0.3261,0.29347 0.46343,0.42239 0.13714,0.11758 0.25743,0.21762 0.3604,0.30013 0.11424,0.0717 0.19434,0.10791 0.23997,0.10925 l 0.95884,0.0283 1.06141,-0.003 c 0.36517,-0.0121 0.71324,-0.0301 1.04413,-0.0546 0.34238,-0.0242 0.65043,-0.0547 0.92425,-0.0922 0.0343,-0.0107 0.18251,-0.0399 0.44486,-0.089 0.2623,-0.0605 0.57599,-0.13068 0.94101,-0.21082 0.37637,-0.0911 0.78125,-0.18715 1.21467,-0.28796 0.43344,-0.10083 0.83262,-0.19131 1.1976,-0.2714 0.3764,-0.0911 0.69575,-0.16124 0.95814,-0.21031 0.27373,-0.0602 0.43344,-0.0895 0.4791,-0.0881 0.22824,0.006 0.411,0.0405 0.54812,0.10138 0.1371,0.0608 0.20606,0.2218 0.20683,0.48297 z m -19.72534,10.78124 c 0.92454,0.0279 1.73993,-0.19301 2.44623,-0.66055 0.71768,-0.46716 1.32078,-1.09667 1.80928,-1.88853 0.48844,-0.80319 0.86247,-1.71764 1.122,-2.74332 0.27095,-1.03667 0.41052,-2.10561 0.41875,-3.20677 -0.0804,-0.1727 -0.20076,-0.35224 -0.36107,-0.53862 -0.14893,-0.18607 -0.32057,-0.35004 -0.51502,-0.49202 -0.19447,-0.15333 -0.39456,-0.27845 -0.60029,-0.37532 -0.20568,-0.0968 -0.39419,-0.14784 -0.5654,-0.15286 -0.27391,-0.007 -0.57038,0.0912 -0.88936,0.29748 -0.31897,0.20641 -0.6151,0.41912 -0.8884,0.63819 -0.27331,0.21907 -0.54635,0.51195 -0.81925,0.87865 -0.26145,0.35569 -0.50569,0.75728 -0.73266,1.20482 -0.22697,0.44752 -0.43675,0.92393 -0.62933,1.42926 -0.19257,0.49395 -0.35666,0.98873 -0.49219,1.48437 -0.13542,0.48427 -0.24262,0.95803 -0.32117,1.42129 -0.0673,0.46357 -0.10027,0.87705 -0.0994,1.24044 5.1e-4,0.18167 0.0293,0.35853 0.0869,0.53054 0.0576,0.17203 0.1323,0.32749 0.22391,0.46645 0.10283,0.13928 0.22328,0.25069 0.36047,0.33418 0.13718,0.0835 0.28572,0.12768 0.44552,0.13229 z m 32.97917,-9.74481 c -0.0111,0.38573 -0.0835,0.70723 -0.21978,0.96439 -0.12479,0.25748 -0.2897,0.46269 -0.49469,0.61563 -0.19364,0.14193 -0.41588,0.2433 -0.66678,0.30408 -0.25095,0.0494 -0.502,0.0704 -0.75311,0.0631 -0.20547,-0.006 -0.411,-0.0405 -0.61664,-0.10325 -0.20561,-0.0629 -0.41684,-0.0975 -0.63371,-0.10378 -0.36524,-0.011 -0.81581,0.0896 -1.35161,0.30095 -0.52444,0.20034 -1.06579,0.46829 -1.62407,0.8039 -0.55831,0.33563 -1.10505,0.71129 -1.64028,1.12708 -0.53524,0.41575 -0.99629,0.82802 -1.38317,1.23681 -0.21618,0.23207 -0.46645,0.51427 -0.75082,0.8466 -0.28439,0.32092 -0.55734,0.65924 -0.81884,1.01492 -0.25006,0.356 -0.46589,0.71302 -0.64748,1.07105 -0.17016,0.35836 -0.25481,0.68516 -0.25397,0.98039 0.001,0.36339 0.0363,0.79024 0.10653,1.28054 0.0814,0.49067 0.12261,1.00852 0.12416,1.55359 7.2e-4,0.19308 -0.006,0.37454 -0.0155,0.54456 7e-5,0.159 -0.0217,0.31734 -0.0672,0.47495 -0.0228,0.13559 -0.096,0.28673 -0.22124,0.45337 -0.11359,0.15566 -0.26163,0.3046 -0.44382,0.44685 -0.18221,0.15359 -0.38156,0.27834 -0.59811,0.37416 -0.21659,0.0957 -0.43905,0.1404 -0.66734,0.13372 -0.37663,-0.0111 -0.69664,-0.15672 -0.95997,-0.43697 -0.2633,-0.28025 -0.47555,-0.66686 -0.63676,-1.15986 -0.14976,-0.49266 -0.25992,-1.06931 -0.33025,-1.72996 -0.0707,-0.66065 -0.10675,-1.3714 -0.10894,-2.1322 l -10e-4,-0.45995 c 0.0116,-0.26081 0.0156,-0.54455 0.0147,-0.85119 0.0115,-0.30623 0.021,-0.60118 0.0318,-0.88473 0.0115,-0.28353 0.0156,-0.46511 0.0156,-0.54456 -1.4e-4,-0.0453 0.006,-0.19287 0.0158,-0.4424 0.022,-0.24915 0.0441,-0.54941 0.0659,-0.90076 0.0333,-0.36238 0.0608,-0.74765 0.0821,-1.15579 0.0331,-0.41914 0.0605,-0.81576 0.0822,-1.18984 0.0332,-0.37374 0.0609,-0.70222 0.0827,-0.98546 0.0219,-0.29458 0.0386,-0.48709 0.0496,-0.57764 0.0124,-0.0338 0.0224,-0.14697 0.0333,-0.33966 0.0222,-0.20376 0.0444,-0.43586 0.0666,-0.69635 0.0335,-0.26019 0.0728,-0.52588 0.11745,-0.79709 0.0449,-0.27118 0.0899,-0.49696 0.13489,-0.67729 0.0453,-0.15766 0.1359,-0.34235 0.27235,-0.55407 0.14776,-0.21141 0.32982,-0.41045 0.54611,-0.59715 0.22769,-0.19768 0.47828,-0.36066 0.75187,-0.48888 0.27353,-0.13957 0.56436,-0.20486 0.87258,-0.19578 0.36521,0.011 0.65644,0.076 0.87366,0.19597 0.2286,0.12037 0.40592,0.26738 0.53201,0.4414 0.13729,0.16304 0.22927,0.34173 0.27544,0.5361 0.0461,0.18304 0.0696,0.3484 0.0699,0.49601 2.5e-4,0.0907 -0.0335,0.29423 -0.10105,0.61018 -0.0679,0.30458 -0.15793,0.64261 -0.27102,1.01399 -0.13537,0.49565 -0.2537,1.07693 -0.35448,1.7439 -0.1009,0.65564 -0.17892,1.2892 -0.23418,1.90074 0.62574,-0.6856 1.29714,-1.37557 2.01415,-2.0699 0.717,-0.70564 1.46278,-1.33664 2.23729,-1.893 0.77446,-0.56771 1.56638,-1.02134 2.37574,-1.36092 0.80935,-0.35098 1.61922,-0.51453 2.42959,-0.49074 0.39951,0.0119 0.75926,0.0905 1.07926,0.2361 0.31996,0.1343 0.5887,0.3125 0.80617,0.53463 0.22888,0.2111 0.40079,0.44894 0.51567,0.71346 0.12636,0.25353 0.1898,0.51088 0.19054,0.77205 l 9e-5,0.0341 z m 40.29368,3.60182 c 4.7e-4,0.1022 -0.0279,0.23764 -0.0844,0.40631 -0.0452,0.15765 -0.10736,0.33179 -0.18684,0.5225 -0.0791,0.17936 -0.17582,0.36388 -0.28942,0.55357 -0.1024,0.19003 -0.20439,0.36871 -0.30663,0.53602 -0.18181,0.27853 -0.42629,0.60066 -0.73336,0.96636 -0.3071,0.36568 -0.6484,0.7474 -1.02391,1.14514 -0.3755,0.39776 -0.77381,0.79485 -1.19498,1.19123 -0.42112,0.39641 -0.83664,0.76459 -1.24655,1.10456 -0.33023,0.26282 -0.71744,0.55235 -1.16165,0.8686 -0.4442,0.31626 -0.91702,0.60892 -1.41842,0.87808 -0.5014,0.26915 -1.01438,0.49252 -1.53886,0.67016 -0.51314,0.16662 -1.00941,0.24287 -1.4888,0.22878 -0.44517,-0.0132 -0.87911,-0.11109 -1.30197,-0.29369 -0.41142,-0.19375 -0.80048,-0.54014 -1.16715,-1.03917 -0.35522,-0.49869 -0.67108,-1.18927 -0.94754,-2.0717 -0.27648,-0.88244 -0.49659,-2.0244 -0.66043,-3.42583 -0.0119,-0.13662 -0.0294,-0.34723 -0.0532,-0.63178 -0.0135,-0.29561 -0.0303,-0.58564 -0.054,-0.87024 -0.0135,-0.2956 -0.03,-0.55158 -0.0536,-0.768 -0.0234,-0.21645 -0.0466,-0.32499 -0.0697,-0.32566 -0.0913,-0.002 -0.24499,0.12905 -0.4611,0.39524 -0.20467,0.2665 -0.45473,0.6225 -0.75021,1.06801 -0.28404,0.43451 -0.59644,0.94196 -0.93719,1.52241 -0.34075,0.56911 -0.69285,1.16057 -1.05636,1.77441 -0.45423,0.7815 -0.88593,1.48418 -1.29499,2.10805 -0.39771,0.61282 -0.77859,1.12965 -1.14256,1.55044 -0.35266,0.40977 -0.69985,0.72317 -1.04164,0.94024 -0.33033,0.2174 -0.66671,0.32109 -1.00918,0.31103 -0.52505,-0.0154 -0.95338,-0.12457 -1.28494,-0.32729 -0.33158,-0.21413 -0.59499,-0.52846 -0.79024,-0.94295 -0.19525,-0.42585 -0.33375,-0.96362 -0.41551,-1.61324 -0.0818,-0.66099 -0.13545,-1.44038 -0.16091,-2.33813 -0.0384,-1.49996 -0.0932,-2.67114 -0.16415,-3.51346 -0.0594,-0.84201 -0.14635,-1.2647 -0.26043,-1.26805 -0.13693,-0.004 -0.36476,0.16529 -0.68337,0.50791 -0.31858,0.34266 -0.69956,0.81403 -1.14296,1.41419 -0.43198,0.60048 -0.90926,1.30751 -1.43192,2.12106 -0.51132,0.81389 -1.03948,1.68972 -1.58461,2.62753 -0.13621,0.24582 -0.30094,0.53053 -0.49402,0.85413 -0.19308,0.32363 -0.39187,0.65276 -0.59636,0.98738 -0.20447,0.33467 -0.40899,0.65794 -0.61352,0.96987 -0.19312,0.31225 -0.36928,0.57962 -0.52843,0.80202 -0.20457,0.28922 -0.45503,0.50898 -0.75137,0.65925 -0.29633,0.13888 -0.61003,0.20348 -0.94103,0.19378 -0.46798,-0.0143 -0.86774,-0.12198 -1.19933,-0.32478 -0.33159,-0.21413 -0.6006,-0.49452 -0.80707,-0.84127 -0.20643,-0.34667 -0.36165,-0.75435 -0.46576,-1.22293 -0.0926,-0.46825 -0.13969,-0.96358 -0.14116,-1.48594 -10e-4,-0.46563 0.01,-0.88541 0.0302,-1.25952 0.0217,-0.37407 0.0552,-0.74781 0.0995,-1.12122 0.0446,-0.38476 0.0948,-0.78637 0.15059,-1.20486 0.0675,-0.41813 0.1401,-0.89858 0.21842,-1.44134 0.0673,-0.47492 0.11712,-0.97308 0.14978,-1.49442 0.0327,-0.53271 0.0658,-1.04837 0.0983,-1.54704 0.0328,-0.50999 0.0714,-0.98009 0.11565,-1.41028 0.0443,-0.4302 0.10619,-0.78606 0.18525,-1.06761 0.0566,-0.19137 0.13002,-0.39362 0.22077,-0.60667 0.0908,-0.22443 0.22137,-0.42496 0.39204,-0.60166 0.17068,-0.18801 0.38706,-0.34063 0.64925,-0.45785 0.26215,-0.12854 0.58727,-0.1871 0.97536,-0.17571 0.35382,0.011 0.63938,0.0868 0.85662,0.22951 0.21726,0.1313 0.38327,0.31218 0.49804,0.54263 0.11474,0.21913 0.18972,0.4768 0.2248,0.77306 0.0465,0.28525 0.0705,0.58686 0.0712,0.9048 7.9e-4,0.27255 -0.0378,0.64045 -0.11655,1.10368 -0.0671,0.46357 -0.15693,0.97761 -0.26946,1.54202 -0.10121,0.55343 -0.2193,1.13473 -0.35451,1.74391 -0.13517,0.59785 -0.26483,1.17313 -0.3888,1.72589 -0.11249,0.55306 -0.21378,1.05539 -0.3038,1.50694 -0.0901,0.4402 -0.15181,0.78469 -0.18534,1.03352 0.0226,-0.0446 0.085,-0.15648 0.18737,-0.33514 0.11365,-0.17833 0.24422,-0.39593 0.39184,-0.65275 0.15906,-0.25649 0.32376,-0.52984 0.49414,-0.82005 0.17036,-0.29025 0.32935,-0.56377 0.47699,-0.82061 0.15906,-0.25646 0.29536,-0.47956 0.40895,-0.66924 0.11383,-0.18971 0.18174,-0.30696 0.20442,-0.35171 0.20449,-0.33462 0.44308,-0.70801 0.7158,-1.12015 0.2727,-0.42347 0.55681,-0.84659 0.85237,-1.26943 0.29549,-0.43413 0.58535,-0.84576 0.86953,-1.23482 0.29563,-0.38874 0.56292,-0.71585 0.80183,-0.98136 0.51199,-0.56405 1.05289,-0.98534 1.62274,-1.26383 0.58128,-0.27816 1.19722,-0.40767 1.84782,-0.38856 0.69629,0.0202 1.27909,0.276 1.74846,0.76669 0.46938,0.49068 0.78509,1.12445 0.9471,1.90134 0.0578,0.28557 0.10448,0.64462 0.14006,1.07715 0.0354,0.43253 0.0599,0.88744 0.0726,1.36472 0.0242,0.46625 0.0425,0.93802 0.0555,1.41533 0.0131,0.47727 0.0191,0.90326 0.0203,1.27799 0.0128,0.37508 0.0249,0.68203 0.0369,0.92082 0.0133,0.23885 0.0354,0.35872 0.0698,0.35973 0.10259,0.002 0.25068,-0.13458 0.44396,-0.41275 0.19323,-0.27819 0.40904,-0.62955 0.64748,-1.05405 0.23849,-0.42446 0.48823,-0.88268 0.74933,-1.37462 0.26108,-0.49195 0.51087,-0.94448 0.74936,-1.35763 0.39756,-0.65826 0.81808,-1.28743 1.26147,-1.8876 0.44332,-0.61148 0.8812,-1.14364 1.3136,-1.59649 0.44376,-0.46389 0.86503,-0.82622 1.26374,-1.08703 0.39869,-0.27217 0.75213,-0.4037 1.0603,-0.39466 0.21685,0.005 0.43952,0.0356 0.66793,0.0877 0.22843,0.052 0.4455,0.12666 0.65119,0.22352 0.21711,0.0856 0.41145,0.19377 0.58304,0.32371 0.17153,0.11864 0.30317,0.25304 0.39492,0.40333 0.19491,0.31232 0.33855,0.6515 0.43094,1.01757 0.0925,0.36606 0.15629,0.77105 0.1918,1.21492 0.047,0.44422 0.0771,0.93336 0.0897,1.46742 0.0244,0.53439 0.0719,1.12623 0.14213,1.77552 0.12891,1.18469 0.31425,2.11556 0.55587,2.79256 0.24162,0.67706 0.58503,1.02211 1.03021,1.03518 0.19405,0.006 0.44493,-0.055 0.75273,-0.18229 0.31918,-0.13823 0.66108,-0.30986 1.02572,-0.5149 0.37601,-0.21607 0.75768,-0.45466 1.14499,-0.71581 0.39869,-0.2608 0.76888,-0.52245 1.11052,-0.78494 0.37581,-0.28419 0.73451,-0.57454 1.07605,-0.87111 0.34148,-0.30788 0.67727,-0.62165 1.00736,-0.94124 0.34149,-0.31926 0.68291,-0.64987 1.02433,-0.99186 0.35279,-0.35299 0.72266,-0.72251 1.10961,-1.10856 0.23901,-0.23145 0.5126,-0.34265 0.82078,-0.33359 0.36525,0.011 0.54865,0.27727 0.55017,0.79962 z m 7.64924,-1.172 c -4.7e-4,-0.1022 -0.0233,-0.2221 -0.0697,-0.35973 -0.035,-0.13727 -0.0862,-0.26372 -0.15519,-0.37927 -0.0575,-0.12657 -0.12599,-0.2308 -0.20633,-0.31262 -0.0801,-0.093 -0.15448,-0.14081 -0.22296,-0.14283 -0.75335,-0.0223 -1.44331,0.16202 -2.06993,0.55238 -0.61523,0.37937 -1.25855,0.9055 -1.93003,1.57841 -0.37557,0.3637 -0.7793,0.85713 -1.21122,1.48031 -0.4205,0.62355 -0.81235,1.28763 -1.17551,1.99234 -0.36324,0.70468 -0.66365,1.4112 -0.90125,2.11957 -0.23768,0.70839 -0.35569,1.33512 -0.35412,1.88021 0.001,0.13628 0.008,0.27272 0.0186,0.40932 0.0231,0.12555 0.0579,0.24011 0.10355,0.34365 0.0574,0.10382 0.13186,0.19126 0.2233,0.26207 0.0917,0.0708 0.21148,0.10845 0.35987,0.11272 0.43374,0.0132 0.92416,-0.10914 1.47125,-0.36555 0.54708,-0.26781 1.09392,-0.61511 1.64056,-1.04189 0.55796,-0.43782 1.09294,-0.93874 1.6049,-1.50281 0.52336,-0.57509 0.96107,-1.16405 1.31316,-1.76684 0.43159,-0.73676 0.80029,-1.50941 1.10609,-2.31798 0.30583,-0.80858 0.45748,-1.65573 0.45493,-2.54147 z m 15.5684,2.21148 c 10e-4,0.13632 -0.0274,0.30011 -0.0838,0.4915 -0.0452,0.18032 -0.10735,0.36587 -0.18672,0.55655 -0.0793,0.17935 -0.17015,0.35838 -0.27236,0.53704 -0.0909,0.16768 -0.18171,0.31262 -0.27267,0.43483 -0.0569,0.0778 -0.1478,0.18873 -0.27295,0.33265 -0.12507,0.13258 -0.26739,0.28736 -0.42669,0.46437 -0.15927,0.16565 -0.34137,0.34765 -0.54626,0.54601 -0.19344,0.1987 -0.3926,0.39726 -0.59748,0.59563 -0.66025,0.59376 -1.33194,1.1815 -2.01508,1.76325 -0.67173,0.57074 -1.37791,1.07801 -2.11848,1.52181 -0.74065,0.43244 -1.51573,0.7787 -2.32532,1.03881 -0.80956,0.2601 -1.67094,0.37673 -2.58412,0.34993 -0.38806,-0.0111 -0.78212,-0.10818 -1.18211,-0.29021 -0.39996,-0.18205 -0.7716,-0.42574 -1.11486,-0.73106 -0.34329,-0.30531 -0.64681,-0.66619 -0.91049,-1.08273 -0.25235,-0.42753 -0.43056,-0.88129 -0.53464,-1.36127 -0.20449,0.33467 -0.47166,0.69585 -0.80155,1.08358 -0.32989,0.37637 -0.69403,0.75175 -1.09239,1.12612 -0.38699,0.37467 -0.79113,0.73185 -1.21247,1.07149 -0.42132,0.32827 -0.81428,0.61194 -1.17881,0.85104 -0.25061,0.16299 -0.55831,0.32995 -0.92306,0.50091 -0.35329,0.1713 -0.72948,0.33058 -1.12852,0.47784 -0.39907,0.13589 -0.80393,0.24889 -1.21454,0.33902 -0.39923,0.0791 -0.77005,0.11366 -1.11251,0.10355 -0.54785,-0.0164 -1.02769,-0.18348 -1.43952,-0.50216 -0.41183,-0.33003 -0.75535,-0.72617 -1.03061,-1.18844 -0.26384,-0.46194 -0.46499,-0.95045 -0.60342,-1.46547 -0.12681,-0.51468 -0.19114,-0.97646 -0.19233,-1.38526 -0.002,-0.74949 0.10409,-1.50713 0.31875,-2.27295 0.22601,-0.77684 0.5092,-1.5293 0.84949,-2.25738 0.35175,-0.72774 0.73777,-1.4204 1.15815,-2.07799 0.43182,-0.65727 0.85244,-1.24106 1.26184,-1.75132 0.43215,-0.53233 0.94998,-1.05648 1.55338,-1.57248 0.60336,-0.5273 1.2355,-0.99132 1.8963,-1.39204 0.66078,-0.41207 1.31042,-0.73931 1.94887,-0.98173 0.64985,-0.24208 1.22588,-0.35573 1.72813,-0.34099 0.27394,0.007 0.55359,0.0285 0.83904,0.0588 0.29682,0.0209 0.58795,0.0514 0.8734,0.0939 0.28544,0.0425 0.55954,0.10165 0.82225,0.17745 0.26272,0.076 0.49696,0.16785 0.70272,0.27613 0.13721,0.0948 0.2861,0.26385 0.44657,0.50704 0.17188,0.23213 0.3267,0.48649 0.46445,0.76304 0.14911,0.26554 0.27545,0.53042 0.37893,0.79464 0.10337,0.26417 0.15543,0.47009 0.15585,0.61771 2.1e-4,0.31794 -0.0494,0.69689 -0.15079,1.13675 -0.09,0.42884 -0.1972,0.87987 -0.32138,1.35314 -0.11277,0.4736 -0.21981,0.95872 -0.32111,1.45531 -0.10126,0.49667 -0.15127,0.97209 -0.14993,1.42636 1.9e-4,0.31792 0.0475,0.64291 0.13973,0.9749 0.0925,0.33201 0.2244,0.63679 0.39641,0.91437 0.17195,0.2662 0.37803,0.48801 0.61823,0.66538 0.24019,0.17738 0.50866,0.27041 0.80544,0.27912 0.67341,0.0194 1.34083,-0.0856 2.0021,-0.31591 0.66137,-0.23037 1.32239,-0.55161 1.98317,-0.96367 0.66076,-0.42344 1.32124,-0.9207 1.98162,-1.49175 0.66029,-0.58243 1.32614,-1.21009 1.99762,-1.88302 0.0227,6.9e-4 0.11395,-0.0817 0.27317,-0.24748 0.15933,-0.16563 0.34711,-0.34748 0.56338,-0.5455 0.22772,-0.1977 0.46116,-0.3782 0.70039,-0.54151 0.25062,-0.16296 0.46723,-0.24177 0.64988,-0.23641 0.33099,0.009 0.54817,0.11266 0.65143,0.30869 0.10309,0.19606 0.1555,0.49284 0.15667,0.89029 z m 16.20475,-2.72617 c 7.8e-4,0.27252 -0.13543,0.52401 -0.40871,0.75443 -0.26182,0.23076 -0.60931,0.44198 -1.04247,0.63364 -0.43317,0.19166 -0.92343,0.36461 -1.47082,0.51888 -0.54744,0.14286 -1.10062,0.27426 -1.65949,0.39411 -0.54752,0.10876 -1.07798,0.20111 -1.59136,0.27688 -0.50202,0.0646 -0.92983,0.12029 -1.28357,0.16669 -1.27783,0.14414 -2.34467,0.24908 -3.20048,0.31479 -0.8444,0.066 -1.44902,0.17318 -1.81378,0.32145 -0.20302,0.84565 -0.41161,1.72521 -0.62586,2.63865 -0.20282,0.90244 -0.38871,1.74858 -0.55763,2.53847 -0.16892,0.78989 -0.30963,1.47836 -0.42202,2.06552 -0.10107,0.58748 -0.15127,0.98346 -0.15069,1.18784 0.001,0.14766 0.008,0.27841 0.0183,0.39226 0.0119,0.10247 0.0288,0.19958 0.0522,0.2911 0.0346,0.0921 0.0633,0.18352 0.0863,0.27507 0.0347,0.0804 0.0692,0.17803 0.10351,0.29257 0.0459,0.11492 0.0921,0.26955 0.13817,0.46394 0.0461,0.19439 0.0867,0.38859 0.12148,0.58267 0.0461,0.19438 0.0809,0.3714 0.10427,0.53106 0.0233,0.17101 0.0351,0.29057 0.0354,0.35872 -2.4e-4,0.21574 -0.0502,0.44702 -0.15205,0.69384 -0.0907,0.25849 -0.22113,0.4988 -0.39167,0.72089 -0.17058,0.22211 -0.37554,0.40342 -0.61478,0.54402 -0.23924,0.15194 -0.50726,0.22355 -0.80399,0.21485 -0.30821,-0.008 -0.59381,-0.10259 -0.85682,-0.28066 -0.25158,-0.16636 -0.48049,-0.38882 -0.68674,-0.66739 -0.20619,-0.26722 -0.38968,-0.5735 -0.55047,-0.91889 -0.14934,-0.33365 -0.27585,-0.66667 -0.37951,-0.999 -0.10365,-0.33233 -0.18449,-0.6413 -0.24239,-0.92685 -0.0466,-0.29662 -0.0703,-0.54143 -0.0707,-0.73448 -7e-4,-0.19306 0.0159,-0.49345 0.0491,-0.90124 0.0445,-0.40746 0.12305,-0.81963 0.23611,-1.23645 0.35003,-1.31824 0.62081,-2.40034 0.81241,-3.24632 0.19155,-0.85737 0.33224,-1.54019 0.42211,-2.04854 0.0897,-0.51966 0.14577,-0.89841 0.16791,-1.13622 0.0336,-0.23748 0.0559,-0.40145 0.0672,-0.49194 -0.14842,-0.005 -0.35954,5.5e-4 -0.63339,0.0154 -0.27395,0.005 -0.55924,0.0176 -0.85589,0.0431 -0.28528,0.0143 -0.55348,0.0292 -0.80453,0.0444 -0.25108,0.005 -0.42229,0.005 -0.51359,0.003 -0.60494,-0.0178 -1.11303,-0.0724 -1.52417,-0.16397 -0.41116,-0.0915 -0.74256,-0.25458 -0.99433,-0.48906 -0.26322,-0.24618 -0.44679,-0.58089 -0.55076,-1.00406 -0.11545,-0.43488 -0.17408,-0.99867 -0.17607,-1.69137 0.55929,0.004 1.03289,-0.01 1.42081,-0.0434 0.39936,-0.0452 0.76455,-0.0627 1.09553,-0.0531 0.0913,0.002 0.31957,-0.003 0.68477,-0.0139 0.37655,-0.0232 0.7874,-0.0448 1.23244,-0.066 0.44506,-0.0211 0.873,-0.0426 1.28384,-0.0644 0.42218,-0.033 0.72456,-0.0581 0.90712,-0.0756 0.0225,-0.12422 0.0677,-0.32162 0.1352,-0.59212 0.0679,-0.27055 0.14102,-0.5693 0.22,-0.89627 l 0.27107,-0.97993 c 0.0904,-0.32662 0.16943,-0.60819 0.23726,-0.84465 0.0565,-0.16865 0.12985,-0.4447 0.22017,-0.82808 0.0902,-0.39479 0.18602,-0.80076 0.28755,-1.21788 0.10134,-0.41718 0.19166,-0.80058 0.27057,-1.15027 0.0901,-0.36069 0.14669,-0.59182 0.16922,-0.69336 0.12407,-0.47324 0.2656,-0.91193 0.42418,-1.31606 0.1586,-0.41547 0.33448,-0.76798 0.52767,-1.05753 0.20459,-0.2892 0.42653,-0.51546 0.66574,-0.67874 0.23919,-0.16331 0.49006,-0.24113 0.7526,-0.23341 0.61636,0.0182 1.062,0.18448 1.33677,0.49911 0.27483,0.30333 0.41311,0.76156 0.41487,1.37476 0.001,0.28393 -0.0326,0.60085 -0.1,0.95088 -0.0676,0.35002 -0.1634,0.71624 -0.28789,1.09865 -0.24883,0.78753 -0.44091,1.44614 -0.5764,1.97584 -0.12387,0.53005 -0.22535,0.99829 -0.30408,1.40475 -0.0788,0.39514 -0.1405,0.76232 -0.18513,1.10166 -0.0446,0.33934 -0.10642,0.71224 -0.18512,1.1187 -0.0124,0.045 -0.0226,0.13561 -0.0334,0.27153 l 7.8e-4,0.27255 c 0.98161,0.0284 1.94026,0.006 2.87594,-0.0688 0.94709,-0.0745 1.90562,-0.14276 2.87553,-0.20511 0.54776,-0.0406 1.02696,-0.089 1.43768,-0.14513 0.42212,-0.0558 0.81003,-0.10669 1.16373,-0.15319 0.35367,-0.0464 0.69596,-0.0818 1.02689,-0.10606 0.3423,-0.0354 0.70749,-0.0476 1.09556,-0.0359 0.13691,0.004 0.27968,0.0251 0.42822,0.0637 0.14842,0.027 0.27982,0.082 0.39421,0.16484 0.12574,0.0718 0.22879,0.18269 0.3091,0.33268 0.0802,0.13865 0.12061,0.3215 0.12124,0.54861 z m 4.2507,-10.16267 c 0.001,0.37475 -0.0551,0.73075 -0.1681,1.0681 -0.11316,0.32596 -0.27781,0.63338 -0.49384,0.92226 -0.43201,0.58911 -1.09887,0.87042 -2.00059,0.84395 -0.31959,-0.009 -0.64501,-0.0474 -0.97618,-0.11389 -0.33119,-0.0665 -0.62817,-0.15471 -0.89102,-0.26461 -0.26279,-0.10991 -0.48006,-0.24689 -0.65172,-0.41089 -0.17167,-0.16402 -0.25779,-0.34821 -0.25839,-0.55259 -8.3e-4,-0.35205 0.0892,-0.71845 0.27076,-1.09918 0.18145,-0.39211 0.41444,-0.74859 0.69884,-1.06955 0.29577,-0.33196 0.61457,-0.60078 0.95637,-0.8065 0.35319,-0.21669 0.68961,-0.32041 1.0092,-0.31102 0.39951,0.0119 0.75341,0.0507 1.06176,0.11642 0.30832,0.0544 0.56539,0.14718 0.7712,0.27813 0.21722,0.13126 0.38325,0.31215 0.49802,0.5426 0.11477,0.23049 0.17272,0.51606 0.17369,0.85672 z m 10.68994,14.33144 c 5.5e-4,0.2612 -0.10107,0.59318 -0.30531,0.99596 -0.19288,0.39173 -0.46553,0.83226 -0.81794,1.32151 -0.34103,0.47827 -0.75042,0.99423 -1.22819,1.54794 -0.47778,0.54235 -0.99547,1.10057 -1.55308,1.67466 -0.60306,0.62951 -1.25756,1.24618 -1.96346,1.84994 -0.70588,0.60381 -1.45748,1.18354 -2.25482,1.73922 -0.78594,0.54467 -1.56085,0.96474 -2.32468,1.26025 -0.76387,0.28415 -1.48823,0.41618 -2.17311,0.39607 -0.79898,-0.024 -1.49562,-0.17452 -2.0899,-0.45315 -0.58292,-0.28965 -1.08622,-0.66776 -1.50984,-1.13438 -0.41228,-0.47765 -0.7505,-1.01557 -1.01472,-1.6138 -0.2643,-0.60958 -0.47726,-1.24603 -0.63896,-1.90934 -0.15024,-0.67436 -0.25499,-1.35304 -0.31405,-2.03608 -0.0591,-0.683 -0.0891,-1.33114 -0.091,-1.94434 -1.4e-4,-0.23844 0.0153,-0.59567 0.0484,-1.07161 0.0329,-0.47592 0.0771,-0.97425 0.13274,-1.49494 0.0672,-0.53169 0.13398,-1.04071 0.20103,-1.52699 0.0782,-0.49735 0.1572,-0.88677 0.23629,-1.16829 0.16961,-0.55141 0.56189,-1.06789 1.1768,-1.54944 0.59219,-0.45954 1.25353,-0.67855 1.98405,-0.65711 0.74192,0.0219 1.11416,0.47557 1.11673,1.36131 0.001,0.42019 -0.0374,0.86756 -0.1159,1.34218 -0.0673,0.46354 -0.1457,0.92112 -0.23574,1.37266 -0.14598,0.82462 -0.24655,1.57109 -0.30169,2.23939 -0.0551,0.65696 -0.0819,1.24097 -0.0805,1.75196 7.8e-4,0.57911 0.0375,1.14228 0.1075,1.68935 0.0701,0.54709 0.16847,1.03824 0.29527,1.47346 0.13818,0.42418 0.30467,0.76973 0.49947,1.03661 0.20621,0.26718 0.44625,0.40482 0.72024,0.41287 0.34242,0.0109 0.69619,-0.008 1.06126,-0.0541 0.3651,-0.0575 0.80404,-0.21478 1.3169,-0.4723 0.98009,-0.5049 2.02243,-1.19532 3.12698,-2.07125 0.38712,-0.30658 0.82553,-0.66842 1.3151,-1.0855 0.50094,-0.42815 0.99618,-0.86212 1.48567,-1.30192 0.48945,-0.4512 0.95044,-0.89184 1.38293,-1.322 0.43248,-0.43012 0.77378,-0.80048 1.024,-1.11107 0.0342,-0.0558 0.0795,-0.12255 0.13635,-0.20038 0.0686,-0.0888 0.14216,-0.17751 0.22178,-0.26602 0.0796,-0.0887 0.16503,-0.15979 0.2562,-0.21387 0.10263,-0.0651 0.19948,-0.0963 0.29078,-0.0937 0.18263,0.006 0.31398,0.0377 0.39401,0.0968 0.0916,0.0481 0.18894,0.20428 0.29242,0.46845 0.12619,0.28759 0.18982,0.52791 0.19037,0.72095 z m 19.25916,-0.26902 c -5e-5,0.22711 -0.0329,0.42486 -0.10106,0.59319 -0.0566,0.15728 -0.1532,0.31909 -0.28966,0.48539 -0.12499,0.15532 -0.29009,0.32647 -0.49501,0.51349 -0.20491,0.18701 -0.45531,0.42378 -0.7512,0.71032 l -1.50239,1.45471 c -0.3187,0.30858 -0.59753,0.56725 -0.8366,0.77595 -0.23907,0.20874 -0.47252,0.40627 -0.70026,0.59261 -0.21634,0.17532 -0.44406,0.36167 -0.68318,0.55902 -0.23913,0.18602 -0.52947,0.41594 -0.87108,0.68978 -0.74015,0.60279 -1.46897,1.16616 -2.1865,1.69012 -0.71756,0.52395 -1.41812,0.99164 -2.10171,1.40305 -1.02544,0.61712 -2.12547,1.08443 -3.30013,1.40194 -1.17464,0.31751 -2.41831,0.45698 -3.73093,0.41843 -0.85611,-0.0255 -1.61557,-0.20073 -2.27849,-0.52677 -0.66295,-0.33741 -1.22345,-0.77402 -1.6815,-1.30977 -0.45814,-0.54713 -0.80808,-1.17625 -1.0498,-1.88732 -0.23034,-0.72215 -0.34665,-1.47498 -0.34892,-2.25852 -0.005,-1.48759 0.30533,-2.97168 0.92878,-4.45222 0.62344,-1.49186 1.48093,-2.94849 2.57253,-4.36988 0.27289,-0.35534 0.59139,-0.72637 0.95551,-1.11309 0.37553,-0.3864 0.7683,-0.73253 1.17828,-1.03842 0.40995,-0.31726 0.83155,-0.57173 1.26464,-0.7634 0.43316,-0.20299 0.85517,-0.29847 1.2661,-0.28641 0.27393,0.007 0.53667,0.0952 0.78826,0.26158 0.26296,0.15532 0.51463,0.36714 0.75512,0.63534 0.25188,0.26856 0.48674,0.58205 0.70464,0.94045 0.21785,0.34704 0.41866,0.72195 0.60241,1.12477 0.36753,0.80563 0.55184,1.39015 0.5529,1.75352 7.2e-4,0.19308 -0.0214,0.43087 -0.0665,0.71342 -0.0335,0.27153 -0.1068,0.53053 -0.22034,0.77703 -0.10182,0.24679 -0.2441,0.45836 -0.42618,0.6347 -0.18213,0.16495 -0.41586,0.24327 -0.70122,0.23488 -0.42235,-0.012 -0.77084,-0.15322 -1.04554,-0.42244 -0.27474,-0.28059 -0.50391,-0.59956 -0.68757,-0.95696 -0.18363,-0.35742 -0.33302,-0.70811 -0.44816,-1.05215 -0.10355,-0.34367 -0.20145,-0.59069 -0.29317,-0.74098 -0.27367,0.0941 -0.56411,0.28431 -0.87149,0.57052 -0.2959,0.28656 -0.59164,0.64123 -0.88715,1.06403 -0.29552,0.42278 -0.57376,0.9029 -0.83475,1.44026 -0.26097,0.526 -0.4933,1.09261 -0.697,1.69982 -0.1923,0.59613 -0.35032,1.21032 -0.47407,1.84257 -0.11235,0.63255 -0.16753,1.26113 -0.16572,1.88571 7.7e-4,0.5791 0.21426,1.09067 0.63786,1.53462 0.48075,0.49098 0.92662,0.74254 1.33754,0.7546 1.30119,0.0384 2.55038,-0.16357 3.74749,-0.60529 1.20856,-0.44141 2.37097,-1.04316 3.48727,-1.80523 0.75182,-0.51159 1.53768,-1.08464 2.35761,-1.71915 0.81989,-0.64585 1.71933,-1.41996 2.69827,-2.3223 0.35287,-0.33026 0.70576,-0.64353 1.05872,-0.93976 0.36435,-0.30721 0.71743,-0.57504 1.05913,-0.80345 0.35314,-0.2281 0.68361,-0.41142 0.99138,-0.54999 0.31917,-0.13823 0.61571,-0.20336 0.88964,-0.19531 0.59358,0.0171 0.89126,0.33844 0.89303,0.96299 z m 5.78379,-0.95426 c -0.003,-0.68139 -0.0662,-1.1715 -0.19253,-1.47042 -0.11504,-0.30998 -0.25244,-0.46728 -0.41222,-0.472 -0.20549,-0.006 -0.42791,0.0387 -0.6673,0.13371 -0.22803,0.084 -0.45026,0.20252 -0.66667,0.35512 -0.21646,0.14125 -0.42141,0.29989 -0.61495,0.47586 -0.18212,0.17636 -0.33565,0.34785 -0.46077,0.51448 -0.22732,0.3226 -0.48307,0.6898 -0.76721,1.1016 -0.28416,0.41178 -0.57388,0.85181 -0.86931,1.32003 -0.29537,0.46824 -0.58505,0.94799 -0.86897,1.43925 -0.27252,0.49162 -0.51648,0.97838 -0.73196,1.46032 -0.21544,0.48192 -0.39101,0.948 -0.52666,1.39819 -0.13554,0.45022 -0.20298,0.85702 -0.20195,1.22043 10e-4,0.38609 0.0591,0.70004 0.17394,0.94185 0.11477,0.23048 0.32057,0.35007 0.61734,0.35878 0.1598,0.005 0.39919,-0.10177 0.71809,-0.31956 0.33037,-0.21739 0.68342,-0.49088 1.0591,-0.82049 0.38706,-0.34065 0.76836,-0.70984 1.14385,-1.10759 0.3755,-0.39775 0.68828,-0.78031 0.93829,-1.14765 0.27278,-0.40078 0.54546,-0.82993 0.81803,-1.28749 0.2726,-0.45753 0.52237,-0.92142 0.74926,-1.39166 0.22695,-0.47027 0.40818,-0.93615 0.54384,-1.3977 0.14703,-0.46124 0.21997,-0.89624 0.21876,-1.30506 z m 10.29393,7.60911 c -4.7e-4,0.20437 -0.0385,0.4417 -0.11772,0.71189 -0.0791,0.25885 -0.21529,0.5217 -0.40859,0.78852 -0.21582,0.35702 -0.50008,0.72339 -0.8528,1.09908 -0.35281,0.36438 -0.75699,0.69882 -1.21265,1.00339 -0.44423,0.30488 -0.93429,0.55165 -1.47018,0.74031 -0.52451,0.17762 -1.07784,0.25788 -1.65996,0.24078 -0.66201,-0.019 -1.25023,-0.17297 -1.76467,-0.46059 -0.51445,-0.28764 -0.96063,-0.66976 -1.33865,-1.14639 -0.37806,-0.48804 -0.68213,-1.04198 -0.91216,-1.66191 -0.23009,-0.63127 -0.38605,-1.28875 -0.46791,-1.97244 -0.47739,0.68998 -1.02333,1.34956 -1.63783,1.97874 -0.60311,0.61816 -1.24068,1.16719 -1.91272,1.64707 -0.6606,0.46886 -1.3329,0.84085 -2.01691,1.11598 -0.68401,0.26379 -1.33423,0.38665 -1.9506,0.36853 -0.44516,-0.0132 -0.86777,-0.12196 -1.26782,-0.32679 -0.40011,-0.21611 -0.75472,-0.49904 -1.06388,-0.84877 -0.29774,-0.34939 -0.53855,-0.74824 -0.72251,-1.19644 -0.18388,-0.44826 -0.27655,-0.9165 -0.27795,-1.40484 -0.003,-0.43153 0.0314,-0.88471 0.0988,-1.35965 0.0786,-0.48595 0.20252,-1.00464 0.37215,-1.55606 0.16961,-0.55139 0.39041,-1.1524 0.66248,-1.80297 0.28344,-0.65028 0.62953,-1.36113 1.03816,-2.13261 0.45405,-0.86098 1.00528,-1.67372 1.6536,-2.43817 0.64834,-0.7758 1.30835,-1.44904 1.98013,-2.01975 0.6717,-0.58212 1.32092,-1.03994 1.94771,-1.37356 0.62678,-0.3336 1.1399,-0.4945 1.53941,-0.48278 0.12552,0.004 0.2626,0.0304 0.41111,0.0802 0.15987,0.0388 0.30839,0.0886 0.44552,0.14932 0.13706,0.0495 0.25712,0.0986 0.35995,0.14682 0.10295,0.0483 0.17143,0.0733 0.20566,0.0742 0.0126,3.7e-4 0.0509,-0.0213 0.11947,-0.0648 0.0686,-0.0435 0.15378,-0.0862 0.25641,-0.12873 0.10265,-0.0538 0.21088,-0.0959 0.32494,-0.1267 0.12537,-0.0419 0.2509,-0.0609 0.37646,-0.0572 0.19404,0.005 0.39967,0.0684 0.61684,0.18843 0.22861,0.10897 0.44588,0.25724 0.65187,0.44497 0.20593,0.17638 0.38912,0.37478 0.54955,0.59522 0.16043,0.22047 0.26376,0.43925 0.31004,0.65634 0.035,0.13728 0.0635,0.23464 0.0865,0.29209 0.0228,0.046 0.0458,0.0867 0.069,0.12123 0.14879,0.14064 0.26905,0.29745 0.36088,0.47046 0.0919,0.16168 0.13792,0.39014 0.13891,0.68541 10e-4,0.13628 -0.0386,0.38491 -0.11747,0.74596 -0.0676,0.35001 -0.15189,0.75062 -0.25332,1.20184 -0.0901,0.45154 -0.17425,0.92598 -0.25271,1.42331 -0.0673,0.48628 -0.1001,0.93381 -0.099,1.34262 0.002,1.05607 0.0685,1.94938 0.19606,2.67982 0.13888,0.71944 0.31188,1.30361 0.51865,1.75252 0.20673,0.44891 0.44164,0.77375 0.70472,0.9745 0.26303,0.18938 0.52585,0.28796 0.78834,0.29566 0.69628,0.0202 1.28943,-0.104 1.77941,-0.37355 0.50145,-0.26912 0.93976,-0.64235 1.31502,-1.11956 0.10247,-0.12192 0.1877,-0.22726 0.25586,-0.3161 0.0796,-0.0999 0.1536,-0.18284 0.22188,-0.24895 0.0795,-0.066 0.16514,-0.11444 0.25636,-0.14578 0.10245,-0.0311 0.22242,-0.0447 0.35939,-0.0406 0.17125,0.005 0.34836,0.0841 0.53146,0.23702 0.18298,0.14163 0.2748,0.32602 0.27545,0.55315 z"
         id="path5"
         sodipodi:nodetypes="cccsccsscccscscscscscccsccccssccccccssscccsscccscccccccccccccscccscssscssscccccscccccscscccsccccccccscccccsccscscsscccccscccscsccscccccccscsscccsscccssccsccscccccccccccccscccsccsscscscccccccccscccccsssscccsccscsccccscscscsscscsscscccccscccscccccscccccsccccccscccccsscsccssccscscscccscccccscccccssccccsccccccsccssccsccccccsssscscccsscsssccccssscssccccscsccccssscssccssccccccccsccccscccscccccccscccscccccccssscsscsccsccccscccccccscccccsscccsscccscscsscccccsccccscccsccccccccscsccccccsscscccsssssccccsscccscccssccccccccsccccccscccsssccssccccsccsccccccccccsssscccccccccscccscccccccscsscccssccssscssscccsccssssccscccccccscsccccsccscscscccscscccccccccssccccsccccccsccsccccsscsscccsccccccscscccccsccssssscccsccssscccccsccsccccsssccccsscccssccscccccsccscsccccsccsssscccsssscccscscccscccsscccscscccscccscscccccccsssscsccccsscssscsccsssscsscccccssccccccsccsscsccccssccsssccsccsccccscccscscscccccscss"
         inkscape:transform-center-x="-3.0384792"
         inkscape:transform-center-y="0.26235699" />
      <path
         style="fill:#63d58d;fill-opacity:1;stroke-width:0.578035"
         d=""
         id="path11" />
      <text
         xml:space="preserve"
         style="font-style:normal;font-variant:normal;font-weight:normal;font-stretch:normal;font-size:93.0958px;font-family:Candara;-inkscape-font-specification:Candara;opacity:1;fill:#dcdcdc;fill-opacity:1;stroke:none;stroke-width:8.84122;stroke-dasharray:none;stroke-opacity:1;paint-order:stroke fill markers"
         x="3.8563917"
         y="100.382"
         id="text19"
         transform="scale(0.98587001,1.0143325)"
         inkscape:transform-center-x="-18.869351"
         inkscape:transform-center-y="-88.642764"><tspan
           id="tspan19"
           x="3.8563917"
           y="100.382"
           style="font-style:normal;font-variant:normal;font-weight:normal;font-stretch:normal;font-size:93.0958px;font-family:'Ink Free';-inkscape-font-specification:'Ink Free';writing-mode:lr-tb;fill:#dcdcdc;fill-opacity:1;stroke:none;stroke-width:8.84122;stroke-dasharray:none"
           sodipodi:role="line" /></text>
    </g>
    <g
       id="text2"
       transform="matrix(0.86117508,0,0,0.88664841,20.99438,51.930303)">
      <path
         style="color:#000000;-inkscape-font-specification:'Microsoft Himalaya';fill:#4a4a2e;fill-opacity:1;stroke-width:1.60919;-inkscape-stroke:none;paint-order:stroke fill markers"
         d="m 22.336461,139.89271 h 17.578937 v 1.41466 h -1.155711 c -1.054323,0 -1.865345,0.24521 -2.433065,0.73562 -0.527162,0.45271 -0.790751,1.09401 -0.790751,1.92395 -0.04054,0.82996 0.243302,1.88623 0.85158,3.16888 l 8.698224,19.18294 8.698235,-19.91859 c 0.608276,-1.3958 0.912406,-2.47095 0.912406,-3.22543 0,-0.75449 -0.324402,-1.24491 -0.973225,-1.47127 -0.648822,-0.26405 -1.743702,-0.3961 -3.284657,-0.3961 v -1.41466 h 12.165369 v 1.41466 c -0.851587,0.0754 -1.561227,0.22636 -2.128959,0.4527 -0.527165,0.18863 -0.993496,0.47155 -1.399009,0.84878 -0.405494,0.37726 -0.750186,0.84881 -1.034043,1.41468 -0.283873,0.52816 -0.588003,1.1506 -0.912423,1.86738 L 43.869135,175.71218 H 42.22682 L 28.905751,146.40017 c -0.405519,-0.90538 -0.79075,-1.65986 -1.15571,-2.26345 -0.364961,-0.6036 -0.790753,-1.09403 -1.277355,-1.47127 -0.48662,-0.37725 -1.05434,-0.66018 -1.703161,-0.8488 -0.648821,-0.22635 -1.459842,-0.3961 -2.433064,-0.50928 z m 49.938782,13.07155 c 0,2.603 0.364972,4.92306 1.094891,6.96018 0.770496,2.03714 1.763981,3.77247 2.980517,5.20599 1.2571,1.43354 2.696661,2.52755 4.318709,3.28203 1.662612,0.75449 3.406292,1.13176 5.23108,1.13176 2.43309,0 4.54176,-0.62247 6.32601,-1.86738 1.8248,-1.24491 3.34548,-3.39522 4.56202,-6.45089 l 1.27737,0.73563 c -0.28385,1.6976 -0.85159,3.37635 -1.70316,5.03622 -0.85158,1.62216 -1.94647,3.09341 -3.28465,4.41379 -1.29765,1.28262 -2.81832,2.32005 -4.56201,3.11227 -1.74372,0.79221 -3.649608,1.18832 -5.71772,1.18832 -2.230321,0 -4.338998,-0.41498 -6.325992,-1.2449 -1.946467,-0.86768 -3.669871,-2.07487 -5.170283,-3.62158 -1.459845,-1.58442 -2.635818,-3.47065 -3.527951,-5.65866 -0.85157,-2.22576 -1.27737,-4.71558 -1.27737,-7.46948 0,-2.98024 0.446057,-5.6398 1.33819,-7.97874 0.892132,-2.33894 2.108668,-4.31948 3.649626,-5.94162 1.540955,-1.62216 3.345476,-2.84821 5.413576,-3.67815 2.108664,-0.82994 4.379538,-1.2449 6.812597,-1.2449 2.068127,0 3.974017,0.33952 5.717727,1.01856 1.7437,0.64131 3.24409,1.58442 4.50119,2.82933 1.29764,1.20718 2.31139,2.67846 3.04133,4.41378 0.72993,1.73533 1.0949,3.67815 1.0949,5.82844 z m 0,-2.15029 H 89.55007 c -0.20275,-3.20659 -1.03405,-5.54552 -2.4939,-7.01677 -1.41929,-1.509 -3.284649,-2.26347 -5.596063,-2.26347 -1.09489,0 -2.16948,0.20748 -3.223818,0.62245 -1.054339,0.41496 -2.007283,1.01856 -2.85886,1.81076 -0.811023,0.79222 -1.500402,1.77308 -2.068099,2.94252 -0.567734,1.13175 -0.912405,2.43325 -1.034087,3.90451 z m 222.107197,-27.69369 0.54323,56.19747 c 0,0 -5.62301,0.17539 -5.88106,-0.21247 -0.25805,-0.38786 -1.04265,-45.52897 -0.83816,-52.06211 -6.85011,-0.16299 -147.53945,-1.36406 -150.54239,-0.61808 l -7.10157,1.76415 -0.68424,37.56371 c -0.0316,1.7351 0.12176,3.11228 0.36496,4.13084 0.28385,0.98084 0.66907,1.71647 1.15569,2.2069 0.48664,0.49041 1.09489,0.81106 1.82483,0.96196 0.72992,0.11319 1.58149,0.16976 2.5547,0.16976 h 1.88563 v 1.41467 h -23.4183 v -1.41467 h 1.94646 c 0.97321,0 1.82477,-0.0754 2.5547,-0.22634 0.72995,-0.15087 1.3382,-0.47156 1.82482,-0.96198 0.4866,-0.52815 0.85158,-1.28264 1.0949,-2.26348 0.28384,-0.98083 0.4883,-2.32095 0.42575,-4.01766 l -1.36851,-37.12268 -5.2616,-2.20518 c -1.49435,-0.6263 -88.964068,-0.4287 -90.261709,-0.16463 -1.739281,-0.33438 -11.858175,-0.37672 -12.790855,0.30232 -0.932664,0.64131 1.039366,53.09278 0.425339,53.46747 -1.31442,0.37305 -4.4050667,0.0666 -6.1938485,0.14327 -0.079293,-1.1124 0.045649,-28.91074 -0.3019992,-43.58287 l 0.120532,-13.54962 z M 161.9948,138.87415 v 7.80897 c 3.16297,-5.20599 6.3868,-7.80897 9.67144,-7.80897 0.72992,0 1.39901,0.11307 2.00728,0.33952 0.64884,0.22634 1.19626,0.54699 1.64233,0.96197 0.48661,0.37727 0.85158,0.82994 1.09487,1.35809 0.28386,0.49042 0.42579,1.01855 0.42579,1.58441 0,0.98084 -0.36494,1.81079 -1.09488,2.48983 -0.68935,0.67905 -1.52066,1.01857 -2.4939,1.01857 -0.44604,0 -0.97322,-0.13207 -1.58149,-0.3961 -0.56769,-0.26408 -1.13542,-0.56589 -1.70314,-0.90539 -0.52717,-0.33952 -1.03406,-0.64134 -1.52068,-0.9054 -0.44605,-0.26408 -0.79075,-0.39612 -1.03405,-0.39612 -0.72993,0 -1.58149,0.54701 -2.55473,1.64102 -0.97322,1.09402 -1.92616,2.48983 -2.85884,4.18744 v 16.69313 c 0,1.01855 0.0608,1.94279 0.18247,2.77275 0.16222,0.82992 0.46634,1.5467 0.9124,2.15029 0.44607,0.56587 1.09488,1.01856 1.94646,1.35809 0.89213,0.30179 2.06811,0.45268 3.52796,0.45268 v 1.35809 h -19.16045 v -1.35809 c 1.21656,0 2.18976,-0.0754 2.91969,-0.22633 0.77048,-0.15086 1.37874,-0.45269 1.82479,-0.9054 0.44608,-0.45271 0.75021,-1.09401 0.91241,-1.92395 0.16222,-0.86766 0.24331,-1.99938 0.24331,-3.3952 v -13.46768 c 0,-2.03713 -0.0405,-3.64043 -0.12175,-4.80989 -0.0406,-1.16945 -0.10144,-1.96168 -0.18247,-2.37665 -0.4055,-1.50897 -1.31795,-2.26346 -2.73722,-2.26346 -0.44606,0 -0.89213,0.0567 -1.33818,0.16976 -0.44608,0.0754 -0.95297,0.20748 -1.52068,0.3961 l -0.36495,-1.35809 11.25296,-4.24399 z m 29.80511,0 v 27.8973 c 0,1.65989 0.10144,2.94253 0.30413,3.84792 0.20278,0.86766 0.52717,1.50897 0.97324,1.92394 0.48661,0.37726 1.0746,0.6036 1.76398,0.67904 0.72992,0.0377 1.60178,0.0567 2.61555,0.0567 v 1.35807 h -18.12637 v -1.35807 c 1.25709,0 2.25058,-0.0754 2.9805,-0.22635 0.77049,-0.18861 1.35847,-0.52814 1.76398,-1.01855 0.40549,-0.49041 0.64883,-1.15061 0.72991,-1.98054 0.12163,-0.86768 0.18248,-1.96169 0.18248,-3.28204 v -13.3545 c 0,-2.18804 -0.0406,-3.92337 -0.12163,-5.206 -0.081,-1.28265 -0.22301,-2.22575 -0.4258,-2.82935 -0.20275,-0.6413 -0.50687,-1.03742 -0.9124,-1.18831 -0.36495,-0.18863 -0.85155,-0.28294 -1.45985,-0.28294 -0.40549,0 -0.83128,0.0567 -1.27735,0.16976 -0.40552,0.0754 -0.89213,0.20748 -1.45983,0.39611 l -0.60829,-1.35808 11.25298,-4.24401 z m -5.1442,-7.98224 c 1.17599,0 1.49249,0.14414 1.99078,0.89863 -0.0811,0.60051 -0.80445,1.33979 -1.28389,1.54278 -1.02302,0.43314 -1.61907,0.44687 -1.87062,0.5124 -0.45693,-0.0191 -1.21048,-0.12243 -1.50935,-0.27031 -0.2816,-0.13941 -0.71229,-0.50332 -1.0546,-0.71206 -0.1279,-0.63105 -0.1034,-0.32246 -0.15417,-0.48246 -0.0289,-0.0914 0.38141,-0.52595 0.5155,-0.76443 0.0754,-0.13395 4.54234,-0.72455 3.36637,-0.72455 z m 26.31195,15.33853 c 1e-4,6.19374 8.49545,-7.35629 12.46947,-7.35629 1.37874,0 2.6561,0.22633 3.8321,0.67904 1.176,0.41497 2.18976,1.13172 3.04134,2.15028 0.89213,0.98086 1.5815,2.32006 2.06811,4.01768 0.48663,1.65988 0.72992,3.73471 0.72992,6.22455 v 14.82575 c 0,1.509 0.081,2.69732 0.24332,3.56499 0.20275,0.86766 0.50686,1.52782 0.91239,1.98053 0.44607,0.41497 1.03405,0.67904 1.76398,0.79222 0.72992,0.11318 1.6626,0.16974 2.79803,0.16974 v 1.35809 h -18.43053 v -1.35809 h 0.72993 c 1.21653,0 2.16949,-0.0943 2.85886,-0.28292 0.72992,-0.22633 1.25707,-0.58473 1.58149,-1.07515 0.36496,-0.49041 0.58799,-1.1506 0.66911,-1.98054 0.12175,-0.86768 0.18247,-1.92395 0.18247,-3.16887 v -14.20328 c 0,-3.20658 -0.44607,-5.50778 -1.33819,-6.90362 -0.85157,-1.3958 -2.33171,-2.0937 -4.44036,-2.0937 -3.28466,0 -9.67144,0.63624 -9.67144,4.92305 v 18.27755 c 0,1.47126 0.0406,2.64072 0.12163,3.50839 0.12176,0.82994 0.38526,1.47126 0.79076,1.92394 0.40551,0.45271 1.01379,0.75449 1.82479,0.90541 0.81103,0.11318 1.9262,0.16974 3.34547,0.16974 v 1.35809 h -18.49133 v -1.35809 h 0.79074 c 0.97324,0 1.76398,-0.0943 2.37226,-0.28292 0.64882,-0.22633 1.15573,-0.58473 1.52066,-1.07515 0.36496,-0.49041 0.60828,-1.1506 0.72995,-1.98054 0.16221,-0.86768 0.24328,-1.92395 0.24328,-3.16887 v -12.84521 c 0,-2.48982 -0.0406,-4.41377 -0.12176,-5.77186 -0.081,-1.35808 -0.24328,-2.33891 -0.4866,-2.94251 -0.20278,-0.64133 -0.50692,-1.01857 -0.91241,-1.13174 -0.36498,-0.11306 -0.83131,-0.16976 -1.39901,-0.16976 -0.40552,0 -0.83131,0.0567 -1.27737,0.16976 -0.40553,0.0754 -0.89215,0.20748 -1.45987,0.3961 l -0.60823,-1.35809 11.25292,-4.24399 h 1.76401 z m 52.00689,23.42694 c -1.94648,1.35809 -3.52795,2.4521 -4.74449,3.28203 -1.17599,0.79223 -2.00727,1.28264 -2.49389,1.47128 -1.50041,0.6413 -3.06162,0.96197 -4.68368,0.96197 -1.29764,0 -2.4939,-0.22635 -3.58878,-0.67904 -1.05435,-0.41497 -1.98702,-0.99972 -2.79803,-1.75421 -0.77048,-0.7922 -1.37874,-1.73531 -1.82479,-2.82933 -0.44608,-1.09402 -0.66912,-2.32006 -0.66912,-3.67815 0,-1.58442 0.32442,-2.9991 0.97325,-4.24402 0.68935,-1.2449 1.7234,-2.37664 3.10213,-3.39521 1.41931,-1.05628 3.24412,-2.01824 5.47443,-2.88592 3.4874,-1.509 11.25297,-0.54618 11.25297,-4.30061 v -1.35808 c 0,-1.73532 -0.16223,-3.18773 -0.48663,-4.35718 -0.28386,-1.16946 -0.72991,-2.09371 -1.3382,-2.77277 -0.60827,-0.71676 -1.33819,-1.20718 -2.18974,-1.47125 -0.85158,-0.30179 -1.8248,-0.45268 -2.91968,-0.45268 -1.74371,0 -3.12246,0.43381 -4.13623,1.30149 -1.01379,0.86766 -1.52069,1.84849 -1.52069,2.94251 l 0.12175,2.20689 c 0,1.16946 -0.32443,2.07485 -0.97324,2.71617 -0.60826,0.6036 -1.43955,0.90538 -2.4939,0.90538 -1.01378,0 -1.84508,-0.32067 -2.4939,-0.96197 -0.64882,-0.67905 -0.97322,-1.58443 -0.97322,-2.71616 0,-1.05629 0.30413,-2.09373 0.9124,-3.11229 0.60827,-1.05628 1.50039,-1.99941 2.67639,-2.82934 1.17597,-0.82994 2.59524,-1.49011 4.25786,-1.98055 1.70314,-0.52812 3.6496,-0.79219 5.83937,-0.79219 2.87915,0 5.31223,0.3961 7.29922,1.18831 2.02754,0.79223 3.4874,2.1503 4.37953,4.07426 0.48662,1.094 0.72993,3.31976 0.72993,6.67725 v 11.77005 c 0,1.99942 0.0204,3.54612 0.0608,4.64013 0.081,1.05629 0.20275,1.82965 0.36496,2.32007 0.16223,0.49041 0.36498,0.79222 0.60826,0.90538 0.24331,0.0754 0.54747,0.11307 0.91244,0.11307 0.28383,0 0.54741,-0.0377 0.79074,-0.11307 0.24327,-0.0754 0.52714,-0.22634 0.85155,-0.4527 0.32442,-0.22633 0.68939,-0.52813 1.09488,-0.90539 l 1.70316,-1.58443 v 2.1503 c 0,4.61113 -5.94074,5.65869 -8.69825,5.65869 -1.29761,0 -2.35195,-0.41497 -3.16296,-1.24491 -0.81104,-0.86767 1.16324,-4.41378 -1.21654,-4.41378 z m 0,-2.48982 v -13.24132 c -2.83859,1.05627 -6.08271,2.41438 -9.73231,4.07426 -1.33817,0.64131 -2.3925,1.54671 -3.16298,2.71617 -0.72991,1.16946 -1.09488,2.47095 -1.09488,3.90447 0,0.90539 0.16221,1.7542 0.48662,2.54642 0.3244,0.75449 0.75018,1.41467 1.27736,1.98053 0.52716,0.56589 1.13543,1.01857 1.82481,1.35809 0.72992,0.30181 1.48009,0.4527 2.25059,0.4527 2.06811,0 4.78503,-1.26377 8.15079,-3.79132 z"
         id="path4"
         sodipodi:nodetypes="cccscccccsccccccscccccsscccccccscccccsscccssscsccscccccssccccczcscscscsccccssccscscccccccccscccscscccsscsccccccccscssccsccccccsccccccccscsssccscccccccscscssscscccssccsccccscccsscscscscccccscscsssccsccccccsccsccssccccscccsscccscscscsccsscscssssccscssccccscscscc" />
    </g>
  </g>
</svg>
